<svg xmlns="http://www.w3.org/2000/svg" width="320" height="660" viewBox="0 0 320 660" role="img" aria-label="Memory Vault screen"><defs>
      <linearGradient id="gScr" x1="0" y1="0" x2="0.6" y2="1">
        <stop offset="0" stop-color="#181235"/><stop offset="1" stop-color="#0c0920"/></linearGradient>
      <linearGradient id="gFrame" x1="0" y1="0" x2="1" y2="1">
        <stop offset="0" stop-color="#2a2352"/><stop offset="1" stop-color="#0a0818"/></linearGradient>
      <linearGradient id="gCard" x1="0" y1="0" x2="0.4" y2="1">
        <stop offset="0" stop-color="#201a48"/><stop offset="1" stop-color="#181240"/></linearGradient>
      <linearGradient id="gBrand" x1="0" y1="0" x2="1" y2="0">
        <stop offset="0" stop-color="#7b5cff"/><stop offset="1" stop-color="#9d7bff"/></linearGradient>
      <linearGradient id="gAmber" x1="0" y1="0" x2="1" y2="0">
        <stop offset="0" stop-color="#ffb84d"/><stop offset="1" stop-color="#ffd27a"/></linearGradient>
      <linearGradient id="mV" x1="0" y1="0" x2="1" y2="0"><stop offset="0" stop-color="#7b5cff"/><stop offset="1" stop-color="#9d7bff"/></linearGradient>
      <linearGradient id="mA" x1="0" y1="0" x2="1" y2="0"><stop offset="0" stop-color="#ffb84d"/><stop offset="1" stop-color="#ff9f45"/></linearGradient>
      <linearGradient id="mG" x1="0" y1="0" x2="1" y2="0"><stop offset="0" stop-color="#5fb87a"/><stop offset="1" stop-color="#7bc47f"/></linearGradient>
      <linearGradient id="mC" x1="0" y1="0" x2="1" y2="0"><stop offset="0" stop-color="#6bb6d6"/><stop offset="1" stop-color="#9fd8e8"/></linearGradient>
      <radialGradient id="orb" cx="36%" cy="30%" r="78%">
        <stop offset="0" stop-color="#d9ccff"/><stop offset="38%" stop-color="#7b5cff"/>
        <stop offset="78%" stop-color="#3f3bc0"/><stop offset="100%" stop-color="#140f34"/></radialGradient>
      <radialGradient id="glow" cx="50%" cy="50%" r="50%">
        <stop offset="0" stop-color="#9fd8e8" stop-opacity="0.5"/><stop offset="1" stop-color="#9fd8e8" stop-opacity="0"/></radialGradient>
    </defs><rect x="10.0" y="12.0" width="300.0" height="636.0" rx="40" fill="url(#gFrame)"/><rect x="20.0" y="22.0" width="280.0" height="616.0" rx="31" fill="url(#gScr)"/><rect x="126.0" y="26.0" width="68.0" height="17.0" rx="9" fill="#04030a"/><text x="34.0" y="56.0" font-family="-apple-system,BlinkMacSystemFont,'SF Pro Display','SF Pro Text','Segoe UI',Roboto,system-ui,sans-serif" font-size="11" font-weight="600" fill="#c7c9d9" text-anchor="start">9:41</text><text x="286.0" y="56.0" font-family="-apple-system,BlinkMacSystemFont,'SF Pro Display','SF Pro Text','Segoe UI',Roboto,system-ui,sans-serif" font-size="10" font-weight="700" fill="#9fd8e8" text-anchor="end">● 07</text><text x="34.0" y="88.0" font-family="-apple-system,BlinkMacSystemFont,'SF Pro Display','SF Pro Text','Segoe UI',Roboto,system-ui,sans-serif" font-size="20" font-weight="700" fill="#f2effc" text-anchor="start" letter-spacing="-0.4">Memory Vault</text><rect x="178.84" y="80.68" width="7.92" height="5.94" rx="2" fill="none" stroke="#ffb84d" stroke-width="1.12" stroke-linecap="round" stroke-linejoin="round"/><path d="M180.49 80.68 v-1.98 a2.31 2.31 0 0 1 4.62 0 v1.98" fill="none" stroke="#ffb84d" stroke-width="1.12" stroke-linecap="round" stroke-linejoin="round"/><circle cx="182.8" cy="83.65" r="0.792" fill="#ffb84d"/><text x="34.0" y="106.0" font-family="-apple-system,BlinkMacSystemFont,'SF Pro Display','SF Pro Text','Segoe UI',Roboto,system-ui,sans-serif" font-size="11.5" font-weight="400" fill="#9a93c6" text-anchor="start">Your AI remembers</text><circle cx="160.0" cy="162" r="48.0" fill="url(#glow)"/><circle cx="160.0" cy="162" r="32" fill="url(#orb)"/><circle cx="160.0" cy="162" r="32" fill="none" stroke="rgba(255,255,255,0.20)" stroke-width="1"/><ellipse cx="151.0" cy="151.1" rx="9.6" ry="5.8" fill="rgba(255,255,255,0.40)"/><rect x="151.0" y="159.0" width="18.0" height="13.5" rx="2" fill="none" stroke="rgba(255,255,255,0.95)" stroke-width="2.55" stroke-linecap="round" stroke-linejoin="round"/><path d="M154.75 159.0 v-4.5 a5.25 5.25 0 0 1 10.5 0 v4.5" fill="none" stroke="rgba(255,255,255,0.95)" stroke-width="2.55" stroke-linecap="round" stroke-linejoin="round"/><circle cx="160.0" cy="165.75" r="1.7999999999999998" fill="rgba(255,255,255,0.95)"/><rect x="34.0" y="214.0" width="252.0" height="40.0" rx="12" fill="url(#gCard)" stroke="#302a60" stroke-width="1"/><rect x="42.0" y="217.0" width="34.0" height="34.0" rx="11" fill="rgba(123,92,255,0.16)"/><rect x="52.56" y="227.56" width="12.88" height="12.88" rx="2" fill="none" stroke="#7b5cff" stroke-width="1.56" stroke-linecap="round" stroke-linejoin="round"/><path d="M59 227.56 v12.88" fill="none" stroke="#7b5cff" stroke-width="1.56" stroke-linecap="round" stroke-linejoin="round"/><text x="84.0" y="239.0" font-family="-apple-system,BlinkMacSystemFont,'SF Pro Display','SF Pro Text','Segoe UI',Roboto,system-ui,sans-serif" font-size="12" font-weight="600" fill="#f2effc" text-anchor="start">Stories</text><text x="256.0" y="239.0" font-family="-apple-system,BlinkMacSystemFont,'SF Pro Display','SF Pro Text','Segoe UI',Roboto,system-ui,sans-serif" font-size="11" font-weight="500" fill="#9a93c6" text-anchor="end">245 items</text><text x="272.0" y="239.0" font-family="-apple-system,BlinkMacSystemFont,'SF Pro Display','SF Pro Text','Segoe UI',Roboto,system-ui,sans-serif" font-size="15" font-weight="400" fill="#6a6399" text-anchor="end">›</text><rect x="34.0" y="262.0" width="252.0" height="40.0" rx="12" fill="url(#gCard)" stroke="#302a60" stroke-width="1"/><rect x="42.0" y="265.0" width="34.0" height="34.0" rx="11" fill="rgba(231,139,208,0.16)"/><rect x="56.24" y="274.64" width="5.5200000000000005" height="10.120000000000001" rx="2.7600000000000002" fill="none" stroke="#e78bd0" stroke-width="1.56" stroke-linecap="round" stroke-linejoin="round"/><path d="M53.48 282 c0 4.6000000000000005 11.040000000000001 4.6000000000000005 11.040000000000001 0 M59 286.6 v2.7600000000000002" fill="none" stroke="#e78bd0" stroke-width="1.56" stroke-linecap="round" stroke-linejoin="round"/><text x="84.0" y="287.0" font-family="-apple-system,BlinkMacSystemFont,'SF Pro Display','SF Pro Text','Segoe UI',Roboto,system-ui,sans-serif" font-size="12" font-weight="600" fill="#f2effc" text-anchor="start">Voice Notes</text><text x="256.0" y="287.0" font-family="-apple-system,BlinkMacSystemFont,'SF Pro Display','SF Pro Text','Segoe UI',Roboto,system-ui,sans-serif" font-size="11" font-weight="500" fill="#9a93c6" text-anchor="end">38 items</text><text x="272.0" y="287.0" font-family="-apple-system,BlinkMacSystemFont,'SF Pro Display','SF Pro Text','Segoe UI',Roboto,system-ui,sans-serif" font-size="15" font-weight="400" fill="#6a6399" text-anchor="end">›</text><rect x="34.0" y="310.0" width="252.0" height="40.0" rx="12" fill="url(#gCard)" stroke="#302a60" stroke-width="1"/><rect x="42.0" y="313.0" width="34.0" height="34.0" rx="11" fill="rgba(159,216,232,0.16)"/><rect x="51.64" y="324.48" width="14.72" height="11.040000000000001" rx="2" fill="none" stroke="#9fd8e8" stroke-width="1.56" stroke-linecap="round" stroke-linejoin="round"/><circle cx="56.24" cy="329.08" r="1.6560000000000001" fill="none" stroke="#9fd8e8" stroke-width="1.56" stroke-linecap="round" stroke-linejoin="round"/><path d="M51.64 333.68 l4.6000000000000005 -3.68 3.68 2.7600000000000002 2.7600000000000002 -1.84 3.68 2.7600000000000002" fill="none" stroke="#9fd8e8" stroke-width="1.56" stroke-linecap="round" stroke-linejoin="round"/><text x="84.0" y="335.0" font-family="-apple-system,BlinkMacSystemFont,'SF Pro Display','SF Pro Text','Segoe UI',Roboto,system-ui,sans-serif" font-size="12" font-weight="600" fill="#f2effc" text-anchor="start">Photos</text><text x="256.0" y="335.0" font-family="-apple-system,BlinkMacSystemFont,'SF Pro Display','SF Pro Text','Segoe UI',Roboto,system-ui,sans-serif" font-size="11" font-weight="500" fill="#9a93c6" text-anchor="end">122 items</text><text x="272.0" y="335.0" font-family="-apple-system,BlinkMacSystemFont,'SF Pro Display','SF Pro Text','Segoe UI',Roboto,system-ui,sans-serif" font-size="15" font-weight="400" fill="#6a6399" text-anchor="end">›</text><rect x="34.0" y="358.0" width="252.0" height="40.0" rx="12" fill="url(#gCard)" stroke="#302a60" stroke-width="1"/><rect x="42.0" y="361.0" width="34.0" height="34.0" rx="11" fill="rgba(255,184,77,0.16)"/><path d="M51.64 372.48 h14.72 a2 2 0 0 1 2 2 v6.44 a2 2 0 0 1 -2 2 h-8.280000000000001 l-3.68 3.68 v-3.68 h-2.7600000000000002 a2 2 0 0 1 -2 -2 v-6.44 a2 2 0 0 1 2 -2 Z" fill="none" stroke="#ffb84d" stroke-width="1.56" stroke-linecap="round" stroke-linejoin="round"/><text x="84.0" y="383.0" font-family="-apple-system,BlinkMacSystemFont,'SF Pro Display','SF Pro Text','Segoe UI',Roboto,system-ui,sans-serif" font-size="12" font-weight="600" fill="#f2effc" text-anchor="start">Conversations</text><text x="256.0" y="383.0" font-family="-apple-system,BlinkMacSystemFont,'SF Pro Display','SF Pro Text','Segoe UI',Roboto,system-ui,sans-serif" font-size="11" font-weight="500" fill="#9a93c6" text-anchor="end">1,024 items</text><text x="272.0" y="383.0" font-family="-apple-system,BlinkMacSystemFont,'SF Pro Display','SF Pro Text','Segoe UI',Roboto,system-ui,sans-serif" font-size="15" font-weight="400" fill="#6a6399" text-anchor="end">›</text><rect x="34.0" y="406.0" width="252.0" height="44.0" rx="13" fill="rgba(123,196,127,0.09)" stroke="#7bc47f" stroke-width="1"/><path d="M58 421.6 l5.6000000000000005 2.4000000000000004 v4.0 c0 4.0 -2.4000000000000004 5.6000000000000005 -5.6000000000000005 7.2 c-3.2 -1.6 -5.6000000000000005 -3.2 -5.6000000000000005 -7.2 v-4.0 Z" fill="none" stroke="#7bc47f" stroke-width="1.36" stroke-linecap="round" stroke-linejoin="round"/><path d="M55.6 428 l1.6 1.92 3.2 -3.6" fill="none" stroke="#7bc47f" stroke-width="1.36" stroke-linecap="round" stroke-linejoin="round"/><text x="78.0" y="425.0" font-family="-apple-system,BlinkMacSystemFont,'SF Pro Display','SF Pro Text','Segoe UI',Roboto,system-ui,sans-serif" font-size="11" font-weight="650" fill="#f2effc" text-anchor="start">Storage: LOCAL VAULT</text><text x="78.0" y="439.0" font-family="-apple-system,BlinkMacSystemFont,'SF Pro Display','SF Pro Text','Segoe UI',Roboto,system-ui,sans-serif" font-size="10" font-weight="500" fill="#7bc47f" text-anchor="start">AES-256-GCM Protected</text><rect x="34.0" y="460.0" width="252.0" height="40.0" rx="13" fill="url(#gBrand)"/><text x="160.0" y="484.5" font-family="-apple-system,BlinkMacSystemFont,'SF Pro Display','SF Pro Text','Segoe UI',Roboto,system-ui,sans-serif" font-size="13" font-weight="700" fill="#fff" text-anchor="middle">Export Everything</text><rect x="34.0" y="508.0" width="252.0" height="40.0" rx="13" fill="rgba(224,104,122,0.16)" stroke="#e0687a" stroke-width="1"/><text x="160.0" y="532.5" font-family="-apple-system,BlinkMacSystemFont,'SF Pro Display','SF Pro Text','Segoe UI',Roboto,system-ui,sans-serif" font-size="13" font-weight="700" fill="#e0687a" text-anchor="middle">Delete Everything</text><rect x="20.0" y="586.0" width="280.0" height="52.0" rx="0" fill="#0e0a26"/><rect x="20" y="586" width="280" height="1" fill="#302a60"/><rect x="50.68" y="602.56" width="8.64" height="6.4799999999999995" rx="2" fill="none" stroke="#7b5cff" stroke-width="1.22" stroke-linecap="round" stroke-linejoin="round"/><path d="M52.48 602.56 v-2.16 a2.52 2.52 0 0 1 5.04 0 v2.16" fill="none" stroke="#7b5cff" stroke-width="1.22" stroke-linecap="round" stroke-linejoin="round"/><circle cx="55.0" cy="605.8" r="0.864" fill="#7b5cff"/><text x="55.0" y="626.0" font-family="-apple-system,BlinkMacSystemFont,'SF Pro Display','SF Pro Text','Segoe UI',Roboto,system-ui,sans-serif" font-size="8.2" font-weight="600" fill="#7b5cff" text-anchor="middle">Vault</text><circle cx="123.56" cy="602.56" r="4.32" fill="none" stroke="#6a6399" stroke-width="1.22" stroke-linecap="round" stroke-linejoin="round"/><path d="M127.16 606.16 l2.88 2.88" fill="none" stroke="#6a6399" stroke-width="1.22" stroke-linecap="round" stroke-linejoin="round"/><text x="125.0" y="626.0" font-family="-apple-system,BlinkMacSystemFont,'SF Pro Display','SF Pro Text','Segoe UI',Roboto,system-ui,sans-serif" font-size="8.2" font-weight="600" fill="#6a6399" text-anchor="middle">Search</text><circle cx="195.0" cy="604" r="5.3999999999999995" fill="none" stroke="#6a6399" stroke-width="1.22" stroke-linecap="round" stroke-linejoin="round"/><path d="M195.0 601.12 v2.88 l2.16 1.44" fill="none" stroke="#6a6399" stroke-width="1.22" stroke-linecap="round" stroke-linejoin="round"/><text x="195.0" y="626.0" font-family="-apple-system,BlinkMacSystemFont,'SF Pro Display','SF Pro Text','Segoe UI',Roboto,system-ui,sans-serif" font-size="8.2" font-weight="600" fill="#6a6399" text-anchor="middle">Timeline</text><rect x="264.064" y="597.52" width="1.8719999999999999" height="2.88" rx="1" transform="rotate(0 265.0 604)" fill="#6a6399"/><rect x="264.064" y="597.52" width="1.8719999999999999" height="2.88" rx="1" transform="rotate(45 265.0 604)" fill="#6a6399"/><rect x="264.064" y="597.52" width="1.8719999999999999" height="2.88" rx="1" transform="rotate(90 265.0 604)" fill="#6a6399"/><rect x="264.064" y="597.52" width="1.8719999999999999" height="2.88" rx="1" transform="rotate(135 265.0 604)" fill="#6a6399"/><rect x="264.064" y="597.52" width="1.8719999999999999" height="2.88" rx="1" transform="rotate(180 265.0 604)" fill="#6a6399"/><rect x="264.064" y="597.52" width="1.8719999999999999" height="2.88" rx="1" transform="rotate(225 265.0 604)" fill="#6a6399"/><rect x="264.064" y="597.52" width="1.8719999999999999" height="2.88" rx="1" transform="rotate(270 265.0 604)" fill="#6a6399"/><rect x="264.064" y="597.52" width="1.8719999999999999" height="2.88" rx="1" transform="rotate(315 265.0 604)" fill="#6a6399"/><circle cx="265.0" cy="604" r="3.312" fill="none" stroke="#6a6399" stroke-width="1.22" stroke-linecap="round" stroke-linejoin="round"/><text x="265.0" y="626.0" font-family="-apple-system,BlinkMacSystemFont,'SF Pro Display','SF Pro Text','Segoe UI',Roboto,system-ui,sans-serif" font-size="8.2" font-weight="600" fill="#6a6399" text-anchor="middle">Settings</text></svg>