<svg xmlns="http://www.w3.org/2000/svg" width="320" height="660" viewBox="0 0 320 660" role="img" aria-label="Marketplace screen"><defs>
      <linearGradient id="gScr" x1="0" y1="0" x2="0.6" y2="1">
        <stop offset="0" stop-color="#181235"/><stop offset="1" stop-color="#0c0920"/></linearGradient>
      <linearGradient id="gFrame" x1="0" y1="0" x2="1" y2="1">
        <stop offset="0" stop-color="#2a2352"/><stop offset="1" stop-color="#0a0818"/></linearGradient>
      <linearGradient id="gCard" x1="0" y1="0" x2="0.4" y2="1">
        <stop offset="0" stop-color="#201a48"/><stop offset="1" stop-color="#181240"/></linearGradient>
      <linearGradient id="gBrand" x1="0" y1="0" x2="1" y2="0">
        <stop offset="0" stop-color="#7b5cff"/><stop offset="1" stop-color="#9d7bff"/></linearGradient>
      <linearGradient id="gAmber" x1="0" y1="0" x2="1" y2="0">
        <stop offset="0" stop-color="#ffb84d"/><stop offset="1" stop-color="#ffd27a"/></linearGradient>
      <linearGradient id="mV" x1="0" y1="0" x2="1" y2="0"><stop offset="0" stop-color="#7b5cff"/><stop offset="1" stop-color="#9d7bff"/></linearGradient>
      <linearGradient id="mA" x1="0" y1="0" x2="1" y2="0"><stop offset="0" stop-color="#ffb84d"/><stop offset="1" stop-color="#ff9f45"/></linearGradient>
      <linearGradient id="mG" x1="0" y1="0" x2="1" y2="0"><stop offset="0" stop-color="#5fb87a"/><stop offset="1" stop-color="#7bc47f"/></linearGradient>
      <linearGradient id="mC" x1="0" y1="0" x2="1" y2="0"><stop offset="0" stop-color="#6bb6d6"/><stop offset="1" stop-color="#9fd8e8"/></linearGradient>
      <radialGradient id="orb" cx="36%" cy="30%" r="78%">
        <stop offset="0" stop-color="#d9ccff"/><stop offset="38%" stop-color="#7b5cff"/>
        <stop offset="78%" stop-color="#3f3bc0"/><stop offset="100%" stop-color="#140f34"/></radialGradient>
      <radialGradient id="glow" cx="50%" cy="50%" r="50%">
        <stop offset="0" stop-color="#ffb84d" stop-opacity="0.5"/><stop offset="1" stop-color="#ffb84d" stop-opacity="0"/></radialGradient>
    </defs><rect x="10.0" y="12.0" width="300.0" height="636.0" rx="40" fill="url(#gFrame)"/><rect x="20.0" y="22.0" width="280.0" height="616.0" rx="31" fill="url(#gScr)"/><rect x="130.0" y="27.0" width="60.0" height="15.0" rx="7.5" fill="#05070d"/><text x="34.0" y="56.0" font-family="-apple-system,BlinkMacSystemFont,'SF Pro Display','SF Pro Text','Segoe UI',Roboto,system-ui,sans-serif" font-size="11" font-weight="600" fill="#c7c9d9" text-anchor="start">9:41</text><rect x="264.0" y="50.0" width="20.0" height="11.0" rx="3" fill="none" stroke="#c7c9d9" stroke-width="1.1"/><rect x="266.0" y="52.0" width="14.0" height="7.0" rx="2" fill="#c7c9d9"/><rect x="284.6" y="53.5" width="2.0" height="5.0" rx="1" fill="#c7c9d9"/><path d="M251 55 a6 6 0 0 1 11 0" fill="none" stroke="#c7c9d9" stroke-width="1.3"/><circle cx="256.5" cy="59" r="1.2" fill="#c7c9d9"/><rect x="234.0" y="58.1" width="2.6" height="1.9" rx="0.8" fill="#c7c9d9"/><rect x="238.0" y="56.2" width="2.6" height="3.8" rx="0.8" fill="#c7c9d9"/><rect x="242.0" y="54.3" width="2.6" height="5.7" rx="0.8" fill="#c7c9d9"/><rect x="246.0" y="52.4" width="2.6" height="7.6" rx="0.8" fill="#c7c9d9"/><text x="34.0" y="88.0" font-family="-apple-system,BlinkMacSystemFont,'SF Pro Display','SF Pro Text','Segoe UI',Roboto,system-ui,sans-serif" font-size="20" font-weight="700" fill="#f2effc" text-anchor="start" letter-spacing="-0.4">Marketplace</text><text x="34.0" y="106.0" font-family="-apple-system,BlinkMacSystemFont,'SF Pro Display','SF Pro Text','Segoe UI',Roboto,system-ui,sans-serif" font-size="11.5" font-weight="400" fill="#9a93c6" text-anchor="start">Discover &amp; connect</text><rect x="34.0" y="122.0" width="252.0" height="34.0" rx="11" fill="#0d0a24" stroke="#302a60" stroke-width="1"/><circle cx="50.5" cy="137.5" r="4.5" fill="none" stroke="#6a6399" stroke-width="1.27" stroke-linecap="round" stroke-linejoin="round"/><path d="M54.25 141.25 l3.0 3.0" fill="none" stroke="#6a6399" stroke-width="1.27" stroke-linecap="round" stroke-linejoin="round"/><text x="68.0" y="143.0" font-family="-apple-system,BlinkMacSystemFont,'SF Pro Display','SF Pro Text','Segoe UI',Roboto,system-ui,sans-serif" font-size="11" font-weight="400" fill="#6a6399" text-anchor="start">Search profiles…</text><rect x="34.0" y="166.0" width="33.2" height="24.0" rx="8" fill="url(#gBrand)"/><text x="50.6" y="182.0" font-family="-apple-system,BlinkMacSystemFont,'SF Pro Display','SF Pro Text','Segoe UI',Roboto,system-ui,sans-serif" font-size="10" font-weight="600" fill="#fff" text-anchor="middle">All</text><rect x="73.2" y="166.0" width="52.4" height="24.0" rx="8" fill="rgba(255,255,255,0.05)" stroke="#302a60" stroke-width="1"/><text x="99.4" y="182.0" font-family="-apple-system,BlinkMacSystemFont,'SF Pro Display','SF Pro Text','Segoe UI',Roboto,system-ui,sans-serif" font-size="10" font-weight="600" fill="#9a93c6" text-anchor="middle">Health</text><rect x="131.6" y="166.0" width="58.8" height="24.0" rx="8" fill="rgba(255,255,255,0.05)" stroke="#302a60" stroke-width="1"/><text x="161.0" y="182.0" font-family="-apple-system,BlinkMacSystemFont,'SF Pro Display','SF Pro Text','Segoe UI',Roboto,system-ui,sans-serif" font-size="10" font-weight="600" fill="#9a93c6" text-anchor="middle">Finance</text><rect x="196.4" y="166.0" width="52.4" height="24.0" rx="8" fill="rgba(255,255,255,0.05)" stroke="#302a60" stroke-width="1"/><text x="222.6" y="182.0" font-family="-apple-system,BlinkMacSystemFont,'SF Pro Display','SF Pro Text','Segoe UI',Roboto,system-ui,sans-serif" font-size="10" font-weight="600" fill="#9a93c6" text-anchor="middle">Career</text><rect x="254.8" y="166.0" width="33.2" height="24.0" rx="8" fill="rgba(255,255,255,0.05)" stroke="#302a60" stroke-width="1"/><text x="271.4" y="182.0" font-family="-apple-system,BlinkMacSystemFont,'SF Pro Display','SF Pro Text','Segoe UI',Roboto,system-ui,sans-serif" font-size="10" font-weight="600" fill="#9a93c6" text-anchor="middle">Edu</text><rect x="34.0" y="202.0" width="252.0" height="56.0" rx="14" fill="url(#gCard)" stroke="#302a60" stroke-width="1"/><circle cx="62" cy="230" r="18" fill="rgba(123,196,127,0.18)" stroke="#7bc47f" stroke-width="1.2"/><rect x="55.35" y="230.95" width="3.04" height="4.75" rx="1" fill="#7bc47f"/><rect x="60.1" y="227.14999999999998" width="3.04" height="8.549999999999999" rx="1" fill="#7bc47f"/><rect x="64.85" y="231.89999999999998" width="3.04" height="3.8" rx="1" fill="#7bc47f"/><rect x="69.6" y="225.25" width="3.04" height="10.45" rx="1" fill="#7bc47f"/><text x="90.0" y="224.0" font-family="-apple-system,BlinkMacSystemFont,'SF Pro Display','SF Pro Text','Segoe UI',Roboto,system-ui,sans-serif" font-size="12.5" font-weight="650" fill="#f2effc" text-anchor="start">Financial Expert AI</text><text x="90.0" y="239.0" font-family="-apple-system,BlinkMacSystemFont,'SF Pro Display','SF Pro Text','Segoe UI',Roboto,system-ui,sans-serif" font-size="10" font-weight="400" fill="#9a93c6" text-anchor="start">Wealth advisor &amp; planning</text><path d="M90.0 248.52 l0.806 1.6740000000000002 1.798 0.186 -1.302 1.24 0.372 1.798 -1.612 -0.9299999999999999 -1.612 0.9299999999999999 0.372 -1.798 -1.302 -1.24 1.798 -0.186 Z" fill="#ffce54" stroke="#ffce54" stroke-width="0.558" stroke-linejoin="round"/><path d="M97.44 248.52 l0.806 1.6740000000000002 1.798 0.186 -1.302 1.24 0.372 1.798 -1.612 -0.9299999999999999 -1.612 0.9299999999999999 0.372 -1.798 -1.302 -1.24 1.798 -0.186 Z" fill="#ffce54" stroke="#ffce54" stroke-width="0.558" stroke-linejoin="round"/><path d="M104.88 248.52 l0.806 1.6740000000000002 1.798 0.186 -1.302 1.24 0.372 1.798 -1.612 -0.9299999999999999 -1.612 0.9299999999999999 0.372 -1.798 -1.302 -1.24 1.798 -0.186 Z" fill="#ffce54" stroke="#ffce54" stroke-width="0.558" stroke-linejoin="round"/><path d="M112.32 248.52 l0.806 1.6740000000000002 1.798 0.186 -1.302 1.24 0.372 1.798 -1.612 -0.9299999999999999 -1.612 0.9299999999999999 0.372 -1.798 -1.302 -1.24 1.798 -0.186 Z" fill="#ffce54" stroke="#ffce54" stroke-width="0.558" stroke-linejoin="round"/><path d="M119.75999999999999 248.52 l0.806 1.6740000000000002 1.798 0.186 -1.302 1.24 0.372 1.798 -1.612 -0.9299999999999999 -1.612 0.9299999999999999 0.372 -1.798 -1.302 -1.24 1.798 -0.186 Z" fill="none" stroke="#ffce54" stroke-width="0.558" stroke-linejoin="round"/><text x="130.0" y="253.0" font-family="-apple-system,BlinkMacSystemFont,'SF Pro Display','SF Pro Text','Segoe UI',Roboto,system-ui,sans-serif" font-size="9.5" font-weight="700" fill="#ffce54" text-anchor="start">4.9</text><text x="272.0" y="253.0" font-family="-apple-system,BlinkMacSystemFont,'SF Pro Display','SF Pro Text','Segoe UI',Roboto,system-ui,sans-serif" font-size="9.5" font-weight="600" fill="#6a6399" text-anchor="end">▲ 125</text><rect x="34.0" y="266.0" width="252.0" height="56.0" rx="14" fill="url(#gCard)" stroke="#302a60" stroke-width="1"/><circle cx="62" cy="294" r="18" fill="rgba(231,139,208,0.18)" stroke="#e78bd0" stroke-width="1.2"/><path d="M62 299.7 C53.45 291.15,55.35 285.45,62 290.2 C68.65 285.45,70.55 291.15,62 299.7 Z" fill="#e78bd0"/><text x="90.0" y="288.0" font-family="-apple-system,BlinkMacSystemFont,'SF Pro Display','SF Pro Text','Segoe UI',Roboto,system-ui,sans-serif" font-size="12.5" font-weight="650" fill="#f2effc" text-anchor="start">Wellness Coach</text><text x="90.0" y="303.0" font-family="-apple-system,BlinkMacSystemFont,'SF Pro Display','SF Pro Text','Segoe UI',Roboto,system-ui,sans-serif" font-size="10" font-weight="400" fill="#9a93c6" text-anchor="start">Mental &amp; physical health</text><path d="M90.0 312.52 l0.806 1.6740000000000002 1.798 0.186 -1.302 1.24 0.372 1.798 -1.612 -0.9299999999999999 -1.612 0.9299999999999999 0.372 -1.798 -1.302 -1.24 1.798 -0.186 Z" fill="#ffce54" stroke="#ffce54" stroke-width="0.558" stroke-linejoin="round"/><path d="M97.44 312.52 l0.806 1.6740000000000002 1.798 0.186 -1.302 1.24 0.372 1.798 -1.612 -0.9299999999999999 -1.612 0.9299999999999999 0.372 -1.798 -1.302 -1.24 1.798 -0.186 Z" fill="#ffce54" stroke="#ffce54" stroke-width="0.558" stroke-linejoin="round"/><path d="M104.88 312.52 l0.806 1.6740000000000002 1.798 0.186 -1.302 1.24 0.372 1.798 -1.612 -0.9299999999999999 -1.612 0.9299999999999999 0.372 -1.798 -1.302 -1.24 1.798 -0.186 Z" fill="#ffce54" stroke="#ffce54" stroke-width="0.558" stroke-linejoin="round"/><path d="M112.32 312.52 l0.806 1.6740000000000002 1.798 0.186 -1.302 1.24 0.372 1.798 -1.612 -0.9299999999999999 -1.612 0.9299999999999999 0.372 -1.798 -1.302 -1.24 1.798 -0.186 Z" fill="#ffce54" stroke="#ffce54" stroke-width="0.558" stroke-linejoin="round"/><path d="M119.75999999999999 312.52 l0.806 1.6740000000000002 1.798 0.186 -1.302 1.24 0.372 1.798 -1.612 -0.9299999999999999 -1.612 0.9299999999999999 0.372 -1.798 -1.302 -1.24 1.798 -0.186 Z" fill="none" stroke="#ffce54" stroke-width="0.558" stroke-linejoin="round"/><text x="130.0" y="317.0" font-family="-apple-system,BlinkMacSystemFont,'SF Pro Display','SF Pro Text','Segoe UI',Roboto,system-ui,sans-serif" font-size="9.5" font-weight="700" fill="#ffce54" text-anchor="start">4.8</text><text x="272.0" y="317.0" font-family="-apple-system,BlinkMacSystemFont,'SF Pro Display','SF Pro Text','Segoe UI',Roboto,system-ui,sans-serif" font-size="9.5" font-weight="600" fill="#6a6399" text-anchor="end">▲ 98</text><rect x="34.0" y="330.0" width="252.0" height="56.0" rx="14" fill="url(#gCard)" stroke="#302a60" stroke-width="1"/><circle cx="62" cy="358" r="18" fill="rgba(255,184,77,0.18)" stroke="#ffb84d" stroke-width="1.2"/><path d="M62 350.4 l2.28 4.75 5.13 0.57 -3.8 3.61 1.045 5.034999999999999 -4.655 -2.565 -4.655 2.565 1.045 -5.034999999999999 -3.8 -3.61 5.13 -0.57 Z" fill="none" stroke="#ffb84d" stroke-width="1.61" stroke-linecap="round" stroke-linejoin="round"/><text x="90.0" y="352.0" font-family="-apple-system,BlinkMacSystemFont,'SF Pro Display','SF Pro Text','Segoe UI',Roboto,system-ui,sans-serif" font-size="12.5" font-weight="650" fill="#f2effc" text-anchor="start">Creator Assistant</text><text x="90.0" y="367.0" font-family="-apple-system,BlinkMacSystemFont,'SF Pro Display','SF Pro Text','Segoe UI',Roboto,system-ui,sans-serif" font-size="10" font-weight="400" fill="#9a93c6" text-anchor="start">Brand &amp; content expert</text><path d="M90.0 376.52 l0.806 1.6740000000000002 1.798 0.186 -1.302 1.24 0.372 1.798 -1.612 -0.9299999999999999 -1.612 0.9299999999999999 0.372 -1.798 -1.302 -1.24 1.798 -0.186 Z" fill="#ffce54" stroke="#ffce54" stroke-width="0.558" stroke-linejoin="round"/><path d="M97.44 376.52 l0.806 1.6740000000000002 1.798 0.186 -1.302 1.24 0.372 1.798 -1.612 -0.9299999999999999 -1.612 0.9299999999999999 0.372 -1.798 -1.302 -1.24 1.798 -0.186 Z" fill="#ffce54" stroke="#ffce54" stroke-width="0.558" stroke-linejoin="round"/><path d="M104.88 376.52 l0.806 1.6740000000000002 1.798 0.186 -1.302 1.24 0.372 1.798 -1.612 -0.9299999999999999 -1.612 0.9299999999999999 0.372 -1.798 -1.302 -1.24 1.798 -0.186 Z" fill="#ffce54" stroke="#ffce54" stroke-width="0.558" stroke-linejoin="round"/><path d="M112.32 376.52 l0.806 1.6740000000000002 1.798 0.186 -1.302 1.24 0.372 1.798 -1.612 -0.9299999999999999 -1.612 0.9299999999999999 0.372 -1.798 -1.302 -1.24 1.798 -0.186 Z" fill="#ffce54" stroke="#ffce54" stroke-width="0.558" stroke-linejoin="round"/><path d="M119.75999999999999 376.52 l0.806 1.6740000000000002 1.798 0.186 -1.302 1.24 0.372 1.798 -1.612 -0.9299999999999999 -1.612 0.9299999999999999 0.372 -1.798 -1.302 -1.24 1.798 -0.186 Z" fill="none" stroke="#ffce54" stroke-width="0.558" stroke-linejoin="round"/><text x="130.0" y="381.0" font-family="-apple-system,BlinkMacSystemFont,'SF Pro Display','SF Pro Text','Segoe UI',Roboto,system-ui,sans-serif" font-size="9.5" font-weight="700" fill="#ffce54" text-anchor="start">4.9</text><text x="272.0" y="381.0" font-family="-apple-system,BlinkMacSystemFont,'SF Pro Display','SF Pro Text','Segoe UI',Roboto,system-ui,sans-serif" font-size="9.5" font-weight="600" fill="#6a6399" text-anchor="end">▲ 210</text><rect x="34.0" y="394.0" width="252.0" height="56.0" rx="14" fill="url(#gCard)" stroke="#302a60" stroke-width="1"/><circle cx="62" cy="422" r="18" fill="rgba(159,216,232,0.18)" stroke="#9fd8e8" stroke-width="1.2"/><rect x="55.35" y="415.35" width="13.299999999999999" height="13.299999999999999" rx="2" fill="none" stroke="#9fd8e8" stroke-width="1.61" stroke-linecap="round" stroke-linejoin="round"/><path d="M62 415.35 v13.299999999999999" fill="none" stroke="#9fd8e8" stroke-width="1.61" stroke-linecap="round" stroke-linejoin="round"/><text x="90.0" y="416.0" font-family="-apple-system,BlinkMacSystemFont,'SF Pro Display','SF Pro Text','Segoe UI',Roboto,system-ui,sans-serif" font-size="12.5" font-weight="650" fill="#f2effc" text-anchor="start">Historical Expert</text><text x="90.0" y="431.0" font-family="-apple-system,BlinkMacSystemFont,'SF Pro Display','SF Pro Text','Segoe UI',Roboto,system-ui,sans-serif" font-size="10" font-weight="400" fill="#9a93c6" text-anchor="start">History &amp; civilization</text><path d="M90.0 440.52 l0.806 1.6740000000000002 1.798 0.186 -1.302 1.24 0.372 1.798 -1.612 -0.9299999999999999 -1.612 0.9299999999999999 0.372 -1.798 -1.302 -1.24 1.798 -0.186 Z" fill="#ffce54" stroke="#ffce54" stroke-width="0.558" stroke-linejoin="round"/><path d="M97.44 440.52 l0.806 1.6740000000000002 1.798 0.186 -1.302 1.24 0.372 1.798 -1.612 -0.9299999999999999 -1.612 0.9299999999999999 0.372 -1.798 -1.302 -1.24 1.798 -0.186 Z" fill="#ffce54" stroke="#ffce54" stroke-width="0.558" stroke-linejoin="round"/><path d="M104.88 440.52 l0.806 1.6740000000000002 1.798 0.186 -1.302 1.24 0.372 1.798 -1.612 -0.9299999999999999 -1.612 0.9299999999999999 0.372 -1.798 -1.302 -1.24 1.798 -0.186 Z" fill="#ffce54" stroke="#ffce54" stroke-width="0.558" stroke-linejoin="round"/><path d="M112.32 440.52 l0.806 1.6740000000000002 1.798 0.186 -1.302 1.24 0.372 1.798 -1.612 -0.9299999999999999 -1.612 0.9299999999999999 0.372 -1.798 -1.302 -1.24 1.798 -0.186 Z" fill="#ffce54" stroke="#ffce54" stroke-width="0.558" stroke-linejoin="round"/><path d="M119.75999999999999 440.52 l0.806 1.6740000000000002 1.798 0.186 -1.302 1.24 0.372 1.798 -1.612 -0.9299999999999999 -1.612 0.9299999999999999 0.372 -1.798 -1.302 -1.24 1.798 -0.186 Z" fill="none" stroke="#ffce54" stroke-width="0.558" stroke-linejoin="round"/><text x="130.0" y="445.0" font-family="-apple-system,BlinkMacSystemFont,'SF Pro Display','SF Pro Text','Segoe UI',Roboto,system-ui,sans-serif" font-size="9.5" font-weight="700" fill="#ffce54" text-anchor="start">4.7</text><text x="272.0" y="445.0" font-family="-apple-system,BlinkMacSystemFont,'SF Pro Display','SF Pro Text','Segoe UI',Roboto,system-ui,sans-serif" font-size="9.5" font-weight="600" fill="#6a6399" text-anchor="end">▲ 76</text><rect x="20.0" y="586.0" width="280.0" height="52.0" rx="0" fill="#0e0a26"/><rect x="20" y="586" width="280" height="1" fill="#302a60"/><circle cx="55.0" cy="604" r="5.3999999999999995" fill="none" stroke="#7b5cff" stroke-width="1.22" stroke-linecap="round" stroke-linejoin="round"/><path d="M57.52 601.48 l-1.584 3.5999999999999996 -3.5999999999999996 1.584 1.584 -3.5999999999999996 Z" fill="#7b5cff"/><text x="55.0" y="626.0" font-family="-apple-system,BlinkMacSystemFont,'SF Pro Display','SF Pro Text','Segoe UI',Roboto,system-ui,sans-serif" font-size="8.2" font-weight="600" fill="#7b5cff" text-anchor="middle">Discover</text><rect x="119.96" y="598.96" width="4.32" height="4.32" rx="1.4" fill="none" stroke="#6a6399" stroke-width="1.22" stroke-linecap="round" stroke-linejoin="round"/><rect x="125.72" y="598.96" width="4.32" height="4.32" rx="1.4" fill="none" stroke="#6a6399" stroke-width="1.22" stroke-linecap="round" stroke-linejoin="round"/><rect x="119.96" y="604.72" width="4.32" height="4.32" rx="1.4" fill="none" stroke="#6a6399" stroke-width="1.22" stroke-linecap="round" stroke-linejoin="round"/><rect x="125.72" y="604.72" width="4.32" height="4.32" rx="1.4" fill="none" stroke="#6a6399" stroke-width="1.22" stroke-linecap="round" stroke-linejoin="round"/><text x="125.0" y="626.0" font-family="-apple-system,BlinkMacSystemFont,'SF Pro Display','SF Pro Text','Segoe UI',Roboto,system-ui,sans-serif" font-size="8.2" font-weight="600" fill="#6a6399" text-anchor="middle">Categories</text><path d="M195.0 608.32 C188.52 601.84,189.96 597.52,195.0 601.12 C200.04 597.52,201.48 601.84,195.0 608.32 Z" fill="#6a6399"/><text x="195.0" y="626.0" font-family="-apple-system,BlinkMacSystemFont,'SF Pro Display','SF Pro Text','Segoe UI',Roboto,system-ui,sans-serif" font-size="8.2" font-weight="600" fill="#6a6399" text-anchor="middle">My List</text><path d="M260.68 600.4 h8.64 M260.68 604 h8.64 M260.68 607.6 h8.64" fill="none" stroke="#6a6399" stroke-width="1.22" stroke-linecap="round" stroke-linejoin="round"/><text x="265.0" y="626.0" font-family="-apple-system,BlinkMacSystemFont,'SF Pro Display','SF Pro Text','Segoe UI',Roboto,system-ui,sans-serif" font-size="8.2" font-weight="600" fill="#6a6399" text-anchor="middle">Listings</text><rect x="118.0" y="631.0" width="84.0" height="4.0" rx="2" fill="rgba(255,255,255,0.6)"/></svg>