<svg xmlns="http://www.w3.org/2000/svg" width="320" height="660" viewBox="0 0 320 660" role="img" aria-label="Embodiments screen"><defs>
      <linearGradient id="gScr" x1="0" y1="0" x2="0.6" y2="1">
        <stop offset="0" stop-color="#181235"/><stop offset="1" stop-color="#0c0920"/></linearGradient>
      <linearGradient id="gFrame" x1="0" y1="0" x2="1" y2="1">
        <stop offset="0" stop-color="#2a2352"/><stop offset="1" stop-color="#0a0818"/></linearGradient>
      <linearGradient id="gCard" x1="0" y1="0" x2="0.4" y2="1">
        <stop offset="0" stop-color="#201a48"/><stop offset="1" stop-color="#181240"/></linearGradient>
      <linearGradient id="gBrand" x1="0" y1="0" x2="1" y2="0">
        <stop offset="0" stop-color="#7b5cff"/><stop offset="1" stop-color="#9d7bff"/></linearGradient>
      <linearGradient id="gAmber" x1="0" y1="0" x2="1" y2="0">
        <stop offset="0" stop-color="#ffb84d"/><stop offset="1" stop-color="#ffd27a"/></linearGradient>
      <linearGradient id="mV" x1="0" y1="0" x2="1" y2="0"><stop offset="0" stop-color="#7b5cff"/><stop offset="1" stop-color="#9d7bff"/></linearGradient>
      <linearGradient id="mA" x1="0" y1="0" x2="1" y2="0"><stop offset="0" stop-color="#ffb84d"/><stop offset="1" stop-color="#ff9f45"/></linearGradient>
      <linearGradient id="mG" x1="0" y1="0" x2="1" y2="0"><stop offset="0" stop-color="#5fb87a"/><stop offset="1" stop-color="#7bc47f"/></linearGradient>
      <linearGradient id="mC" x1="0" y1="0" x2="1" y2="0"><stop offset="0" stop-color="#6bb6d6"/><stop offset="1" stop-color="#9fd8e8"/></linearGradient>
      <radialGradient id="orb" cx="36%" cy="30%" r="78%">
        <stop offset="0" stop-color="#d9ccff"/><stop offset="38%" stop-color="#7b5cff"/>
        <stop offset="78%" stop-color="#3f3bc0"/><stop offset="100%" stop-color="#140f34"/></radialGradient>
      <radialGradient id="glow" cx="50%" cy="50%" r="50%">
        <stop offset="0" stop-color="#9fd8e8" stop-opacity="0.5"/><stop offset="1" stop-color="#9fd8e8" stop-opacity="0"/></radialGradient>
    </defs><rect x="10.0" y="12.0" width="300.0" height="636.0" rx="40" fill="url(#gFrame)"/><rect x="20.0" y="22.0" width="280.0" height="616.0" rx="31" fill="url(#gScr)"/><rect x="126.0" y="26.0" width="68.0" height="17.0" rx="9" fill="#04030a"/><text x="34.0" y="56.0" font-family="-apple-system,BlinkMacSystemFont,'SF Pro Display','SF Pro Text','Segoe UI',Roboto,system-ui,sans-serif" font-size="11" font-weight="600" fill="#c7c9d9" text-anchor="start">9:41</text><text x="286.0" y="56.0" font-family="-apple-system,BlinkMacSystemFont,'SF Pro Display','SF Pro Text','Segoe UI',Roboto,system-ui,sans-serif" font-size="10" font-weight="700" fill="#9fd8e8" text-anchor="end">● 13</text><text x="34.0" y="88.0" font-family="-apple-system,BlinkMacSystemFont,'SF Pro Display','SF Pro Text','Segoe UI',Roboto,system-ui,sans-serif" font-size="20" font-weight="700" fill="#f2effc" text-anchor="start" letter-spacing="-0.4">Embodiments</text><text x="34.0" y="106.0" font-family="-apple-system,BlinkMacSystemFont,'SF Pro Display','SF Pro Text','Segoe UI',Roboto,system-ui,sans-serif" font-size="11.5" font-weight="400" fill="#9a93c6" text-anchor="start">Your AI everywhere</text><rect x="34.0" y="122.0" width="252.0" height="46.0" rx="13" fill="url(#gCard)" stroke="#302a60" stroke-width="1"/><rect x="44.0" y="128.0" width="34.0" height="34.0" rx="11" fill="rgba(123,92,255,0.16)"/><rect x="56.4" y="137.64" width="9.200000000000001" height="14.72" rx="2.4" fill="none" stroke="#7b5cff" stroke-width="1.56" stroke-linecap="round" stroke-linejoin="round"/><path d="M59.528 149.6 h2.9440000000000004" fill="none" stroke="#7b5cff" stroke-width="1.56" stroke-linecap="round" stroke-linejoin="round"/><text x="88.0" y="150.0" font-family="-apple-system,BlinkMacSystemFont,'SF Pro Display','SF Pro Text','Segoe UI',Roboto,system-ui,sans-serif" font-size="12.5" font-weight="600" fill="#f2effc" text-anchor="start">iPhone</text><rect x="222.0" y="136.0" width="50.0" height="16.0" rx="8" fill="rgba(123,196,127,0.14)"/><circle cx="231.0" cy="144" r="3" fill="#7bc47f"/><text x="238.0" y="148.0" font-family="-apple-system,BlinkMacSystemFont,'SF Pro Display','SF Pro Text','Segoe UI',Roboto,system-ui,sans-serif" font-size="9" font-weight="700" fill="#7bc47f" text-anchor="start" letter-spacing="0.5">ONLINE</text><rect x="34.0" y="176.0" width="252.0" height="46.0" rx="13" fill="url(#gCard)" stroke="#302a60" stroke-width="1"/><rect x="44.0" y="182.0" width="34.0" height="34.0" rx="11" fill="rgba(159,216,232,0.16)"/><rect x="56.4" y="194.4" width="9.200000000000001" height="9.200000000000001" rx="2.5" fill="none" stroke="#9fd8e8" stroke-width="1.56" stroke-linecap="round" stroke-linejoin="round"/><path d="M58.7 194.4 v-2.7600000000000002 h4.6000000000000005 v2.7600000000000002 M58.7 203.6 v2.7600000000000002 h4.6000000000000005 v-2.7600000000000002" fill="none" stroke="#9fd8e8" stroke-width="1.56" stroke-linecap="round" stroke-linejoin="round"/><text x="88.0" y="204.0" font-family="-apple-system,BlinkMacSystemFont,'SF Pro Display','SF Pro Text','Segoe UI',Roboto,system-ui,sans-serif" font-size="12.5" font-weight="600" fill="#f2effc" text-anchor="start">Apple Watch</text><rect x="222.0" y="190.0" width="50.0" height="16.0" rx="8" fill="rgba(123,196,127,0.14)"/><circle cx="231.0" cy="198" r="3" fill="#7bc47f"/><text x="238.0" y="202.0" font-family="-apple-system,BlinkMacSystemFont,'SF Pro Display','SF Pro Text','Segoe UI',Roboto,system-ui,sans-serif" font-size="9" font-weight="700" fill="#7bc47f" text-anchor="start" letter-spacing="0.5">ONLINE</text><rect x="34.0" y="230.0" width="252.0" height="46.0" rx="13" fill="url(#gCard)" stroke="#302a60" stroke-width="1"/><rect x="44.0" y="236.0" width="34.0" height="34.0" rx="11" fill="rgba(231,139,208,0.16)"/><path d="M53.64 253.92 v-0.92 a7.36 7.36 0 0 1 14.72 0 v0.92" fill="none" stroke="#e78bd0" stroke-width="1.56" stroke-linecap="round" stroke-linejoin="round"/><rect x="52.72" y="253.92" width="3.68" height="6.44" rx="1.6" fill="none" stroke="#e78bd0" stroke-width="1.56" stroke-linecap="round" stroke-linejoin="round"/><rect x="65.6" y="253.92" width="3.68" height="6.44" rx="1.6" fill="none" stroke="#e78bd0" stroke-width="1.56" stroke-linecap="round" stroke-linejoin="round"/><text x="88.0" y="258.0" font-family="-apple-system,BlinkMacSystemFont,'SF Pro Display','SF Pro Text','Segoe UI',Roboto,system-ui,sans-serif" font-size="12.5" font-weight="600" fill="#f2effc" text-anchor="start">AR Headset</text><rect x="216.0" y="244.0" width="56.0" height="16.0" rx="8" fill="rgba(106,99,153,0.14)"/><circle cx="225.0" cy="252" r="3" fill="#6a6399"/><text x="232.0" y="256.0" font-family="-apple-system,BlinkMacSystemFont,'SF Pro Display','SF Pro Text','Segoe UI',Roboto,system-ui,sans-serif" font-size="9" font-weight="700" fill="#6a6399" text-anchor="start" letter-spacing="0.5">OFFLINE</text><rect x="34.0" y="284.0" width="252.0" height="46.0" rx="13" fill="url(#gCard)" stroke="#302a60" stroke-width="1"/><rect x="44.0" y="290.0" width="34.0" height="34.0" rx="11" fill="rgba(255,184,77,0.16)"/><rect x="54.56" y="303.32" width="12.88" height="10.120000000000001" rx="3" fill="none" stroke="#ffb84d" stroke-width="1.56" stroke-linecap="round" stroke-linejoin="round"/><path d="M61 303.32 v-2.7600000000000002" fill="none" stroke="#ffb84d" stroke-width="1.56" stroke-linecap="round" stroke-linejoin="round"/><circle cx="61" cy="299.64" r="1.288" fill="#ffb84d"/><circle cx="58.24" cy="307.92" r="1.3800000000000001" fill="#ffb84d"/><circle cx="63.76" cy="307.92" r="1.3800000000000001" fill="#ffb84d"/><text x="88.0" y="312.0" font-family="-apple-system,BlinkMacSystemFont,'SF Pro Display','SF Pro Text','Segoe UI',Roboto,system-ui,sans-serif" font-size="12.5" font-weight="600" fill="#f2effc" text-anchor="start">Robot</text><rect x="204.0" y="298.0" width="68.0" height="16.0" rx="8" fill="rgba(255,184,77,0.14)"/><circle cx="213.0" cy="306" r="3" fill="#ffb84d"/><text x="220.0" y="310.0" font-family="-apple-system,BlinkMacSystemFont,'SF Pro Display','SF Pro Text','Segoe UI',Roboto,system-ui,sans-serif" font-size="9" font-weight="700" fill="#ffb84d" text-anchor="start" letter-spacing="0.5">AVAILABLE</text><rect x="34.0" y="338.0" width="252.0" height="46.0" rx="13" fill="url(#gCard)" stroke="#302a60" stroke-width="1"/><rect x="44.0" y="344.0" width="34.0" height="34.0" rx="11" fill="rgba(123,196,127,0.16)"/><rect x="55.48" y="353.64" width="11.040000000000001" height="14.72" rx="3" fill="none" stroke="#7bc47f" stroke-width="1.56" stroke-linecap="round" stroke-linejoin="round"/><circle cx="61" cy="362.84" r="3.128" fill="none" stroke="#7bc47f" stroke-width="1.56" stroke-linecap="round" stroke-linejoin="round"/><circle cx="61" cy="356.4" r="0.92" fill="#7bc47f"/><text x="88.0" y="366.0" font-family="-apple-system,BlinkMacSystemFont,'SF Pro Display','SF Pro Text','Segoe UI',Roboto,system-ui,sans-serif" font-size="12.5" font-weight="600" fill="#f2effc" text-anchor="start">Smart Speaker</text><rect x="222.0" y="352.0" width="50.0" height="16.0" rx="8" fill="rgba(123,196,127,0.14)"/><circle cx="231.0" cy="360" r="3" fill="#7bc47f"/><text x="238.0" y="364.0" font-family="-apple-system,BlinkMacSystemFont,'SF Pro Display','SF Pro Text','Segoe UI',Roboto,system-ui,sans-serif" font-size="9" font-weight="700" fill="#7bc47f" text-anchor="start" letter-spacing="0.5">ONLINE</text><rect x="34.0" y="392.0" width="252.0" height="52.0" rx="14" fill="rgba(123,92,255,0.08)" stroke="#7b5cff" stroke-width="1"/><path d="M53.4 420.2 c0 -7.700000000000001 3.3000000000000003 -9.9 6.6000000000000005 -9.9 c3.3000000000000003 0 6.6000000000000005 2.2 6.6000000000000005 7.700000000000001" fill="none" stroke="#7b5cff" stroke-width="1.87" stroke-linecap="round" stroke-linejoin="round"/><path d="M56.7 422.4 c0 -6.6000000000000005 2.2 -7.700000000000001 3.3000000000000003 -7.700000000000001 c2.2 0 3.3000000000000003 2.2 3.3000000000000003 5.5" fill="none" stroke="#7b5cff" stroke-width="1.87" stroke-linecap="round" stroke-linejoin="round"/><path d="M60 424.6 v-6.6000000000000005" fill="none" stroke="#7b5cff" stroke-width="1.87" stroke-linecap="round" stroke-linejoin="round"/><text x="86.0" y="416.0" font-family="-apple-system,BlinkMacSystemFont,'SF Pro Display','SF Pro Text','Segoe UI',Roboto,system-ui,sans-serif" font-size="11.5" font-weight="650" fill="#f2effc" text-anchor="start">Identity Signature</text><text x="86.0" y="431.0" font-family="-apple-system,BlinkMacSystemFont,'SF Pro Display','SF Pro Text','Segoe UI',Roboto,system-ui,sans-serif" font-size="9.5" font-weight="400" fill="#9a93c6" text-anchor="start">Consistent across all forms</text><text x="272.0" y="424.0" font-family="-apple-system,BlinkMacSystemFont,'SF Pro Display','SF Pro Text','Segoe UI',Roboto,system-ui,sans-serif" font-size="17" font-weight="800" fill="#7bc47f" text-anchor="end">98.9%</text><rect x="20.0" y="586.0" width="280.0" height="52.0" rx="0" fill="#0e0a26"/><rect x="20" y="586" width="280" height="1" fill="#302a60"/><circle cx="55.0" cy="604" r="5.3999999999999995" fill="none" stroke="#6a6399" stroke-width="1.22" stroke-linecap="round" stroke-linejoin="round"/><circle cx="55.0" cy="604" r="2.52" fill="none" stroke="#6a6399" stroke-width="1.22" stroke-linecap="round" stroke-linejoin="round"/><circle cx="55.0" cy="604" r="0.648" fill="#6a6399"/><text x="55.0" y="626.0" font-family="-apple-system,BlinkMacSystemFont,'SF Pro Display','SF Pro Text','Segoe UI',Roboto,system-ui,sans-serif" font-size="8.2" font-weight="600" fill="#6a6399" text-anchor="middle">Home</text><circle cx="122.12" cy="601.12" r="2.16" fill="none" stroke="#6a6399" stroke-width="1.22" stroke-linecap="round" stroke-linejoin="round"/><circle cx="127.88" cy="601.12" r="2.16" fill="none" stroke="#6a6399" stroke-width="1.22" stroke-linecap="round" stroke-linejoin="round"/><path d="M118.52 608.32 c0 -3.5999999999999996 4.32 -3.5999999999999996 4.32 0 M124.28 608.32 c0 -3.5999999999999996 5.04 -3.5999999999999996 6.4799999999999995 -0.72" fill="none" stroke="#6a6399" stroke-width="1.22" stroke-linecap="round" stroke-linejoin="round"/><text x="125.0" y="626.0" font-family="-apple-system,BlinkMacSystemFont,'SF Pro Display','SF Pro Text','Segoe UI',Roboto,system-ui,sans-serif" font-size="8.2" font-weight="600" fill="#6a6399" text-anchor="middle">Relationships</text><rect x="189.96" y="604.72" width="2.304" height="3.5999999999999996" rx="1" fill="#6a6399"/><rect x="193.56" y="601.84" width="2.304" height="6.4799999999999995" rx="1" fill="#6a6399"/><rect x="197.16" y="605.44" width="2.304" height="2.88" rx="1" fill="#6a6399"/><rect x="200.76000000000002" y="600.4000000000001" width="2.304" height="7.92" rx="1" fill="#6a6399"/><text x="195.0" y="626.0" font-family="-apple-system,BlinkMacSystemFont,'SF Pro Display','SF Pro Text','Segoe UI',Roboto,system-ui,sans-serif" font-size="8.2" font-weight="600" fill="#6a6399" text-anchor="middle">Stats</text><rect x="264.064" y="597.52" width="1.8719999999999999" height="2.88" rx="1" transform="rotate(0 265.0 604)" fill="#7b5cff"/><rect x="264.064" y="597.52" width="1.8719999999999999" height="2.88" rx="1" transform="rotate(45 265.0 604)" fill="#7b5cff"/><rect x="264.064" y="597.52" width="1.8719999999999999" height="2.88" rx="1" transform="rotate(90 265.0 604)" fill="#7b5cff"/><rect x="264.064" y="597.52" width="1.8719999999999999" height="2.88" rx="1" transform="rotate(135 265.0 604)" fill="#7b5cff"/><rect x="264.064" y="597.52" width="1.8719999999999999" height="2.88" rx="1" transform="rotate(180 265.0 604)" fill="#7b5cff"/><rect x="264.064" y="597.52" width="1.8719999999999999" height="2.88" rx="1" transform="rotate(225 265.0 604)" fill="#7b5cff"/><rect x="264.064" y="597.52" width="1.8719999999999999" height="2.88" rx="1" transform="rotate(270 265.0 604)" fill="#7b5cff"/><rect x="264.064" y="597.52" width="1.8719999999999999" height="2.88" rx="1" transform="rotate(315 265.0 604)" fill="#7b5cff"/><circle cx="265.0" cy="604" r="3.312" fill="none" stroke="#7b5cff" stroke-width="1.22" stroke-linecap="round" stroke-linejoin="round"/><text x="265.0" y="626.0" font-family="-apple-system,BlinkMacSystemFont,'SF Pro Display','SF Pro Text','Segoe UI',Roboto,system-ui,sans-serif" font-size="8.2" font-weight="600" fill="#7b5cff" text-anchor="middle">More</text></svg>