<svg xmlns="http://www.w3.org/2000/svg" width="320" height="660" viewBox="0 0 320 660" role="img" aria-label="Design Language screen"><defs>
      <linearGradient id="gScr" x1="0" y1="0" x2="0.6" y2="1">
        <stop offset="0" stop-color="#181235"/><stop offset="1" stop-color="#0c0920"/></linearGradient>
      <linearGradient id="gFrame" x1="0" y1="0" x2="1" y2="1">
        <stop offset="0" stop-color="#2a2352"/><stop offset="1" stop-color="#0a0818"/></linearGradient>
      <linearGradient id="gCard" x1="0" y1="0" x2="0.4" y2="1">
        <stop offset="0" stop-color="#201a48"/><stop offset="1" stop-color="#181240"/></linearGradient>
      <linearGradient id="gBrand" x1="0" y1="0" x2="1" y2="0">
        <stop offset="0" stop-color="#7b5cff"/><stop offset="1" stop-color="#9d7bff"/></linearGradient>
      <linearGradient id="gAmber" x1="0" y1="0" x2="1" y2="0">
        <stop offset="0" stop-color="#ffb84d"/><stop offset="1" stop-color="#ffd27a"/></linearGradient>
      <linearGradient id="mV" x1="0" y1="0" x2="1" y2="0"><stop offset="0" stop-color="#7b5cff"/><stop offset="1" stop-color="#9d7bff"/></linearGradient>
      <linearGradient id="mA" x1="0" y1="0" x2="1" y2="0"><stop offset="0" stop-color="#ffb84d"/><stop offset="1" stop-color="#ff9f45"/></linearGradient>
      <linearGradient id="mG" x1="0" y1="0" x2="1" y2="0"><stop offset="0" stop-color="#5fb87a"/><stop offset="1" stop-color="#7bc47f"/></linearGradient>
      <linearGradient id="mC" x1="0" y1="0" x2="1" y2="0"><stop offset="0" stop-color="#6bb6d6"/><stop offset="1" stop-color="#9fd8e8"/></linearGradient>
      <radialGradient id="orb" cx="36%" cy="30%" r="78%">
        <stop offset="0" stop-color="#d9ccff"/><stop offset="38%" stop-color="#7b5cff"/>
        <stop offset="78%" stop-color="#3f3bc0"/><stop offset="100%" stop-color="#140f34"/></radialGradient>
      <radialGradient id="glow" cx="50%" cy="50%" r="50%">
        <stop offset="0" stop-color="#7b5cff" stop-opacity="0.5"/><stop offset="1" stop-color="#7b5cff" stop-opacity="0"/></radialGradient>
    </defs><rect x="10.0" y="12.0" width="300.0" height="636.0" rx="40" fill="url(#gFrame)"/><rect x="20.0" y="22.0" width="280.0" height="616.0" rx="31" fill="url(#gScr)"/><rect x="130.0" y="27.0" width="60.0" height="15.0" rx="7.5" fill="#05070d"/><text x="34.0" y="56.0" font-family="-apple-system,BlinkMacSystemFont,'SF Pro Display','SF Pro Text','Segoe UI',Roboto,system-ui,sans-serif" font-size="11" font-weight="600" fill="#c7c9d9" text-anchor="start">9:41</text><rect x="264.0" y="50.0" width="20.0" height="11.0" rx="3" fill="none" stroke="#c7c9d9" stroke-width="1.1"/><rect x="266.0" y="52.0" width="14.0" height="7.0" rx="2" fill="#c7c9d9"/><rect x="284.6" y="53.5" width="2.0" height="5.0" rx="1" fill="#c7c9d9"/><path d="M251 55 a6 6 0 0 1 11 0" fill="none" stroke="#c7c9d9" stroke-width="1.3"/><circle cx="256.5" cy="59" r="1.2" fill="#c7c9d9"/><rect x="234.0" y="58.1" width="2.6" height="1.9" rx="0.8" fill="#c7c9d9"/><rect x="238.0" y="56.2" width="2.6" height="3.8" rx="0.8" fill="#c7c9d9"/><rect x="242.0" y="54.3" width="2.6" height="5.7" rx="0.8" fill="#c7c9d9"/><rect x="246.0" y="52.4" width="2.6" height="7.6" rx="0.8" fill="#c7c9d9"/><text x="34.0" y="88.0" font-family="-apple-system,BlinkMacSystemFont,'SF Pro Display','SF Pro Text','Segoe UI',Roboto,system-ui,sans-serif" font-size="20" font-weight="700" fill="#f2effc" text-anchor="start" letter-spacing="-0.4">Design Language</text><text x="34.0" y="106.0" font-family="-apple-system,BlinkMacSystemFont,'SF Pro Display','SF Pro Text','Segoe UI',Roboto,system-ui,sans-serif" font-size="11.5" font-weight="400" fill="#9a93c6" text-anchor="start">One world, one system</text><text x="34.0" y="122.0" font-family="-apple-system,BlinkMacSystemFont,'SF Pro Display','SF Pro Text','Segoe UI',Roboto,system-ui,sans-serif" font-size="12" font-weight="700" fill="#f2effc" text-anchor="start">Colors</text><rect x="34.0" y="134.0" width="120.0" height="36.0" rx="10" fill="url(#gCard)" stroke="#302a60" stroke-width="1"/><rect x="42.0" y="142.0" width="20.0" height="20.0" rx="6" fill="#7B5CFF" stroke="#302a60" stroke-width="1"/><text x="70.0" y="151.0" font-family="-apple-system,BlinkMacSystemFont,'SF Pro Display','SF Pro Text','Segoe UI',Roboto,system-ui,sans-serif" font-size="9.5" font-weight="600" fill="#f2effc" text-anchor="start">Neon Purple</text><text x="70.0" y="163.0" font-family="ui-monospace,Menlo,monospace" font-size="8.5" font-weight="500" fill="#9a93c6" text-anchor="start">#7B5CFF</text><rect x="166.0" y="134.0" width="120.0" height="36.0" rx="10" fill="url(#gCard)" stroke="#302a60" stroke-width="1"/><rect x="174.0" y="142.0" width="20.0" height="20.0" rx="6" fill="#FFB84D" stroke="#302a60" stroke-width="1"/><text x="202.0" y="151.0" font-family="-apple-system,BlinkMacSystemFont,'SF Pro Display','SF Pro Text','Segoe UI',Roboto,system-ui,sans-serif" font-size="9.5" font-weight="600" fill="#f2effc" text-anchor="start">Warm Amber</text><text x="202.0" y="163.0" font-family="ui-monospace,Menlo,monospace" font-size="8.5" font-weight="500" fill="#9a93c6" text-anchor="start">#FFB84D</text><rect x="34.0" y="178.0" width="120.0" height="36.0" rx="10" fill="url(#gCard)" stroke="#302a60" stroke-width="1"/><rect x="42.0" y="186.0" width="20.0" height="20.0" rx="6" fill="#1A1333" stroke="#302a60" stroke-width="1"/><text x="70.0" y="195.0" font-family="-apple-system,BlinkMacSystemFont,'SF Pro Display','SF Pro Text','Segoe UI',Roboto,system-ui,sans-serif" font-size="9.5" font-weight="600" fill="#f2effc" text-anchor="start">Deep Indigo</text><text x="70.0" y="207.0" font-family="ui-monospace,Menlo,monospace" font-size="8.5" font-weight="500" fill="#9a93c6" text-anchor="start">#1A1333</text><rect x="166.0" y="178.0" width="120.0" height="36.0" rx="10" fill="url(#gCard)" stroke="#302a60" stroke-width="1"/><rect x="174.0" y="186.0" width="20.0" height="20.0" rx="6" fill="#C7C9D9" stroke="#302a60" stroke-width="1"/><text x="202.0" y="195.0" font-family="-apple-system,BlinkMacSystemFont,'SF Pro Display','SF Pro Text','Segoe UI',Roboto,system-ui,sans-serif" font-size="9.5" font-weight="600" fill="#f2effc" text-anchor="start">Soft Silver</text><text x="202.0" y="207.0" font-family="ui-monospace,Menlo,monospace" font-size="8.5" font-weight="500" fill="#9a93c6" text-anchor="start">#C7C9D9</text><text x="34.0" y="234.0" font-family="-apple-system,BlinkMacSystemFont,'SF Pro Display','SF Pro Text','Segoe UI',Roboto,system-ui,sans-serif" font-size="12" font-weight="700" fill="#f2effc" text-anchor="start">Typography</text><rect x="34.0" y="246.0" width="252.0" height="52.0" rx="12" fill="url(#gCard)" stroke="#302a60" stroke-width="1"/><text x="48.0" y="276.0" font-family="-apple-system,BlinkMacSystemFont,'SF Pro Display','SF Pro Text','Segoe UI',Roboto,system-ui,sans-serif" font-size="26" font-weight="750" fill="#f2effc" text-anchor="start">Aa</text><text x="92.0" y="270.0" font-family="-apple-system,BlinkMacSystemFont,'SF Pro Display','SF Pro Text','Segoe UI',Roboto,system-ui,sans-serif" font-size="12" font-weight="650" fill="#f2effc" text-anchor="start">SF Pro Display</text><text x="92.0" y="285.0" font-family="-apple-system,BlinkMacSystemFont,'SF Pro Display','SF Pro Text','Segoe UI',Roboto,system-ui,sans-serif" font-size="9.5" font-weight="400" fill="#9a93c6" text-anchor="start">Native system type · tabular numerals</text><text x="34.0" y="308.0" font-family="-apple-system,BlinkMacSystemFont,'SF Pro Display','SF Pro Text','Segoe UI',Roboto,system-ui,sans-serif" font-size="12" font-weight="700" fill="#f2effc" text-anchor="start">UI Style</text><rect x="34.0" y="320.0" width="252.0" height="34.0" rx="10" fill="url(#gCard)" stroke="#302a60" stroke-width="1"/><rect x="49.66" y="332.66" width="3.7199999999999998" height="3.7199999999999998" rx="1.4" fill="none" stroke="#7b5cff" stroke-width="1.05" stroke-linecap="round" stroke-linejoin="round"/><rect x="54.62" y="332.66" width="3.7199999999999998" height="3.7199999999999998" rx="1.4" fill="none" stroke="#7b5cff" stroke-width="1.05" stroke-linecap="round" stroke-linejoin="round"/><rect x="49.66" y="337.62" width="3.7199999999999998" height="3.7199999999999998" rx="1.4" fill="none" stroke="#7b5cff" stroke-width="1.05" stroke-linecap="round" stroke-linejoin="round"/><rect x="54.62" y="337.62" width="3.7199999999999998" height="3.7199999999999998" rx="1.4" fill="none" stroke="#7b5cff" stroke-width="1.05" stroke-linecap="round" stroke-linejoin="round"/><text x="72.0" y="341.0" font-family="-apple-system,BlinkMacSystemFont,'SF Pro Display','SF Pro Text','Segoe UI',Roboto,system-ui,sans-serif" font-size="11" font-weight="550" fill="#f2effc" text-anchor="start">Liquid glass · floating cards</text><rect x="34.0" y="360.0" width="252.0" height="34.0" rx="10" fill="url(#gCard)" stroke="#302a60" stroke-width="1"/><path d="M55.24 372.04 L50.28 377.62 L54 377.62 L52.76 381.96 L57.72 376.38 L54 376.38 Z" fill="#7b5cff"/><text x="72.0" y="381.0" font-family="-apple-system,BlinkMacSystemFont,'SF Pro Display','SF Pro Text','Segoe UI',Roboto,system-ui,sans-serif" font-size="11" font-weight="550" fill="#f2effc" text-anchor="start">Haptic interactions</text><rect x="34.0" y="400.0" width="252.0" height="34.0" rx="10" fill="url(#gCard)" stroke="#302a60" stroke-width="1"/><path d="M49.04 417 c2.48 -3.7199999999999998 7.4399999999999995 -3.7199999999999998 9.92 0 c-2.48 3.7199999999999998 -7.4399999999999995 3.7199999999999998 -9.92 0 Z" fill="none" stroke="#7b5cff" stroke-width="1.05" stroke-linecap="round" stroke-linejoin="round"/><circle cx="54" cy="417" r="1.488" fill="#7b5cff"/><text x="72.0" y="421.0" font-family="-apple-system,BlinkMacSystemFont,'SF Pro Display','SF Pro Text','Segoe UI',Roboto,system-ui,sans-serif" font-size="11" font-weight="550" fill="#f2effc" text-anchor="start">AI transparency</text><rect x="34.0" y="440.0" width="252.0" height="34.0" rx="10" fill="url(#gCard)" stroke="#302a60" stroke-width="1"/><rect x="50.9" y="452.04" width="6.2" height="9.92" rx="2.4" fill="none" stroke="#7b5cff" stroke-width="1.05" stroke-linecap="round" stroke-linejoin="round"/><path d="M53.008 460.1 h1.984" fill="none" stroke="#7b5cff" stroke-width="1.05" stroke-linecap="round" stroke-linejoin="round"/><text x="72.0" y="461.0" font-family="-apple-system,BlinkMacSystemFont,'SF Pro Display','SF Pro Text','Segoe UI',Roboto,system-ui,sans-serif" font-size="11" font-weight="550" fill="#f2effc" text-anchor="start">Apple Human Interface</text><rect x="20.0" y="586.0" width="280.0" height="52.0" rx="0" fill="#0e0a26"/><rect x="20" y="586" width="280" height="1" fill="#302a60"/><circle cx="55.0" cy="604" r="5.3999999999999995" fill="none" stroke="#6a6399" stroke-width="1.22" stroke-linecap="round" stroke-linejoin="round"/><circle cx="55.0" cy="604" r="2.52" fill="none" stroke="#6a6399" stroke-width="1.22" stroke-linecap="round" stroke-linejoin="round"/><circle cx="55.0" cy="604" r="0.648" fill="#6a6399"/><text x="55.0" y="626.0" font-family="-apple-system,BlinkMacSystemFont,'SF Pro Display','SF Pro Text','Segoe UI',Roboto,system-ui,sans-serif" font-size="8.2" font-weight="600" fill="#6a6399" text-anchor="middle">Home</text><circle cx="122.12" cy="601.12" r="2.16" fill="none" stroke="#6a6399" stroke-width="1.22" stroke-linecap="round" stroke-linejoin="round"/><circle cx="127.88" cy="601.12" r="2.16" fill="none" stroke="#6a6399" stroke-width="1.22" stroke-linecap="round" stroke-linejoin="round"/><path d="M118.52 608.32 c0 -3.5999999999999996 4.32 -3.5999999999999996 4.32 0 M124.28 608.32 c0 -3.5999999999999996 5.04 -3.5999999999999996 6.4799999999999995 -0.72" fill="none" stroke="#6a6399" stroke-width="1.22" stroke-linecap="round" stroke-linejoin="round"/><text x="125.0" y="626.0" font-family="-apple-system,BlinkMacSystemFont,'SF Pro Display','SF Pro Text','Segoe UI',Roboto,system-ui,sans-serif" font-size="8.2" font-weight="600" fill="#6a6399" text-anchor="middle">Relationships</text><rect x="189.96" y="604.72" width="2.304" height="3.5999999999999996" rx="1" fill="#6a6399"/><rect x="193.56" y="601.84" width="2.304" height="6.4799999999999995" rx="1" fill="#6a6399"/><rect x="197.16" y="605.44" width="2.304" height="2.88" rx="1" fill="#6a6399"/><rect x="200.76000000000002" y="600.4000000000001" width="2.304" height="7.92" rx="1" fill="#6a6399"/><text x="195.0" y="626.0" font-family="-apple-system,BlinkMacSystemFont,'SF Pro Display','SF Pro Text','Segoe UI',Roboto,system-ui,sans-serif" font-size="8.2" font-weight="600" fill="#6a6399" text-anchor="middle">Stats</text><rect x="264.064" y="597.52" width="1.8719999999999999" height="2.88" rx="1" transform="rotate(0 265.0 604)" fill="#7b5cff"/><rect x="264.064" y="597.52" width="1.8719999999999999" height="2.88" rx="1" transform="rotate(45 265.0 604)" fill="#7b5cff"/><rect x="264.064" y="597.52" width="1.8719999999999999" height="2.88" rx="1" transform="rotate(90 265.0 604)" fill="#7b5cff"/><rect x="264.064" y="597.52" width="1.8719999999999999" height="2.88" rx="1" transform="rotate(135 265.0 604)" fill="#7b5cff"/><rect x="264.064" y="597.52" width="1.8719999999999999" height="2.88" rx="1" transform="rotate(180 265.0 604)" fill="#7b5cff"/><rect x="264.064" y="597.52" width="1.8719999999999999" height="2.88" rx="1" transform="rotate(225 265.0 604)" fill="#7b5cff"/><rect x="264.064" y="597.52" width="1.8719999999999999" height="2.88" rx="1" transform="rotate(270 265.0 604)" fill="#7b5cff"/><rect x="264.064" y="597.52" width="1.8719999999999999" height="2.88" rx="1" transform="rotate(315 265.0 604)" fill="#7b5cff"/><circle cx="265.0" cy="604" r="3.312" fill="none" stroke="#7b5cff" stroke-width="1.22" stroke-linecap="round" stroke-linejoin="round"/><text x="265.0" y="626.0" font-family="-apple-system,BlinkMacSystemFont,'SF Pro Display','SF Pro Text','Segoe UI',Roboto,system-ui,sans-serif" font-size="8.2" font-weight="600" fill="#7b5cff" text-anchor="middle">More</text><rect x="118.0" y="631.0" width="84.0" height="4.0" rx="2" fill="rgba(255,255,255,0.6)"/></svg>