<svg xmlns="http://www.w3.org/2000/svg" width="320" height="660" viewBox="0 0 320 660" role="img" aria-label="Summon &amp; Beacons screen"><defs>
      <linearGradient id="gScr" x1="0" y1="0" x2="0.6" y2="1">
        <stop offset="0" stop-color="#181235"/><stop offset="1" stop-color="#0c0920"/></linearGradient>
      <linearGradient id="gFrame" x1="0" y1="0" x2="1" y2="1">
        <stop offset="0" stop-color="#2a2352"/><stop offset="1" stop-color="#0a0818"/></linearGradient>
      <linearGradient id="gCard" x1="0" y1="0" x2="0.4" y2="1">
        <stop offset="0" stop-color="#201a48"/><stop offset="1" stop-color="#181240"/></linearGradient>
      <linearGradient id="gBrand" x1="0" y1="0" x2="1" y2="0">
        <stop offset="0" stop-color="#7b5cff"/><stop offset="1" stop-color="#9d7bff"/></linearGradient>
      <linearGradient id="gAmber" x1="0" y1="0" x2="1" y2="0">
        <stop offset="0" stop-color="#ffb84d"/><stop offset="1" stop-color="#ffd27a"/></linearGradient>
      <linearGradient id="mV" x1="0" y1="0" x2="1" y2="0"><stop offset="0" stop-color="#7b5cff"/><stop offset="1" stop-color="#9d7bff"/></linearGradient>
      <linearGradient id="mA" x1="0" y1="0" x2="1" y2="0"><stop offset="0" stop-color="#ffb84d"/><stop offset="1" stop-color="#ff9f45"/></linearGradient>
      <linearGradient id="mG" x1="0" y1="0" x2="1" y2="0"><stop offset="0" stop-color="#5fb87a"/><stop offset="1" stop-color="#7bc47f"/></linearGradient>
      <linearGradient id="mC" x1="0" y1="0" x2="1" y2="0"><stop offset="0" stop-color="#6bb6d6"/><stop offset="1" stop-color="#9fd8e8"/></linearGradient>
      <radialGradient id="orb" cx="36%" cy="30%" r="78%">
        <stop offset="0" stop-color="#d9ccff"/><stop offset="38%" stop-color="#7b5cff"/>
        <stop offset="78%" stop-color="#3f3bc0"/><stop offset="100%" stop-color="#140f34"/></radialGradient>
      <radialGradient id="glow" cx="50%" cy="50%" r="50%">
        <stop offset="0" stop-color="#7b5cff" stop-opacity="0.5"/><stop offset="1" stop-color="#7b5cff" stop-opacity="0"/></radialGradient>
    </defs><rect x="10.0" y="12.0" width="300.0" height="636.0" rx="40" fill="url(#gFrame)"/><rect x="20.0" y="22.0" width="280.0" height="616.0" rx="31" fill="url(#gScr)"/><rect x="126.0" y="26.0" width="68.0" height="17.0" rx="9" fill="#04030a"/><text x="34.0" y="56.0" font-family="-apple-system,BlinkMacSystemFont,'SF Pro Display','SF Pro Text','Segoe UI',Roboto,system-ui,sans-serif" font-size="11" font-weight="600" fill="#c7c9d9" text-anchor="start">9:41</text><text x="286.0" y="56.0" font-family="-apple-system,BlinkMacSystemFont,'SF Pro Display','SF Pro Text','Segoe UI',Roboto,system-ui,sans-serif" font-size="10" font-weight="700" fill="#7b5cff" text-anchor="end">● 17</text><text x="34.0" y="88.0" font-family="-apple-system,BlinkMacSystemFont,'SF Pro Display','SF Pro Text','Segoe UI',Roboto,system-ui,sans-serif" font-size="20" font-weight="700" fill="#f2effc" text-anchor="start" letter-spacing="-0.4">Summon &amp; Beacons</text><text x="34.0" y="106.0" font-family="-apple-system,BlinkMacSystemFont,'SF Pro Display','SF Pro Text','Segoe UI',Roboto,system-ui,sans-serif" font-size="11.5" font-weight="400" fill="#9a93c6" text-anchor="start">Leave your AI in the world</text><rect x="102.0" y="122.0" width="116.0" height="116.0" rx="14" fill="#ffffff"/><rect x="157.7" y="132.0" width="4.6" height="4.6" rx="0" fill="#140f34"/><rect x="166.9" y="132.0" width="4.6" height="4.6" rx="0" fill="#140f34"/><rect x="157.7" y="136.6" width="4.6" height="4.6" rx="0" fill="#140f34"/><rect x="162.3" y="141.1" width="4.6" height="4.6" rx="0" fill="#140f34"/><rect x="153.1" y="145.7" width="4.6" height="4.6" rx="0" fill="#140f34"/><rect x="157.7" y="145.7" width="4.6" height="4.6" rx="0" fill="#140f34"/><rect x="162.3" y="145.7" width="4.6" height="4.6" rx="0" fill="#140f34"/><rect x="148.6" y="150.3" width="4.6" height="4.6" rx="0" fill="#140f34"/><rect x="157.7" y="150.3" width="4.6" height="4.6" rx="0" fill="#140f34"/><rect x="157.7" y="154.9" width="4.6" height="4.6" rx="0" fill="#140f34"/><rect x="166.9" y="154.9" width="4.6" height="4.6" rx="0" fill="#140f34"/><rect x="148.6" y="159.4" width="4.6" height="4.6" rx="0" fill="#140f34"/><rect x="157.7" y="159.4" width="4.6" height="4.6" rx="0" fill="#140f34"/><rect x="153.1" y="164.0" width="4.6" height="4.6" rx="0" fill="#140f34"/><rect x="166.9" y="164.0" width="4.6" height="4.6" rx="0" fill="#140f34"/><rect x="121.1" y="168.6" width="4.6" height="4.6" rx="0" fill="#140f34"/><rect x="125.7" y="168.6" width="4.6" height="4.6" rx="0" fill="#140f34"/><rect x="134.9" y="168.6" width="4.6" height="4.6" rx="0" fill="#140f34"/><rect x="139.4" y="168.6" width="4.6" height="4.6" rx="0" fill="#140f34"/><rect x="144.0" y="168.6" width="4.6" height="4.6" rx="0" fill="#140f34"/><rect x="148.6" y="168.6" width="4.6" height="4.6" rx="0" fill="#140f34"/><rect x="157.7" y="168.6" width="4.6" height="4.6" rx="0" fill="#140f34"/><rect x="171.4" y="168.6" width="4.6" height="4.6" rx="0" fill="#140f34"/><rect x="189.7" y="168.6" width="4.6" height="4.6" rx="0" fill="#140f34"/><rect x="194.3" y="168.6" width="4.6" height="4.6" rx="0" fill="#140f34"/><rect x="198.9" y="168.6" width="4.6" height="4.6" rx="0" fill="#140f34"/><rect x="203.4" y="168.6" width="4.6" height="4.6" rx="0" fill="#140f34"/><rect x="116.6" y="173.1" width="4.6" height="4.6" rx="0" fill="#140f34"/><rect x="121.1" y="173.1" width="4.6" height="4.6" rx="0" fill="#140f34"/><rect x="125.7" y="173.1" width="4.6" height="4.6" rx="0" fill="#140f34"/><rect x="134.9" y="173.1" width="4.6" height="4.6" rx="0" fill="#140f34"/><rect x="139.4" y="173.1" width="4.6" height="4.6" rx="0" fill="#140f34"/><rect x="148.6" y="173.1" width="4.6" height="4.6" rx="0" fill="#140f34"/><rect x="157.7" y="173.1" width="4.6" height="4.6" rx="0" fill="#140f34"/><rect x="162.3" y="173.1" width="4.6" height="4.6" rx="0" fill="#140f34"/><rect x="166.9" y="173.1" width="4.6" height="4.6" rx="0" fill="#140f34"/><rect x="171.4" y="173.1" width="4.6" height="4.6" rx="0" fill="#140f34"/><rect x="185.1" y="173.1" width="4.6" height="4.6" rx="0" fill="#140f34"/><rect x="116.6" y="177.7" width="4.6" height="4.6" rx="0" fill="#140f34"/><rect x="134.9" y="177.7" width="4.6" height="4.6" rx="0" fill="#140f34"/><rect x="148.6" y="177.7" width="4.6" height="4.6" rx="0" fill="#140f34"/><rect x="153.1" y="177.7" width="4.6" height="4.6" rx="0" fill="#140f34"/><rect x="157.7" y="177.7" width="4.6" height="4.6" rx="0" fill="#140f34"/><rect x="162.3" y="177.7" width="4.6" height="4.6" rx="0" fill="#140f34"/><rect x="180.6" y="177.7" width="4.6" height="4.6" rx="0" fill="#140f34"/><rect x="185.1" y="177.7" width="4.6" height="4.6" rx="0" fill="#140f34"/><rect x="116.6" y="182.3" width="4.6" height="4.6" rx="0" fill="#140f34"/><rect x="139.4" y="182.3" width="4.6" height="4.6" rx="0" fill="#140f34"/><rect x="144.0" y="182.3" width="4.6" height="4.6" rx="0" fill="#140f34"/><rect x="148.6" y="182.3" width="4.6" height="4.6" rx="0" fill="#140f34"/><rect x="153.1" y="182.3" width="4.6" height="4.6" rx="0" fill="#140f34"/><rect x="157.7" y="182.3" width="4.6" height="4.6" rx="0" fill="#140f34"/><rect x="162.3" y="182.3" width="4.6" height="4.6" rx="0" fill="#140f34"/><rect x="171.4" y="182.3" width="4.6" height="4.6" rx="0" fill="#140f34"/><rect x="176.0" y="182.3" width="4.6" height="4.6" rx="0" fill="#140f34"/><rect x="180.6" y="182.3" width="4.6" height="4.6" rx="0" fill="#140f34"/><rect x="185.1" y="182.3" width="4.6" height="4.6" rx="0" fill="#140f34"/><rect x="203.4" y="182.3" width="4.6" height="4.6" rx="0" fill="#140f34"/><rect x="162.3" y="186.9" width="4.6" height="4.6" rx="0" fill="#140f34"/><rect x="166.9" y="186.9" width="4.6" height="4.6" rx="0" fill="#140f34"/><rect x="194.3" y="186.9" width="4.6" height="4.6" rx="0" fill="#140f34"/><rect x="198.9" y="186.9" width="4.6" height="4.6" rx="0" fill="#140f34"/><rect x="171.4" y="191.4" width="4.6" height="4.6" rx="0" fill="#140f34"/><rect x="185.1" y="191.4" width="4.6" height="4.6" rx="0" fill="#140f34"/><rect x="189.7" y="191.4" width="4.6" height="4.6" rx="0" fill="#140f34"/><rect x="198.9" y="191.4" width="4.6" height="4.6" rx="0" fill="#140f34"/><rect x="148.6" y="196.0" width="4.6" height="4.6" rx="0" fill="#140f34"/><rect x="153.1" y="196.0" width="4.6" height="4.6" rx="0" fill="#140f34"/><rect x="157.7" y="196.0" width="4.6" height="4.6" rx="0" fill="#140f34"/><rect x="162.3" y="196.0" width="4.6" height="4.6" rx="0" fill="#140f34"/><rect x="180.6" y="196.0" width="4.6" height="4.6" rx="0" fill="#140f34"/><rect x="185.1" y="196.0" width="4.6" height="4.6" rx="0" fill="#140f34"/><rect x="189.7" y="196.0" width="4.6" height="4.6" rx="0" fill="#140f34"/><rect x="203.4" y="196.0" width="4.6" height="4.6" rx="0" fill="#140f34"/><rect x="148.6" y="200.6" width="4.6" height="4.6" rx="0" fill="#140f34"/><rect x="153.1" y="200.6" width="4.6" height="4.6" rx="0" fill="#140f34"/><rect x="157.7" y="200.6" width="4.6" height="4.6" rx="0" fill="#140f34"/><rect x="162.3" y="200.6" width="4.6" height="4.6" rx="0" fill="#140f34"/><rect x="166.9" y="200.6" width="4.6" height="4.6" rx="0" fill="#140f34"/><rect x="176.0" y="200.6" width="4.6" height="4.6" rx="0" fill="#140f34"/><rect x="203.4" y="200.6" width="4.6" height="4.6" rx="0" fill="#140f34"/><rect x="148.6" y="205.1" width="4.6" height="4.6" rx="0" fill="#140f34"/><rect x="157.7" y="205.1" width="4.6" height="4.6" rx="0" fill="#140f34"/><rect x="162.3" y="205.1" width="4.6" height="4.6" rx="0" fill="#140f34"/><rect x="166.9" y="205.1" width="4.6" height="4.6" rx="0" fill="#140f34"/><rect x="194.3" y="205.1" width="4.6" height="4.6" rx="0" fill="#140f34"/><rect x="198.9" y="205.1" width="4.6" height="4.6" rx="0" fill="#140f34"/><rect x="203.4" y="205.1" width="4.6" height="4.6" rx="0" fill="#140f34"/><rect x="153.1" y="209.7" width="4.6" height="4.6" rx="0" fill="#140f34"/><rect x="157.7" y="209.7" width="4.6" height="4.6" rx="0" fill="#140f34"/><rect x="166.9" y="209.7" width="4.6" height="4.6" rx="0" fill="#140f34"/><rect x="171.4" y="209.7" width="4.6" height="4.6" rx="0" fill="#140f34"/><rect x="176.0" y="209.7" width="4.6" height="4.6" rx="0" fill="#140f34"/><rect x="180.6" y="209.7" width="4.6" height="4.6" rx="0" fill="#140f34"/><rect x="194.3" y="209.7" width="4.6" height="4.6" rx="0" fill="#140f34"/><rect x="203.4" y="209.7" width="4.6" height="4.6" rx="0" fill="#140f34"/><rect x="148.6" y="214.3" width="4.6" height="4.6" rx="0" fill="#140f34"/><rect x="162.3" y="214.3" width="4.6" height="4.6" rx="0" fill="#140f34"/><rect x="166.9" y="214.3" width="4.6" height="4.6" rx="0" fill="#140f34"/><rect x="185.1" y="214.3" width="4.6" height="4.6" rx="0" fill="#140f34"/><rect x="189.7" y="214.3" width="4.6" height="4.6" rx="0" fill="#140f34"/><rect x="198.9" y="214.3" width="4.6" height="4.6" rx="0" fill="#140f34"/><rect x="203.4" y="214.3" width="4.6" height="4.6" rx="0" fill="#140f34"/><rect x="148.6" y="218.9" width="4.6" height="4.6" rx="0" fill="#140f34"/><rect x="157.7" y="218.9" width="4.6" height="4.6" rx="0" fill="#140f34"/><rect x="171.4" y="218.9" width="4.6" height="4.6" rx="0" fill="#140f34"/><rect x="176.0" y="218.9" width="4.6" height="4.6" rx="0" fill="#140f34"/><rect x="180.6" y="218.9" width="4.6" height="4.6" rx="0" fill="#140f34"/><rect x="185.1" y="218.9" width="4.6" height="4.6" rx="0" fill="#140f34"/><rect x="194.3" y="218.9" width="4.6" height="4.6" rx="0" fill="#140f34"/><rect x="198.9" y="218.9" width="4.6" height="4.6" rx="0" fill="#140f34"/><rect x="162.3" y="223.4" width="4.6" height="4.6" rx="0" fill="#140f34"/><rect x="180.6" y="223.4" width="4.6" height="4.6" rx="0" fill="#140f34"/><rect x="194.3" y="223.4" width="4.6" height="4.6" rx="0" fill="#140f34"/><rect x="198.9" y="223.4" width="4.6" height="4.6" rx="0" fill="#140f34"/><rect x="112.0" y="132.0" width="4.6" height="4.6" rx="0" fill="#140f34"/><rect x="116.6" y="132.0" width="4.6" height="4.6" rx="0" fill="#140f34"/><rect x="121.1" y="132.0" width="4.6" height="4.6" rx="0" fill="#140f34"/><rect x="125.7" y="132.0" width="4.6" height="4.6" rx="0" fill="#140f34"/><rect x="130.3" y="132.0" width="4.6" height="4.6" rx="0" fill="#140f34"/><rect x="134.9" y="132.0" width="4.6" height="4.6" rx="0" fill="#140f34"/><rect x="139.4" y="132.0" width="4.6" height="4.6" rx="0" fill="#140f34"/><rect x="112.0" y="136.6" width="4.6" height="4.6" rx="0" fill="#140f34"/><rect x="139.4" y="136.6" width="4.6" height="4.6" rx="0" fill="#140f34"/><rect x="112.0" y="141.1" width="4.6" height="4.6" rx="0" fill="#140f34"/><rect x="121.1" y="141.1" width="4.6" height="4.6" rx="0" fill="#140f34"/><rect x="125.7" y="141.1" width="4.6" height="4.6" rx="0" fill="#140f34"/><rect x="130.3" y="141.1" width="4.6" height="4.6" rx="0" fill="#140f34"/><rect x="139.4" y="141.1" width="4.6" height="4.6" rx="0" fill="#140f34"/><rect x="112.0" y="145.7" width="4.6" height="4.6" rx="0" fill="#140f34"/><rect x="121.1" y="145.7" width="4.6" height="4.6" rx="0" fill="#140f34"/><rect x="125.7" y="145.7" width="4.6" height="4.6" rx="0" fill="#140f34"/><rect x="130.3" y="145.7" width="4.6" height="4.6" rx="0" fill="#140f34"/><rect x="139.4" y="145.7" width="4.6" height="4.6" rx="0" fill="#140f34"/><rect x="112.0" y="150.3" width="4.6" height="4.6" rx="0" fill="#140f34"/><rect x="121.1" y="150.3" width="4.6" height="4.6" rx="0" fill="#140f34"/><rect x="125.7" y="150.3" width="4.6" height="4.6" rx="0" fill="#140f34"/><rect x="130.3" y="150.3" width="4.6" height="4.6" rx="0" fill="#140f34"/><rect x="139.4" y="150.3" width="4.6" height="4.6" rx="0" fill="#140f34"/><rect x="112.0" y="154.9" width="4.6" height="4.6" rx="0" fill="#140f34"/><rect x="139.4" y="154.9" width="4.6" height="4.6" rx="0" fill="#140f34"/><rect x="112.0" y="159.4" width="4.6" height="4.6" rx="0" fill="#140f34"/><rect x="116.6" y="159.4" width="4.6" height="4.6" rx="0" fill="#140f34"/><rect x="121.1" y="159.4" width="4.6" height="4.6" rx="0" fill="#140f34"/><rect x="125.7" y="159.4" width="4.6" height="4.6" rx="0" fill="#140f34"/><rect x="130.3" y="159.4" width="4.6" height="4.6" rx="0" fill="#140f34"/><rect x="134.9" y="159.4" width="4.6" height="4.6" rx="0" fill="#140f34"/><rect x="139.4" y="159.4" width="4.6" height="4.6" rx="0" fill="#140f34"/><rect x="176.0" y="132.0" width="4.6" height="4.6" rx="0" fill="#140f34"/><rect x="180.6" y="132.0" width="4.6" height="4.6" rx="0" fill="#140f34"/><rect x="185.1" y="132.0" width="4.6" height="4.6" rx="0" fill="#140f34"/><rect x="189.7" y="132.0" width="4.6" height="4.6" rx="0" fill="#140f34"/><rect x="194.3" y="132.0" width="4.6" height="4.6" rx="0" fill="#140f34"/><rect x="198.9" y="132.0" width="4.6" height="4.6" rx="0" fill="#140f34"/><rect x="203.4" y="132.0" width="4.6" height="4.6" rx="0" fill="#140f34"/><rect x="176.0" y="136.6" width="4.6" height="4.6" rx="0" fill="#140f34"/><rect x="203.4" y="136.6" width="4.6" height="4.6" rx="0" fill="#140f34"/><rect x="176.0" y="141.1" width="4.6" height="4.6" rx="0" fill="#140f34"/><rect x="185.1" y="141.1" width="4.6" height="4.6" rx="0" fill="#140f34"/><rect x="189.7" y="141.1" width="4.6" height="4.6" rx="0" fill="#140f34"/><rect x="194.3" y="141.1" width="4.6" height="4.6" rx="0" fill="#140f34"/><rect x="203.4" y="141.1" width="4.6" height="4.6" rx="0" fill="#140f34"/><rect x="176.0" y="145.7" width="4.6" height="4.6" rx="0" fill="#140f34"/><rect x="185.1" y="145.7" width="4.6" height="4.6" rx="0" fill="#140f34"/><rect x="189.7" y="145.7" width="4.6" height="4.6" rx="0" fill="#140f34"/><rect x="194.3" y="145.7" width="4.6" height="4.6" rx="0" fill="#140f34"/><rect x="203.4" y="145.7" width="4.6" height="4.6" rx="0" fill="#140f34"/><rect x="176.0" y="150.3" width="4.6" height="4.6" rx="0" fill="#140f34"/><rect x="185.1" y="150.3" width="4.6" height="4.6" rx="0" fill="#140f34"/><rect x="189.7" y="150.3" width="4.6" height="4.6" rx="0" fill="#140f34"/><rect x="194.3" y="150.3" width="4.6" height="4.6" rx="0" fill="#140f34"/><rect x="203.4" y="150.3" width="4.6" height="4.6" rx="0" fill="#140f34"/><rect x="176.0" y="154.9" width="4.6" height="4.6" rx="0" fill="#140f34"/><rect x="203.4" y="154.9" width="4.6" height="4.6" rx="0" fill="#140f34"/><rect x="176.0" y="159.4" width="4.6" height="4.6" rx="0" fill="#140f34"/><rect x="180.6" y="159.4" width="4.6" height="4.6" rx="0" fill="#140f34"/><rect x="185.1" y="159.4" width="4.6" height="4.6" rx="0" fill="#140f34"/><rect x="189.7" y="159.4" width="4.6" height="4.6" rx="0" fill="#140f34"/><rect x="194.3" y="159.4" width="4.6" height="4.6" rx="0" fill="#140f34"/><rect x="198.9" y="159.4" width="4.6" height="4.6" rx="0" fill="#140f34"/><rect x="203.4" y="159.4" width="4.6" height="4.6" rx="0" fill="#140f34"/><rect x="112.0" y="196.0" width="4.6" height="4.6" rx="0" fill="#140f34"/><rect x="116.6" y="196.0" width="4.6" height="4.6" rx="0" fill="#140f34"/><rect x="121.1" y="196.0" width="4.6" height="4.6" rx="0" fill="#140f34"/><rect x="125.7" y="196.0" width="4.6" height="4.6" rx="0" fill="#140f34"/><rect x="130.3" y="196.0" width="4.6" height="4.6" rx="0" fill="#140f34"/><rect x="134.9" y="196.0" width="4.6" height="4.6" rx="0" fill="#140f34"/><rect x="139.4" y="196.0" width="4.6" height="4.6" rx="0" fill="#140f34"/><rect x="112.0" y="200.6" width="4.6" height="4.6" rx="0" fill="#140f34"/><rect x="139.4" y="200.6" width="4.6" height="4.6" rx="0" fill="#140f34"/><rect x="112.0" y="205.1" width="4.6" height="4.6" rx="0" fill="#140f34"/><rect x="121.1" y="205.1" width="4.6" height="4.6" rx="0" fill="#140f34"/><rect x="125.7" y="205.1" width="4.6" height="4.6" rx="0" fill="#140f34"/><rect x="130.3" y="205.1" width="4.6" height="4.6" rx="0" fill="#140f34"/><rect x="139.4" y="205.1" width="4.6" height="4.6" rx="0" fill="#140f34"/><rect x="112.0" y="209.7" width="4.6" height="4.6" rx="0" fill="#140f34"/><rect x="121.1" y="209.7" width="4.6" height="4.6" rx="0" fill="#140f34"/><rect x="125.7" y="209.7" width="4.6" height="4.6" rx="0" fill="#140f34"/><rect x="130.3" y="209.7" width="4.6" height="4.6" rx="0" fill="#140f34"/><rect x="139.4" y="209.7" width="4.6" height="4.6" rx="0" fill="#140f34"/><rect x="112.0" y="214.3" width="4.6" height="4.6" rx="0" fill="#140f34"/><rect x="121.1" y="214.3" width="4.6" height="4.6" rx="0" fill="#140f34"/><rect x="125.7" y="214.3" width="4.6" height="4.6" rx="0" fill="#140f34"/><rect x="130.3" y="214.3" width="4.6" height="4.6" rx="0" fill="#140f34"/><rect x="139.4" y="214.3" width="4.6" height="4.6" rx="0" fill="#140f34"/><rect x="112.0" y="218.9" width="4.6" height="4.6" rx="0" fill="#140f34"/><rect x="139.4" y="218.9" width="4.6" height="4.6" rx="0" fill="#140f34"/><rect x="112.0" y="223.4" width="4.6" height="4.6" rx="0" fill="#140f34"/><rect x="116.6" y="223.4" width="4.6" height="4.6" rx="0" fill="#140f34"/><rect x="121.1" y="223.4" width="4.6" height="4.6" rx="0" fill="#140f34"/><rect x="125.7" y="223.4" width="4.6" height="4.6" rx="0" fill="#140f34"/><rect x="130.3" y="223.4" width="4.6" height="4.6" rx="0" fill="#140f34"/><rect x="134.9" y="223.4" width="4.6" height="4.6" rx="0" fill="#140f34"/><rect x="139.4" y="223.4" width="4.6" height="4.6" rx="0" fill="#140f34"/><circle cx="160.0" cy="180.0" r="18" fill="#0c0920" stroke="#7b5cff" stroke-width="2"/><circle cx="160.0" cy="176.0" r="3.6" fill="none" stroke="#7b5cff" stroke-width="1.70" stroke-linecap="round" stroke-linejoin="round"/><path d="M154.0 187.0 c0 -6.0 12.0 -6.0 12.0 0" fill="none" stroke="#7b5cff" stroke-width="1.70" stroke-linecap="round" stroke-linejoin="round"/><text x="160.0" y="256.0" font-family="-apple-system,BlinkMacSystemFont,'SF Pro Display','SF Pro Text','Segoe UI',Roboto,system-ui,sans-serif" font-size="14" font-weight="700" fill="#7b5cff" text-anchor="middle">@ava.bianchi</text><text x="160.0" y="272.0" font-family="-apple-system,BlinkMacSystemFont,'SF Pro Display','SF Pro Text','Segoe UI',Roboto,system-ui,sans-serif" font-size="10" font-weight="500" fill="#9a93c6" text-anchor="middle">Scan to summon this profile — anywhere</text><rect x="34.0" y="290.0" width="252.0" height="48.0" rx="16" fill="url(#gCard)" stroke="#302a60" stroke-width="1"/><rect x="46.0" y="297.0" width="34.0" height="34.0" rx="11" fill="rgba(123,92,255,0.16)"/><circle cx="63" cy="314.0" r="6.9" fill="none" stroke="#7b5cff" stroke-width="1.56" stroke-linecap="round" stroke-linejoin="round"/><circle cx="63" cy="314.0" r="3.22" fill="none" stroke="#7b5cff" stroke-width="1.56" stroke-linecap="round" stroke-linejoin="round"/><circle cx="63" cy="314.0" r="0.8280000000000001" fill="#7b5cff"/><text x="90.0" y="308.0" font-family="-apple-system,BlinkMacSystemFont,'SF Pro Display','SF Pro Text','Segoe UI',Roboto,system-ui,sans-serif" font-size="13" font-weight="600" fill="#f2effc" text-anchor="start">@handle · #tag · beacon</text><text x="90.0" y="323.0" font-family="-apple-system,BlinkMacSystemFont,'SF Pro Display','SF Pro Text','Segoe UI',Roboto,system-ui,sans-serif" font-size="11" font-weight="400" fill="#9a93c6" text-anchor="start">one resolver, three refs</text><rect x="34.0" y="348.0" width="252.0" height="48.0" rx="16" fill="url(#gCard)" stroke="#302a60" stroke-width="1"/><rect x="46.0" y="355.0" width="34.0" height="34.0" rx="11" fill="rgba(255,184,77,0.16)"/><rect x="56.56" y="372.91999999999996" width="2.9440000000000004" height="4.6000000000000005" rx="1" fill="#ffb84d"/><rect x="61.160000000000004" y="369.24" width="2.9440000000000004" height="8.280000000000001" rx="1" fill="#ffb84d"/><rect x="65.76" y="373.84" width="2.9440000000000004" height="3.68" rx="1" fill="#ffb84d"/><rect x="70.36" y="367.4" width="2.9440000000000004" height="10.120000000000001" rx="1" fill="#ffb84d"/><text x="90.0" y="366.0" font-family="-apple-system,BlinkMacSystemFont,'SF Pro Display','SF Pro Text','Segoe UI',Roboto,system-ui,sans-serif" font-size="13" font-weight="600" fill="#f2effc" text-anchor="start">Scans counted</text><text x="90.0" y="381.0" font-family="-apple-system,BlinkMacSystemFont,'SF Pro Display','SF Pro Text','Segoe UI',Roboto,system-ui,sans-serif" font-size="11" font-weight="400" fill="#9a93c6" text-anchor="start">247 summons · pick it back up</text><rect x="34.0" y="406.0" width="252.0" height="48.0" rx="16" fill="url(#gCard)" stroke="#302a60" stroke-width="1"/><rect x="46.0" y="413.0" width="34.0" height="34.0" rx="11" fill="rgba(159,216,232,0.16)"/><path d="M55.64 431.84 c2.7600000000000002 -4.6000000000000005 7.36 -5.5200000000000005 10.120000000000001 -2.7600000000000002 c1.84 -3.68 4.6000000000000005 -3.68 4.6000000000000005 -3.68 c-0.92 2.7600000000000002 -1.84 3.68 -3.68 4.6000000000000005 c-0.92 3.68 -4.6000000000000005 5.5200000000000005 -8.280000000000001 4.6000000000000005 l1.84 2.7600000000000002 h-4.6000000000000005 Z" fill="none" stroke="#9fd8e8" stroke-width="1.56" stroke-linecap="round" stroke-linejoin="round"/><text x="90.0" y="424.0" font-family="-apple-system,BlinkMacSystemFont,'SF Pro Display','SF Pro Text','Segoe UI',Roboto,system-ui,sans-serif" font-size="13" font-weight="600" fill="#f2effc" text-anchor="start">Departed → memorial</text><text x="90.0" y="439.0" font-family="-apple-system,BlinkMacSystemFont,'SF Pro Display','SF Pro Text','Segoe UI',Roboto,system-ui,sans-serif" font-size="11" font-weight="400" fill="#9a93c6" text-anchor="start">a beacon outlives the profile</text><rect x="20.0" y="586.0" width="280.0" height="52.0" rx="0" fill="#0e0a26"/><rect x="20" y="586" width="280" height="1" fill="#302a60"/><circle cx="55.0" cy="604" r="5.3999999999999995" fill="none" stroke="#7b5cff" stroke-width="1.22" stroke-linecap="round" stroke-linejoin="round"/><circle cx="55.0" cy="604" r="2.52" fill="none" stroke="#7b5cff" stroke-width="1.22" stroke-linecap="round" stroke-linejoin="round"/><circle cx="55.0" cy="604" r="0.648" fill="#7b5cff"/><text x="55.0" y="626.0" font-family="-apple-system,BlinkMacSystemFont,'SF Pro Display','SF Pro Text','Segoe UI',Roboto,system-ui,sans-serif" font-size="8.2" font-weight="600" fill="#7b5cff" text-anchor="middle">Home</text><circle cx="122.12" cy="601.12" r="2.16" fill="none" stroke="#6a6399" stroke-width="1.22" stroke-linecap="round" stroke-linejoin="round"/><circle cx="127.88" cy="601.12" r="2.16" fill="none" stroke="#6a6399" stroke-width="1.22" stroke-linecap="round" stroke-linejoin="round"/><path d="M118.52 608.32 c0 -3.5999999999999996 4.32 -3.5999999999999996 4.32 0 M124.28 608.32 c0 -3.5999999999999996 5.04 -3.5999999999999996 6.4799999999999995 -0.72" fill="none" stroke="#6a6399" stroke-width="1.22" stroke-linecap="round" stroke-linejoin="round"/><text x="125.0" y="626.0" font-family="-apple-system,BlinkMacSystemFont,'SF Pro Display','SF Pro Text','Segoe UI',Roboto,system-ui,sans-serif" font-size="8.2" font-weight="600" fill="#6a6399" text-anchor="middle">Relationships</text><rect x="189.96" y="604.72" width="2.304" height="3.5999999999999996" rx="1" fill="#6a6399"/><rect x="193.56" y="601.84" width="2.304" height="6.4799999999999995" rx="1" fill="#6a6399"/><rect x="197.16" y="605.44" width="2.304" height="2.88" rx="1" fill="#6a6399"/><rect x="200.76000000000002" y="600.4000000000001" width="2.304" height="7.92" rx="1" fill="#6a6399"/><text x="195.0" y="626.0" font-family="-apple-system,BlinkMacSystemFont,'SF Pro Display','SF Pro Text','Segoe UI',Roboto,system-ui,sans-serif" font-size="8.2" font-weight="600" fill="#6a6399" text-anchor="middle">Stats</text><rect x="264.064" y="597.52" width="1.8719999999999999" height="2.88" rx="1" transform="rotate(0 265.0 604)" fill="#6a6399"/><rect x="264.064" y="597.52" width="1.8719999999999999" height="2.88" rx="1" transform="rotate(45 265.0 604)" fill="#6a6399"/><rect x="264.064" y="597.52" width="1.8719999999999999" height="2.88" rx="1" transform="rotate(90 265.0 604)" fill="#6a6399"/><rect x="264.064" y="597.52" width="1.8719999999999999" height="2.88" rx="1" transform="rotate(135 265.0 604)" fill="#6a6399"/><rect x="264.064" y="597.52" width="1.8719999999999999" height="2.88" rx="1" transform="rotate(180 265.0 604)" fill="#6a6399"/><rect x="264.064" y="597.52" width="1.8719999999999999" height="2.88" rx="1" transform="rotate(225 265.0 604)" fill="#6a6399"/><rect x="264.064" y="597.52" width="1.8719999999999999" height="2.88" rx="1" transform="rotate(270 265.0 604)" fill="#6a6399"/><rect x="264.064" y="597.52" width="1.8719999999999999" height="2.88" rx="1" transform="rotate(315 265.0 604)" fill="#6a6399"/><circle cx="265.0" cy="604" r="3.312" fill="none" stroke="#6a6399" stroke-width="1.22" stroke-linecap="round" stroke-linejoin="round"/><text x="265.0" y="626.0" font-family="-apple-system,BlinkMacSystemFont,'SF Pro Display','SF Pro Text','Segoe UI',Roboto,system-ui,sans-serif" font-size="8.2" font-weight="600" fill="#6a6399" text-anchor="middle">More</text></svg>