<svg xmlns="http://www.w3.org/2000/svg" width="320" height="660" viewBox="0 0 320 660" role="img" aria-label="Cloud Model screen"><defs>
      <linearGradient id="gScr" x1="0" y1="0" x2="0.6" y2="1">
        <stop offset="0" stop-color="#181235"/><stop offset="1" stop-color="#0c0920"/></linearGradient>
      <linearGradient id="gFrame" x1="0" y1="0" x2="1" y2="1">
        <stop offset="0" stop-color="#2a2352"/><stop offset="1" stop-color="#0a0818"/></linearGradient>
      <linearGradient id="gCard" x1="0" y1="0" x2="0.4" y2="1">
        <stop offset="0" stop-color="#201a48"/><stop offset="1" stop-color="#181240"/></linearGradient>
      <linearGradient id="gBrand" x1="0" y1="0" x2="1" y2="0">
        <stop offset="0" stop-color="#7b5cff"/><stop offset="1" stop-color="#9d7bff"/></linearGradient>
      <linearGradient id="gAmber" x1="0" y1="0" x2="1" y2="0">
        <stop offset="0" stop-color="#ffb84d"/><stop offset="1" stop-color="#ffd27a"/></linearGradient>
      <linearGradient id="mV" x1="0" y1="0" x2="1" y2="0"><stop offset="0" stop-color="#7b5cff"/><stop offset="1" stop-color="#9d7bff"/></linearGradient>
      <linearGradient id="mA" x1="0" y1="0" x2="1" y2="0"><stop offset="0" stop-color="#ffb84d"/><stop offset="1" stop-color="#ff9f45"/></linearGradient>
      <linearGradient id="mG" x1="0" y1="0" x2="1" y2="0"><stop offset="0" stop-color="#5fb87a"/><stop offset="1" stop-color="#7bc47f"/></linearGradient>
      <linearGradient id="mC" x1="0" y1="0" x2="1" y2="0"><stop offset="0" stop-color="#6bb6d6"/><stop offset="1" stop-color="#9fd8e8"/></linearGradient>
      <radialGradient id="orb" cx="36%" cy="30%" r="78%">
        <stop offset="0" stop-color="#d9ccff"/><stop offset="38%" stop-color="#7b5cff"/>
        <stop offset="78%" stop-color="#3f3bc0"/><stop offset="100%" stop-color="#140f34"/></radialGradient>
      <radialGradient id="glow" cx="50%" cy="50%" r="50%">
        <stop offset="0" stop-color="#7b5cff" stop-opacity="0.5"/><stop offset="1" stop-color="#7b5cff" stop-opacity="0"/></radialGradient>
    </defs><rect x="10.0" y="12.0" width="300.0" height="636.0" rx="40" fill="url(#gFrame)"/><rect x="20.0" y="22.0" width="280.0" height="616.0" rx="31" fill="url(#gScr)"/><rect x="130.0" y="27.0" width="60.0" height="15.0" rx="7.5" fill="#05070d"/><text x="34.0" y="56.0" font-family="-apple-system,BlinkMacSystemFont,'SF Pro Display','SF Pro Text','Segoe UI',Roboto,system-ui,sans-serif" font-size="11" font-weight="600" fill="#c7c9d9" text-anchor="start">9:41</text><rect x="264.0" y="50.0" width="20.0" height="11.0" rx="3" fill="none" stroke="#c7c9d9" stroke-width="1.1"/><rect x="266.0" y="52.0" width="14.0" height="7.0" rx="2" fill="#c7c9d9"/><rect x="284.6" y="53.5" width="2.0" height="5.0" rx="1" fill="#c7c9d9"/><path d="M251 55 a6 6 0 0 1 11 0" fill="none" stroke="#c7c9d9" stroke-width="1.3"/><circle cx="256.5" cy="59" r="1.2" fill="#c7c9d9"/><rect x="234.0" y="58.1" width="2.6" height="1.9" rx="0.8" fill="#c7c9d9"/><rect x="238.0" y="56.2" width="2.6" height="3.8" rx="0.8" fill="#c7c9d9"/><rect x="242.0" y="54.3" width="2.6" height="5.7" rx="0.8" fill="#c7c9d9"/><rect x="246.0" y="52.4" width="2.6" height="7.6" rx="0.8" fill="#c7c9d9"/><text x="34.0" y="88.0" font-family="-apple-system,BlinkMacSystemFont,'SF Pro Display','SF Pro Text','Segoe UI',Roboto,system-ui,sans-serif" font-size="20" font-weight="700" fill="#f2effc" text-anchor="start" letter-spacing="-0.4">Cloud Model</text><text x="34.0" y="106.0" font-family="-apple-system,BlinkMacSystemFont,'SF Pro Display','SF Pro Text','Segoe UI',Roboto,system-ui,sans-serif" font-size="11.5" font-weight="400" fill="#9a93c6" text-anchor="start">Greater model, opt-in</text><rect x="34.0" y="122.0" width="252.0" height="58.0" rx="15" fill="url(#gCard)" stroke="#302a60" stroke-width="1"/><path d="M54.2 155.2 a5.2 5.2 0 0 1 1.3 -10.4 a6.5 6.5 0 0 1 13.0 1.3 a4.55 4.55 0 0 1 -1.3 9.1 Z" fill="none" stroke="#7b5cff" stroke-width="2.21" stroke-linecap="round" stroke-linejoin="round"/><text x="90.0" y="146.0" font-family="-apple-system,BlinkMacSystemFont,'SF Pro Display','SF Pro Text','Segoe UI',Roboto,system-ui,sans-serif" font-size="12.5" font-weight="650" fill="#f2effc" text-anchor="start">Contribute to the model</text><text x="90.0" y="162.0" font-family="-apple-system,BlinkMacSystemFont,'SF Pro Display','SF Pro Text','Segoe UI',Roboto,system-ui,sans-serif" font-size="10" font-weight="400" fill="#9a93c6" text-anchor="start">Preview exactly what would leave</text><rect x="242.0" y="142.0" width="34.0" height="20.0" rx="10" fill="#2a2450"/><circle cx="252" cy="152" r="8" fill="#fff"/><text x="34.0" y="192.0" font-family="-apple-system,BlinkMacSystemFont,'SF Pro Display','SF Pro Text','Segoe UI',Roboto,system-ui,sans-serif" font-size="11" font-weight="600" fill="#9a93c6" text-anchor="start">Next contribution preview</text><rect x="34.0" y="200.0" width="252.0" height="74.0" rx="13" fill="#0d0a24" stroke="#302a60" stroke-width="1"/><text x="48.0" y="222.0" font-family="ui-monospace,Menlo,monospace" font-size="10" font-weight="500" fill="#9fd8e8" text-anchor="start">ref: a7f3…  (id stripped)</text><text x="48.0" y="240.0" font-family="-apple-system,BlinkMacSystemFont,'SF Pro Display','SF Pro Text','Segoe UI',Roboto,system-ui,sans-serif" font-size="10" font-weight="500" fill="#f2effc" text-anchor="start">&quot;How do you stay patient?&quot;</text><text x="48.0" y="256.0" font-family="-apple-system,BlinkMacSystemFont,'SF Pro Display','SF Pro Text','Segoe UI',Roboto,system-ui,sans-serif" font-size="9.5" font-weight="500" fill="#6a6399" text-anchor="start">→ name replaced · rated +1 · revocable</text><rect x="34.0" y="286.0" width="252.0" height="48.0" rx="16" fill="url(#gCard)" stroke="#302a60" stroke-width="1"/><rect x="46.0" y="293.0" width="34.0" height="34.0" rx="11" fill="rgba(159,216,232,0.16)"/><path d="M55.64 310.0 c3.68 -5.5200000000000005 11.040000000000001 -5.5200000000000005 14.72 0 c-3.68 5.5200000000000005 -11.040000000000001 5.5200000000000005 -14.72 0 Z" fill="none" stroke="#9fd8e8" stroke-width="1.56" stroke-linecap="round" stroke-linejoin="round"/><circle cx="63" cy="310.0" r="2.208" fill="#9fd8e8"/><text x="90.0" y="304.0" font-family="-apple-system,BlinkMacSystemFont,'SF Pro Display','SF Pro Text','Segoe UI',Roboto,system-ui,sans-serif" font-size="13" font-weight="600" fill="#f2effc" text-anchor="start">Anonymized at the gateway</text><text x="90.0" y="319.0" font-family="-apple-system,BlinkMacSystemFont,'SF Pro Display','SF Pro Text','Segoe UI',Roboto,system-ui,sans-serif" font-size="11" font-weight="400" fill="#9a93c6" text-anchor="start">no ids, names replaced</text><rect x="34.0" y="344.0" width="252.0" height="48.0" rx="16" fill="url(#gCard)" stroke="#302a60" stroke-width="1"/><rect x="46.0" y="351.0" width="34.0" height="34.0" rx="11" fill="rgba(224,104,122,0.16)"/><path d="M63 360.64 L70.36 373.52 H55.64 Z" fill="none" stroke="#e0687a" stroke-width="1.56" stroke-linecap="round" stroke-linejoin="round"/><path d="M63 365.24 v3.68" fill="none" stroke="#e0687a" stroke-width="1.56" stroke-linecap="round" stroke-linejoin="round"/><circle cx="63" cy="371.68" r="0.8280000000000001" fill="#e0687a"/><text x="90.0" y="362.0" font-family="-apple-system,BlinkMacSystemFont,'SF Pro Display','SF Pro Text','Segoe UI',Roboto,system-ui,sans-serif" font-size="13" font-weight="600" fill="#f2effc" text-anchor="start">Revoke deletes past items</text><text x="90.0" y="377.0" font-family="-apple-system,BlinkMacSystemFont,'SF Pro Display','SF Pro Text','Segoe UI',Roboto,system-ui,sans-serif" font-size="11" font-weight="400" fill="#9a93c6" text-anchor="start">erased by their refs</text><rect x="20.0" y="586.0" width="280.0" height="52.0" rx="0" fill="#0e0a26"/><rect x="20" y="586" width="280" height="1" fill="#302a60"/><rect x="50.68" y="602.56" width="8.64" height="6.4799999999999995" rx="2" fill="none" stroke="#7b5cff" stroke-width="1.22" stroke-linecap="round" stroke-linejoin="round"/><path d="M52.48 602.56 v-2.16 a2.52 2.52 0 0 1 5.04 0 v2.16" fill="none" stroke="#7b5cff" stroke-width="1.22" stroke-linecap="round" stroke-linejoin="round"/><circle cx="55.0" cy="605.8" r="0.864" fill="#7b5cff"/><text x="55.0" y="626.0" font-family="-apple-system,BlinkMacSystemFont,'SF Pro Display','SF Pro Text','Segoe UI',Roboto,system-ui,sans-serif" font-size="8.2" font-weight="600" fill="#7b5cff" text-anchor="middle">Privacy</text><path d="M125.0 598.24 l5.04 2.16 v3.5999999999999996 c0 3.5999999999999996 -2.16 5.04 -5.04 6.4799999999999995 c-2.88 -1.44 -5.04 -2.88 -5.04 -6.4799999999999995 v-3.5999999999999996 Z" fill="none" stroke="#6a6399" stroke-width="1.22" stroke-linecap="round" stroke-linejoin="round"/><text x="125.0" y="626.0" font-family="-apple-system,BlinkMacSystemFont,'SF Pro Display','SF Pro Text','Segoe UI',Roboto,system-ui,sans-serif" font-size="8.2" font-weight="600" fill="#6a6399" text-anchor="middle">Security</text><rect x="194.064" y="597.52" width="1.8719999999999999" height="2.88" rx="1" transform="rotate(0 195.0 604)" fill="#6a6399"/><rect x="194.064" y="597.52" width="1.8719999999999999" height="2.88" rx="1" transform="rotate(45 195.0 604)" fill="#6a6399"/><rect x="194.064" y="597.52" width="1.8719999999999999" height="2.88" rx="1" transform="rotate(90 195.0 604)" fill="#6a6399"/><rect x="194.064" y="597.52" width="1.8719999999999999" height="2.88" rx="1" transform="rotate(135 195.0 604)" fill="#6a6399"/><rect x="194.064" y="597.52" width="1.8719999999999999" height="2.88" rx="1" transform="rotate(180 195.0 604)" fill="#6a6399"/><rect x="194.064" y="597.52" width="1.8719999999999999" height="2.88" rx="1" transform="rotate(225 195.0 604)" fill="#6a6399"/><rect x="194.064" y="597.52" width="1.8719999999999999" height="2.88" rx="1" transform="rotate(270 195.0 604)" fill="#6a6399"/><rect x="194.064" y="597.52" width="1.8719999999999999" height="2.88" rx="1" transform="rotate(315 195.0 604)" fill="#6a6399"/><circle cx="195.0" cy="604" r="3.312" fill="none" stroke="#6a6399" stroke-width="1.22" stroke-linecap="round" stroke-linejoin="round"/><text x="195.0" y="626.0" font-family="-apple-system,BlinkMacSystemFont,'SF Pro Display','SF Pro Text','Segoe UI',Roboto,system-ui,sans-serif" font-size="8.2" font-weight="600" fill="#6a6399" text-anchor="middle">Settings</text><circle cx="265.0" cy="604" r="5.3999999999999995" fill="none" stroke="#6a6399" stroke-width="1.22" stroke-linecap="round" stroke-linejoin="round"/><circle cx="265.0" cy="601.48" r="0.648" fill="#6a6399"/><path d="M265.0 603.28 v3.2399999999999998" fill="none" stroke="#6a6399" stroke-width="1.22" stroke-linecap="round" stroke-linejoin="round"/><text x="265.0" y="626.0" font-family="-apple-system,BlinkMacSystemFont,'SF Pro Display','SF Pro Text','Segoe UI',Roboto,system-ui,sans-serif" font-size="8.2" font-weight="600" fill="#6a6399" text-anchor="middle">About</text><rect x="118.0" y="631.0" width="84.0" height="4.0" rx="2" fill="rgba(255,255,255,0.6)"/></svg>