<svg xmlns="http://www.w3.org/2000/svg" width="320" height="660" viewBox="0 0 320 660" role="img" aria-label="Persona Embedding screen"><defs>
      <linearGradient id="gScr" x1="0" y1="0" x2="0.6" y2="1">
        <stop offset="0" stop-color="#181235"/><stop offset="1" stop-color="#0c0920"/></linearGradient>
      <linearGradient id="gFrame" x1="0" y1="0" x2="1" y2="1">
        <stop offset="0" stop-color="#2a2352"/><stop offset="1" stop-color="#0a0818"/></linearGradient>
      <linearGradient id="gCard" x1="0" y1="0" x2="0.4" y2="1">
        <stop offset="0" stop-color="#201a48"/><stop offset="1" stop-color="#181240"/></linearGradient>
      <linearGradient id="gBrand" x1="0" y1="0" x2="1" y2="0">
        <stop offset="0" stop-color="#7b5cff"/><stop offset="1" stop-color="#9d7bff"/></linearGradient>
      <linearGradient id="gAmber" x1="0" y1="0" x2="1" y2="0">
        <stop offset="0" stop-color="#ffb84d"/><stop offset="1" stop-color="#ffd27a"/></linearGradient>
      <linearGradient id="mV" x1="0" y1="0" x2="1" y2="0"><stop offset="0" stop-color="#7b5cff"/><stop offset="1" stop-color="#9d7bff"/></linearGradient>
      <linearGradient id="mA" x1="0" y1="0" x2="1" y2="0"><stop offset="0" stop-color="#ffb84d"/><stop offset="1" stop-color="#ff9f45"/></linearGradient>
      <linearGradient id="mG" x1="0" y1="0" x2="1" y2="0"><stop offset="0" stop-color="#5fb87a"/><stop offset="1" stop-color="#7bc47f"/></linearGradient>
      <linearGradient id="mC" x1="0" y1="0" x2="1" y2="0"><stop offset="0" stop-color="#6bb6d6"/><stop offset="1" stop-color="#9fd8e8"/></linearGradient>
      <radialGradient id="orb" cx="36%" cy="30%" r="78%">
        <stop offset="0" stop-color="#d9ccff"/><stop offset="38%" stop-color="#7b5cff"/>
        <stop offset="78%" stop-color="#3f3bc0"/><stop offset="100%" stop-color="#140f34"/></radialGradient>
      <radialGradient id="glow" cx="50%" cy="50%" r="50%">
        <stop offset="0" stop-color="#7b5cff" stop-opacity="0.5"/><stop offset="1" stop-color="#7b5cff" stop-opacity="0"/></radialGradient>
    </defs><rect x="10.0" y="12.0" width="300.0" height="636.0" rx="40" fill="url(#gFrame)"/><rect x="20.0" y="22.0" width="280.0" height="616.0" rx="31" fill="url(#gScr)"/><rect x="126.0" y="26.0" width="68.0" height="17.0" rx="9" fill="#04030a"/><text x="34.0" y="56.0" font-family="-apple-system,BlinkMacSystemFont,'SF Pro Display','SF Pro Text','Segoe UI',Roboto,system-ui,sans-serif" font-size="11" font-weight="600" fill="#c7c9d9" text-anchor="start">9:41</text><text x="286.0" y="56.0" font-family="-apple-system,BlinkMacSystemFont,'SF Pro Display','SF Pro Text','Segoe UI',Roboto,system-ui,sans-serif" font-size="10" font-weight="700" fill="#7b5cff" text-anchor="end">● 37</text><text x="34.0" y="88.0" font-family="-apple-system,BlinkMacSystemFont,'SF Pro Display','SF Pro Text','Segoe UI',Roboto,system-ui,sans-serif" font-size="20" font-weight="700" fill="#f2effc" text-anchor="start" letter-spacing="-0.4">Persona Embedding</text><text x="34.0" y="106.0" font-family="-apple-system,BlinkMacSystemFont,'SF Pro Display','SF Pro Text','Segoe UI',Roboto,system-ui,sans-serif" font-size="11.5" font-weight="400" fill="#9a93c6" text-anchor="start">Latent state · Claims 21–23</text><text x="34.0" y="122.0" font-family="-apple-system,BlinkMacSystemFont,'SF Pro Display','SF Pro Text','Segoe UI',Roboto,system-ui,sans-serif" font-size="12" font-weight="600" fill="#f2effc" text-anchor="start">Engagement</text><text x="286.0" y="122.0" font-family="-apple-system,BlinkMacSystemFont,'SF Pro Display','SF Pro Text','Segoe UI',Roboto,system-ui,sans-serif" font-size="12" font-weight="750" fill="#7b5cff" text-anchor="end">0.82</text><rect x="34.0" y="130.0" width="252.0" height="7.0" rx="4" fill="#0d0a24" stroke="#302a60" stroke-width="1"/><rect x="34.0" y="130.0" width="206.6" height="7.0" rx="4" fill="#7b5cff"/><text x="34.0" y="152.0" font-family="-apple-system,BlinkMacSystemFont,'SF Pro Display','SF Pro Text','Segoe UI',Roboto,system-ui,sans-serif" font-size="12" font-weight="600" fill="#f2effc" text-anchor="start">Warmth</text><text x="286.0" y="152.0" font-family="-apple-system,BlinkMacSystemFont,'SF Pro Display','SF Pro Text','Segoe UI',Roboto,system-ui,sans-serif" font-size="12" font-weight="750" fill="#ffb84d" text-anchor="end">0.74</text><rect x="34.0" y="160.0" width="252.0" height="7.0" rx="4" fill="#0d0a24" stroke="#302a60" stroke-width="1"/><rect x="34.0" y="160.0" width="186.5" height="7.0" rx="4" fill="#ffb84d"/><text x="34.0" y="182.0" font-family="-apple-system,BlinkMacSystemFont,'SF Pro Display','SF Pro Text','Segoe UI',Roboto,system-ui,sans-serif" font-size="12" font-weight="600" fill="#f2effc" text-anchor="start">Depth</text><text x="286.0" y="182.0" font-family="-apple-system,BlinkMacSystemFont,'SF Pro Display','SF Pro Text','Segoe UI',Roboto,system-ui,sans-serif" font-size="12" font-weight="750" fill="#9fd8e8" text-anchor="end">0.60</text><rect x="34.0" y="190.0" width="252.0" height="7.0" rx="4" fill="#0d0a24" stroke="#302a60" stroke-width="1"/><rect x="34.0" y="190.0" width="151.2" height="7.0" rx="4" fill="#9fd8e8"/><text x="34.0" y="212.0" font-family="-apple-system,BlinkMacSystemFont,'SF Pro Display','SF Pro Text','Segoe UI',Roboto,system-ui,sans-serif" font-size="12" font-weight="600" fill="#f2effc" text-anchor="start">Positivity</text><text x="286.0" y="212.0" font-family="-apple-system,BlinkMacSystemFont,'SF Pro Display','SF Pro Text','Segoe UI',Roboto,system-ui,sans-serif" font-size="12" font-weight="750" fill="#7bc47f" text-anchor="end">0.70</text><rect x="34.0" y="220.0" width="252.0" height="7.0" rx="4" fill="#0d0a24" stroke="#302a60" stroke-width="1"/><rect x="34.0" y="220.0" width="176.4" height="7.0" rx="4" fill="#7bc47f"/><text x="34.0" y="242.0" font-family="-apple-system,BlinkMacSystemFont,'SF Pro Display','SF Pro Text','Segoe UI',Roboto,system-ui,sans-serif" font-size="12" font-weight="600" fill="#f2effc" text-anchor="start">Stress</text><text x="286.0" y="242.0" font-family="-apple-system,BlinkMacSystemFont,'SF Pro Display','SF Pro Text','Segoe UI',Roboto,system-ui,sans-serif" font-size="12" font-weight="750" fill="#e0687a" text-anchor="end">0.35</text><rect x="34.0" y="250.0" width="252.0" height="7.0" rx="4" fill="#0d0a24" stroke="#302a60" stroke-width="1"/><rect x="34.0" y="250.0" width="88.2" height="7.0" rx="4" fill="#e0687a"/><text x="34.0" y="272.0" font-family="-apple-system,BlinkMacSystemFont,'SF Pro Display','SF Pro Text','Segoe UI',Roboto,system-ui,sans-serif" font-size="12" font-weight="600" fill="#f2effc" text-anchor="start">Continuity</text><text x="286.0" y="272.0" font-family="-apple-system,BlinkMacSystemFont,'SF Pro Display','SF Pro Text','Segoe UI',Roboto,system-ui,sans-serif" font-size="12" font-weight="750" fill="#e78bd0" text-anchor="end">0.90</text><rect x="34.0" y="280.0" width="252.0" height="7.0" rx="4" fill="#0d0a24" stroke="#302a60" stroke-width="1"/><rect x="34.0" y="280.0" width="226.8" height="7.0" rx="4" fill="#e78bd0"/><rect x="34.0" y="306.0" width="252.0" height="50.0" rx="14" fill="rgba(123,92,255,0.08)" stroke="#7b5cff" stroke-width="1"/><path d="M59.8 323.8 L52.6 331.9 L58 331.9 L56.2 338.2 L63.4 330.1 L58 330.1 Z" fill="#7b5cff"/><text x="80.0" y="328.0" font-family="-apple-system,BlinkMacSystemFont,'SF Pro Display','SF Pro Text','Segoe UI',Roboto,system-ui,sans-serif" font-size="11" font-weight="600" fill="#f2effc" text-anchor="start">EMA-updated every interaction</text><text x="80.0" y="343.0" font-family="-apple-system,BlinkMacSystemFont,'SF Pro Display','SF Pro Text','Segoe UI',Roboto,system-ui,sans-serif" font-size="9.5" font-weight="400" fill="#9a93c6" text-anchor="start">versioned · conditions attention weighting</text><rect x="20.0" y="586.0" width="280.0" height="52.0" rx="0" fill="#0e0a26"/><rect x="20" y="586" width="280" height="1" fill="#302a60"/><circle cx="55.0" cy="604" r="5.3999999999999995" fill="none" stroke="#6a6399" stroke-width="1.22" stroke-linecap="round" stroke-linejoin="round"/><circle cx="55.0" cy="604" r="2.52" fill="none" stroke="#6a6399" stroke-width="1.22" stroke-linecap="round" stroke-linejoin="round"/><circle cx="55.0" cy="604" r="0.648" fill="#6a6399"/><text x="55.0" y="626.0" font-family="-apple-system,BlinkMacSystemFont,'SF Pro Display','SF Pro Text','Segoe UI',Roboto,system-ui,sans-serif" font-size="8.2" font-weight="600" fill="#6a6399" text-anchor="middle">Home</text><circle cx="122.12" cy="601.12" r="2.16" fill="none" stroke="#6a6399" stroke-width="1.22" stroke-linecap="round" stroke-linejoin="round"/><circle cx="127.88" cy="601.12" r="2.16" fill="none" stroke="#6a6399" stroke-width="1.22" stroke-linecap="round" stroke-linejoin="round"/><path d="M118.52 608.32 c0 -3.5999999999999996 4.32 -3.5999999999999996 4.32 0 M124.28 608.32 c0 -3.5999999999999996 5.04 -3.5999999999999996 6.4799999999999995 -0.72" fill="none" stroke="#6a6399" stroke-width="1.22" stroke-linecap="round" stroke-linejoin="round"/><text x="125.0" y="626.0" font-family="-apple-system,BlinkMacSystemFont,'SF Pro Display','SF Pro Text','Segoe UI',Roboto,system-ui,sans-serif" font-size="8.2" font-weight="600" fill="#6a6399" text-anchor="middle">Relationships</text><rect x="189.96" y="604.72" width="2.304" height="3.5999999999999996" rx="1" fill="#7b5cff"/><rect x="193.56" y="601.84" width="2.304" height="6.4799999999999995" rx="1" fill="#7b5cff"/><rect x="197.16" y="605.44" width="2.304" height="2.88" rx="1" fill="#7b5cff"/><rect x="200.76000000000002" y="600.4000000000001" width="2.304" height="7.92" rx="1" fill="#7b5cff"/><text x="195.0" y="626.0" font-family="-apple-system,BlinkMacSystemFont,'SF Pro Display','SF Pro Text','Segoe UI',Roboto,system-ui,sans-serif" font-size="8.2" font-weight="600" fill="#7b5cff" text-anchor="middle">Stats</text><rect x="264.064" y="597.52" width="1.8719999999999999" height="2.88" rx="1" transform="rotate(0 265.0 604)" fill="#6a6399"/><rect x="264.064" y="597.52" width="1.8719999999999999" height="2.88" rx="1" transform="rotate(45 265.0 604)" fill="#6a6399"/><rect x="264.064" y="597.52" width="1.8719999999999999" height="2.88" rx="1" transform="rotate(90 265.0 604)" fill="#6a6399"/><rect x="264.064" y="597.52" width="1.8719999999999999" height="2.88" rx="1" transform="rotate(135 265.0 604)" fill="#6a6399"/><rect x="264.064" y="597.52" width="1.8719999999999999" height="2.88" rx="1" transform="rotate(180 265.0 604)" fill="#6a6399"/><rect x="264.064" y="597.52" width="1.8719999999999999" height="2.88" rx="1" transform="rotate(225 265.0 604)" fill="#6a6399"/><rect x="264.064" y="597.52" width="1.8719999999999999" height="2.88" rx="1" transform="rotate(270 265.0 604)" fill="#6a6399"/><rect x="264.064" y="597.52" width="1.8719999999999999" height="2.88" rx="1" transform="rotate(315 265.0 604)" fill="#6a6399"/><circle cx="265.0" cy="604" r="3.312" fill="none" stroke="#6a6399" stroke-width="1.22" stroke-linecap="round" stroke-linejoin="round"/><text x="265.0" y="626.0" font-family="-apple-system,BlinkMacSystemFont,'SF Pro Display','SF Pro Text','Segoe UI',Roboto,system-ui,sans-serif" font-size="8.2" font-weight="600" fill="#6a6399" text-anchor="middle">More</text></svg>