<svg xmlns="http://www.w3.org/2000/svg" width="320" height="660" viewBox="0 0 320 660" role="img" aria-label="Verify Identity screen"><defs>
      <linearGradient id="gScr" x1="0" y1="0" x2="0.6" y2="1">
        <stop offset="0" stop-color="#181235"/><stop offset="1" stop-color="#0c0920"/></linearGradient>
      <linearGradient id="gFrame" x1="0" y1="0" x2="1" y2="1">
        <stop offset="0" stop-color="#2a2352"/><stop offset="1" stop-color="#0a0818"/></linearGradient>
      <linearGradient id="gCard" x1="0" y1="0" x2="0.4" y2="1">
        <stop offset="0" stop-color="#201a48"/><stop offset="1" stop-color="#181240"/></linearGradient>
      <linearGradient id="gBrand" x1="0" y1="0" x2="1" y2="0">
        <stop offset="0" stop-color="#7b5cff"/><stop offset="1" stop-color="#9d7bff"/></linearGradient>
      <linearGradient id="gAmber" x1="0" y1="0" x2="1" y2="0">
        <stop offset="0" stop-color="#ffb84d"/><stop offset="1" stop-color="#ffd27a"/></linearGradient>
      <linearGradient id="mV" x1="0" y1="0" x2="1" y2="0"><stop offset="0" stop-color="#7b5cff"/><stop offset="1" stop-color="#9d7bff"/></linearGradient>
      <linearGradient id="mA" x1="0" y1="0" x2="1" y2="0"><stop offset="0" stop-color="#ffb84d"/><stop offset="1" stop-color="#ff9f45"/></linearGradient>
      <linearGradient id="mG" x1="0" y1="0" x2="1" y2="0"><stop offset="0" stop-color="#5fb87a"/><stop offset="1" stop-color="#7bc47f"/></linearGradient>
      <linearGradient id="mC" x1="0" y1="0" x2="1" y2="0"><stop offset="0" stop-color="#6bb6d6"/><stop offset="1" stop-color="#9fd8e8"/></linearGradient>
      <radialGradient id="orb" cx="36%" cy="30%" r="78%">
        <stop offset="0" stop-color="#d9ccff"/><stop offset="38%" stop-color="#7b5cff"/>
        <stop offset="78%" stop-color="#3f3bc0"/><stop offset="100%" stop-color="#140f34"/></radialGradient>
      <radialGradient id="glow" cx="50%" cy="50%" r="50%">
        <stop offset="0" stop-color="#7b5cff" stop-opacity="0.5"/><stop offset="1" stop-color="#7b5cff" stop-opacity="0"/></radialGradient>
    </defs><rect x="10.0" y="12.0" width="300.0" height="636.0" rx="40" fill="url(#gFrame)"/><rect x="20.0" y="22.0" width="280.0" height="616.0" rx="31" fill="url(#gScr)"/><rect x="130.0" y="27.0" width="60.0" height="15.0" rx="7.5" fill="#05070d"/><text x="34.0" y="56.0" font-family="-apple-system,BlinkMacSystemFont,'SF Pro Display','SF Pro Text','Segoe UI',Roboto,system-ui,sans-serif" font-size="11" font-weight="600" fill="#c7c9d9" text-anchor="start">9:41</text><rect x="264.0" y="50.0" width="20.0" height="11.0" rx="3" fill="none" stroke="#c7c9d9" stroke-width="1.1"/><rect x="266.0" y="52.0" width="14.0" height="7.0" rx="2" fill="#c7c9d9"/><rect x="284.6" y="53.5" width="2.0" height="5.0" rx="1" fill="#c7c9d9"/><path d="M251 55 a6 6 0 0 1 11 0" fill="none" stroke="#c7c9d9" stroke-width="1.3"/><circle cx="256.5" cy="59" r="1.2" fill="#c7c9d9"/><rect x="234.0" y="58.1" width="2.6" height="1.9" rx="0.8" fill="#c7c9d9"/><rect x="238.0" y="56.2" width="2.6" height="3.8" rx="0.8" fill="#c7c9d9"/><rect x="242.0" y="54.3" width="2.6" height="5.7" rx="0.8" fill="#c7c9d9"/><rect x="246.0" y="52.4" width="2.6" height="7.6" rx="0.8" fill="#c7c9d9"/><text x="34.0" y="88.0" font-family="-apple-system,BlinkMacSystemFont,'SF Pro Display','SF Pro Text','Segoe UI',Roboto,system-ui,sans-serif" font-size="20" font-weight="700" fill="#f2effc" text-anchor="start" letter-spacing="-0.4">Verify Identity</text><text x="34.0" y="106.0" font-family="-apple-system,BlinkMacSystemFont,'SF Pro Display','SF Pro Text','Segoe UI',Roboto,system-ui,sans-serif" font-size="11.5" font-weight="400" fill="#9a93c6" text-anchor="start">Real person, once</text><circle cx="160.0" cy="158" r="42.0" fill="url(#glow)"/><circle cx="160.0" cy="158" r="28" fill="url(#orb)"/><circle cx="160.0" cy="158" r="28" fill="none" stroke="rgba(255,255,255,0.20)" stroke-width="1"/><ellipse cx="152.2" cy="148.5" rx="8.4" ry="5.0" fill="rgba(255,255,255,0.40)"/><path d="M152.2 158.6 c0 -9.1 3.9000000000000004 -11.700000000000001 7.800000000000001 -11.700000000000001 c3.9000000000000004 0 7.800000000000001 2.6 7.800000000000001 9.1" fill="none" stroke="rgba(255,255,255,0.92)" stroke-width="2.21" stroke-linecap="round" stroke-linejoin="round"/><path d="M156.1 161.2 c0 -7.800000000000001 2.6 -9.1 3.9000000000000004 -9.1 c2.6 0 3.9000000000000004 2.6 3.9000000000000004 6.5" fill="none" stroke="rgba(255,255,255,0.92)" stroke-width="2.21" stroke-linecap="round" stroke-linejoin="round"/><path d="M160.0 163.8 v-7.800000000000001" fill="none" stroke="rgba(255,255,255,0.92)" stroke-width="2.21" stroke-linecap="round" stroke-linejoin="round"/><text x="160.0" y="200.0" font-family="-apple-system,BlinkMacSystemFont,'SF Pro Display','SF Pro Text','Segoe UI',Roboto,system-ui,sans-serif" font-size="16" font-weight="750" fill="#fff" text-anchor="middle" letter-spacing="-0.3">Verify it&#x27;s really you</text><text x="160.0" y="219.0" font-family="-apple-system,BlinkMacSystemFont,'SF Pro Display','SF Pro Text','Segoe UI',Roboto,system-ui,sans-serif" font-size="10.5" font-weight="400" fill="#9a93c6" text-anchor="middle">Just once — it protects you and the people</text><text x="160.0" y="233.0" font-family="-apple-system,BlinkMacSystemFont,'SF Pro Display','SF Pro Text','Segoe UI',Roboto,system-ui,sans-serif" font-size="10.5" font-weight="400" fill="#9a93c6" text-anchor="middle">who appear in your profiles.</text><rect x="121.0" y="252.0" width="78.0" height="78.0" rx="18" fill="rgba(123,92,255,0.06)" stroke="#7b5cff" stroke-width="1"/><path d="M133.0 277 L133.0 264 L146.0 264" fill="none" stroke="#7b5cff" stroke-width="2" stroke-linecap="round"/><path d="M187.0 277 L187.0 264 L174.0 264" fill="none" stroke="#7b5cff" stroke-width="2" stroke-linecap="round"/><path d="M133.0 305 L133.0 318 L146.0 318" fill="none" stroke="#7b5cff" stroke-width="2" stroke-linecap="round"/><path d="M187.0 305 L187.0 318 L174.0 318" fill="none" stroke="#7b5cff" stroke-width="2" stroke-linecap="round"/><circle cx="160.0" cy="284.2" r="6.12" fill="none" stroke="#7b5cff" stroke-width="2.89" stroke-linecap="round" stroke-linejoin="round"/><path d="M149.8 302.9 c0 -10.2 20.4 -10.2 20.4 0" fill="none" stroke="#7b5cff" stroke-width="2.89" stroke-linecap="round" stroke-linejoin="round"/><rect x="34.0" y="344.0" width="252.0" height="50.0" rx="14" fill="url(#gCard)" stroke="#302a60" stroke-width="1"/><rect x="44.0" y="352.0" width="34.0" height="34.0" rx="11" fill="rgba(123,196,127,0.16)"/><path d="M61 361.64 l6.44 2.7600000000000002 v4.6000000000000005 c0 4.6000000000000005 -2.7600000000000002 6.44 -6.44 8.280000000000001 c-3.68 -1.84 -6.44 -3.68 -6.44 -8.280000000000001 v-4.6000000000000005 Z" fill="none" stroke="#7bc47f" stroke-width="1.56" stroke-linecap="round" stroke-linejoin="round"/><path d="M58.24 369 l1.84 2.208 3.68 -4.140000000000001" fill="none" stroke="#7bc47f" stroke-width="1.56" stroke-linecap="round" stroke-linejoin="round"/><text x="88.0" y="365.0" font-family="-apple-system,BlinkMacSystemFont,'SF Pro Display','SF Pro Text','Segoe UI',Roboto,system-ui,sans-serif" font-size="12.5" font-weight="650" fill="#f2effc" text-anchor="start">Age 18+ confirmed</text><text x="88.0" y="380.0" font-family="-apple-system,BlinkMacSystemFont,'SF Pro Display','SF Pro Text','Segoe UI',Roboto,system-ui,sans-serif" font-size="10" font-weight="400" fill="#9a93c6" text-anchor="start">unlocks adult profiles</text><rect x="210.4" y="358.0" width="61.6" height="17.0" rx="8" fill="rgba(123,196,127,0.16)"/><text x="241.2" y="370.0" font-family="-apple-system,BlinkMacSystemFont,'SF Pro Display','SF Pro Text','Segoe UI',Roboto,system-ui,sans-serif" font-size="9.5" font-weight="700" fill="#7bc47f" text-anchor="middle" letter-spacing="0.4">VERIFIED</text><rect x="34.0" y="402.0" width="252.0" height="50.0" rx="14" fill="url(#gCard)" stroke="#302a60" stroke-width="1"/><rect x="44.0" y="410.0" width="34.0" height="34.0" rx="11" fill="rgba(123,92,255,0.16)"/><path d="M55.48 428.84 c0 -6.44 2.7600000000000002 -8.280000000000001 5.5200000000000005 -8.280000000000001 c2.7600000000000002 0 5.5200000000000005 1.84 5.5200000000000005 6.44" fill="none" stroke="#7b5cff" stroke-width="1.56" stroke-linecap="round" stroke-linejoin="round"/><path d="M58.24 430.68 c0 -5.5200000000000005 1.84 -6.44 2.7600000000000002 -6.44 c1.84 0 2.7600000000000002 1.84 2.7600000000000002 4.6000000000000005" fill="none" stroke="#7b5cff" stroke-width="1.56" stroke-linecap="round" stroke-linejoin="round"/><path d="M61 432.52 v-5.5200000000000005" fill="none" stroke="#7b5cff" stroke-width="1.56" stroke-linecap="round" stroke-linejoin="round"/><text x="88.0" y="423.0" font-family="-apple-system,BlinkMacSystemFont,'SF Pro Display','SF Pro Text','Segoe UI',Roboto,system-ui,sans-serif" font-size="12.5" font-weight="650" fill="#f2effc" text-anchor="start">Face ID liveness</text><text x="88.0" y="438.0" font-family="-apple-system,BlinkMacSystemFont,'SF Pro Display','SF Pro Text','Segoe UI',Roboto,system-ui,sans-serif" font-size="10" font-weight="400" fill="#9a93c6" text-anchor="start">a real, present person</text><rect x="222.8" y="416.0" width="49.2" height="17.0" rx="8" fill="rgba(123,196,127,0.16)"/><text x="247.4" y="428.0" font-family="-apple-system,BlinkMacSystemFont,'SF Pro Display','SF Pro Text','Segoe UI',Roboto,system-ui,sans-serif" font-size="9.5" font-weight="700" fill="#7bc47f" text-anchor="middle" letter-spacing="0.4">PASSED</text><rect x="34.0" y="460.0" width="252.0" height="50.0" rx="14" fill="url(#gCard)" stroke="#302a60" stroke-width="1"/><rect x="44.0" y="468.0" width="34.0" height="34.0" rx="11" fill="rgba(159,216,232,0.16)"/><path d="M55.48 477.64 h7.36 l3.68 3.68 v11.040000000000001 h-11.040000000000001 Z" fill="none" stroke="#9fd8e8" stroke-width="1.56" stroke-linecap="round" stroke-linejoin="round"/><path d="M58.24 484.08 h5.5200000000000005 M58.24 487.76 h5.5200000000000005" fill="none" stroke="#9fd8e8" stroke-width="1.56" stroke-linecap="round" stroke-linejoin="round"/><text x="88.0" y="481.0" font-family="-apple-system,BlinkMacSystemFont,'SF Pro Display','SF Pro Text','Segoe UI',Roboto,system-ui,sans-serif" font-size="12.5" font-weight="650" fill="#f2effc" text-anchor="start">Government ID</text><text x="88.0" y="496.0" font-family="-apple-system,BlinkMacSystemFont,'SF Pro Display','SF Pro Text','Segoe UI',Roboto,system-ui,sans-serif" font-size="10" font-weight="400" fill="#9a93c6" text-anchor="start">unlocks third-party use</text><rect x="210.4" y="474.0" width="61.6" height="17.0" rx="8" fill="rgba(159,216,232,0.16)"/><text x="241.2" y="486.0" font-family="-apple-system,BlinkMacSystemFont,'SF Pro Display','SF Pro Text','Segoe UI',Roboto,system-ui,sans-serif" font-size="9.5" font-weight="700" fill="#9fd8e8" text-anchor="middle" letter-spacing="0.4">OPTIONAL</text><rect x="34.0" y="520.0" width="252.0" height="44.0" rx="13" fill="url(#gBrand)"/><text x="160.0" y="546.5" font-family="-apple-system,BlinkMacSystemFont,'SF Pro Display','SF Pro Text','Segoe UI',Roboto,system-ui,sans-serif" font-size="13" font-weight="700" fill="#fff" text-anchor="middle">Continue</text><rect x="20.0" y="586.0" width="280.0" height="52.0" rx="0" fill="#0e0a26"/><rect x="20" y="586" width="280" height="1" fill="#302a60"/><circle cx="55.0" cy="604" r="5.3999999999999995" fill="none" stroke="#7b5cff" stroke-width="1.22" stroke-linecap="round" stroke-linejoin="round"/><circle cx="55.0" cy="604" r="2.52" fill="none" stroke="#7b5cff" stroke-width="1.22" stroke-linecap="round" stroke-linejoin="round"/><circle cx="55.0" cy="604" r="0.648" fill="#7b5cff"/><text x="55.0" y="626.0" font-family="-apple-system,BlinkMacSystemFont,'SF Pro Display','SF Pro Text','Segoe UI',Roboto,system-ui,sans-serif" font-size="8.2" font-weight="600" fill="#7b5cff" text-anchor="middle">Home</text><circle cx="122.12" cy="601.12" r="2.16" fill="none" stroke="#6a6399" stroke-width="1.22" stroke-linecap="round" stroke-linejoin="round"/><circle cx="127.88" cy="601.12" r="2.16" fill="none" stroke="#6a6399" stroke-width="1.22" stroke-linecap="round" stroke-linejoin="round"/><path d="M118.52 608.32 c0 -3.5999999999999996 4.32 -3.5999999999999996 4.32 0 M124.28 608.32 c0 -3.5999999999999996 5.04 -3.5999999999999996 6.4799999999999995 -0.72" fill="none" stroke="#6a6399" stroke-width="1.22" stroke-linecap="round" stroke-linejoin="round"/><text x="125.0" y="626.0" font-family="-apple-system,BlinkMacSystemFont,'SF Pro Display','SF Pro Text','Segoe UI',Roboto,system-ui,sans-serif" font-size="8.2" font-weight="600" fill="#6a6399" text-anchor="middle">Relationships</text><rect x="189.96" y="604.72" width="2.304" height="3.5999999999999996" rx="1" fill="#6a6399"/><rect x="193.56" y="601.84" width="2.304" height="6.4799999999999995" rx="1" fill="#6a6399"/><rect x="197.16" y="605.44" width="2.304" height="2.88" rx="1" fill="#6a6399"/><rect x="200.76000000000002" y="600.4000000000001" width="2.304" height="7.92" rx="1" fill="#6a6399"/><text x="195.0" y="626.0" font-family="-apple-system,BlinkMacSystemFont,'SF Pro Display','SF Pro Text','Segoe UI',Roboto,system-ui,sans-serif" font-size="8.2" font-weight="600" fill="#6a6399" text-anchor="middle">Stats</text><rect x="264.064" y="597.52" width="1.8719999999999999" height="2.88" rx="1" transform="rotate(0 265.0 604)" fill="#6a6399"/><rect x="264.064" y="597.52" width="1.8719999999999999" height="2.88" rx="1" transform="rotate(45 265.0 604)" fill="#6a6399"/><rect x="264.064" y="597.52" width="1.8719999999999999" height="2.88" rx="1" transform="rotate(90 265.0 604)" fill="#6a6399"/><rect x="264.064" y="597.52" width="1.8719999999999999" height="2.88" rx="1" transform="rotate(135 265.0 604)" fill="#6a6399"/><rect x="264.064" y="597.52" width="1.8719999999999999" height="2.88" rx="1" transform="rotate(180 265.0 604)" fill="#6a6399"/><rect x="264.064" y="597.52" width="1.8719999999999999" height="2.88" rx="1" transform="rotate(225 265.0 604)" fill="#6a6399"/><rect x="264.064" y="597.52" width="1.8719999999999999" height="2.88" rx="1" transform="rotate(270 265.0 604)" fill="#6a6399"/><rect x="264.064" y="597.52" width="1.8719999999999999" height="2.88" rx="1" transform="rotate(315 265.0 604)" fill="#6a6399"/><circle cx="265.0" cy="604" r="3.312" fill="none" stroke="#6a6399" stroke-width="1.22" stroke-linecap="round" stroke-linejoin="round"/><text x="265.0" y="626.0" font-family="-apple-system,BlinkMacSystemFont,'SF Pro Display','SF Pro Text','Segoe UI',Roboto,system-ui,sans-serif" font-size="8.2" font-weight="600" fill="#6a6399" text-anchor="middle">More</text><rect x="118.0" y="631.0" width="84.0" height="4.0" rx="2" fill="rgba(255,255,255,0.6)"/></svg>