<svg xmlns="http://www.w3.org/2000/svg" width="320" height="660" viewBox="0 0 320 660" role="img" aria-label="All Set screen"><defs>
      <linearGradient id="gScr" x1="0" y1="0" x2="0.6" y2="1">
        <stop offset="0" stop-color="#181235"/><stop offset="1" stop-color="#0c0920"/></linearGradient>
      <linearGradient id="gFrame" x1="0" y1="0" x2="1" y2="1">
        <stop offset="0" stop-color="#2a2352"/><stop offset="1" stop-color="#0a0818"/></linearGradient>
      <linearGradient id="gCard" x1="0" y1="0" x2="0.4" y2="1">
        <stop offset="0" stop-color="#201a48"/><stop offset="1" stop-color="#181240"/></linearGradient>
      <linearGradient id="gBrand" x1="0" y1="0" x2="1" y2="0">
        <stop offset="0" stop-color="#7b5cff"/><stop offset="1" stop-color="#9d7bff"/></linearGradient>
      <linearGradient id="gAmber" x1="0" y1="0" x2="1" y2="0">
        <stop offset="0" stop-color="#ffb84d"/><stop offset="1" stop-color="#ffd27a"/></linearGradient>
      <linearGradient id="mV" x1="0" y1="0" x2="1" y2="0"><stop offset="0" stop-color="#7b5cff"/><stop offset="1" stop-color="#9d7bff"/></linearGradient>
      <linearGradient id="mA" x1="0" y1="0" x2="1" y2="0"><stop offset="0" stop-color="#ffb84d"/><stop offset="1" stop-color="#ff9f45"/></linearGradient>
      <linearGradient id="mG" x1="0" y1="0" x2="1" y2="0"><stop offset="0" stop-color="#5fb87a"/><stop offset="1" stop-color="#7bc47f"/></linearGradient>
      <linearGradient id="mC" x1="0" y1="0" x2="1" y2="0"><stop offset="0" stop-color="#6bb6d6"/><stop offset="1" stop-color="#9fd8e8"/></linearGradient>
      <radialGradient id="orb" cx="36%" cy="30%" r="78%">
        <stop offset="0" stop-color="#d9ccff"/><stop offset="38%" stop-color="#7b5cff"/>
        <stop offset="78%" stop-color="#3f3bc0"/><stop offset="100%" stop-color="#140f34"/></radialGradient>
      <radialGradient id="glow" cx="50%" cy="50%" r="50%">
        <stop offset="0" stop-color="#7bc47f" stop-opacity="0.5"/><stop offset="1" stop-color="#7bc47f" stop-opacity="0"/></radialGradient>
    </defs><rect x="10.0" y="12.0" width="300.0" height="636.0" rx="40" fill="url(#gFrame)"/><rect x="20.0" y="22.0" width="280.0" height="616.0" rx="31" fill="url(#gScr)"/><rect x="130.0" y="27.0" width="60.0" height="15.0" rx="7.5" fill="#05070d"/><text x="34.0" y="56.0" font-family="-apple-system,BlinkMacSystemFont,'SF Pro Display','SF Pro Text','Segoe UI',Roboto,system-ui,sans-serif" font-size="11" font-weight="600" fill="#c7c9d9" text-anchor="start">9:41</text><rect x="264.0" y="50.0" width="20.0" height="11.0" rx="3" fill="none" stroke="#c7c9d9" stroke-width="1.1"/><rect x="266.0" y="52.0" width="14.0" height="7.0" rx="2" fill="#c7c9d9"/><rect x="284.6" y="53.5" width="2.0" height="5.0" rx="1" fill="#c7c9d9"/><path d="M251 55 a6 6 0 0 1 11 0" fill="none" stroke="#c7c9d9" stroke-width="1.3"/><circle cx="256.5" cy="59" r="1.2" fill="#c7c9d9"/><rect x="234.0" y="58.1" width="2.6" height="1.9" rx="0.8" fill="#c7c9d9"/><rect x="238.0" y="56.2" width="2.6" height="3.8" rx="0.8" fill="#c7c9d9"/><rect x="242.0" y="54.3" width="2.6" height="5.7" rx="0.8" fill="#c7c9d9"/><rect x="246.0" y="52.4" width="2.6" height="7.6" rx="0.8" fill="#c7c9d9"/><text x="34.0" y="88.0" font-family="-apple-system,BlinkMacSystemFont,'SF Pro Display','SF Pro Text','Segoe UI',Roboto,system-ui,sans-serif" font-size="20" font-weight="700" fill="#f2effc" text-anchor="start" letter-spacing="-0.4">All Set</text><text x="34.0" y="106.0" font-family="-apple-system,BlinkMacSystemFont,'SF Pro Display','SF Pro Text','Segoe UI',Roboto,system-ui,sans-serif" font-size="11.5" font-weight="400" fill="#9a93c6" text-anchor="start">Onboarding complete</text><circle cx="160.0" cy="162" r="51.0" fill="url(#glow)"/><circle cx="160.0" cy="162" r="34" fill="url(#orb)"/><circle cx="160.0" cy="162" r="34" fill="none" stroke="rgba(255,255,255,0.20)" stroke-width="1"/><ellipse cx="150.5" cy="150.4" rx="10.2" ry="6.1" fill="rgba(255,255,255,0.40)"/><path d="M149.0 162 l7 8 14 -16" fill="none" stroke="#fff" stroke-width="3.4" stroke-linecap="round" stroke-linejoin="round"/><text x="160.0" y="222.0" font-family="-apple-system,BlinkMacSystemFont,'SF Pro Display','SF Pro Text','Segoe UI',Roboto,system-ui,sans-serif" font-size="18" font-weight="750" fill="#fff" text-anchor="middle" letter-spacing="-0.3">You&#x27;re all set</text><text x="160.0" y="243.0" font-family="-apple-system,BlinkMacSystemFont,'SF Pro Display','SF Pro Text','Segoe UI',Roboto,system-ui,sans-serif" font-size="11" font-weight="400" fill="#9a93c6" text-anchor="middle">Ava is ready to meet the world.</text><rect x="34.0" y="266.0" width="252.0" height="48.0" rx="16" fill="url(#gCard)" stroke="#302a60" stroke-width="1"/><rect x="46.0" y="273.0" width="34.0" height="34.0" rx="11" fill="rgba(123,92,255,0.16)"/><circle cx="63" cy="286.32" r="3.3120000000000003" fill="none" stroke="#7b5cff" stroke-width="1.56" stroke-linecap="round" stroke-linejoin="round"/><path d="M57.48 296.44 c0 -5.5200000000000005 11.040000000000001 -5.5200000000000005 11.040000000000001 0" fill="none" stroke="#7b5cff" stroke-width="1.56" stroke-linecap="round" stroke-linejoin="round"/><text x="90.0" y="284.0" font-family="-apple-system,BlinkMacSystemFont,'SF Pro Display','SF Pro Text','Segoe UI',Roboto,system-ui,sans-serif" font-size="13" font-weight="600" fill="#f2effc" text-anchor="start">Profile created</text><text x="90.0" y="299.0" font-family="-apple-system,BlinkMacSystemFont,'SF Pro Display','SF Pro Text','Segoe UI',Roboto,system-ui,sans-serif" font-size="11" font-weight="400" fill="#9a93c6" text-anchor="start">Ava · AI version of you</text><rect x="34.0" y="324.0" width="252.0" height="48.0" rx="16" fill="url(#gCard)" stroke="#302a60" stroke-width="1"/><rect x="46.0" y="331.0" width="34.0" height="34.0" rx="11" fill="rgba(159,216,232,0.16)"/><ellipse cx="63" cy="343.4" rx="6.44" ry="2.3920000000000003" fill="none" stroke="#9fd8e8" stroke-width="1.56" stroke-linecap="round" stroke-linejoin="round"/><path d="M56.56 343.4 v9.200000000000001 c0 1.3800000000000001 2.7600000000000002 2.3920000000000003 6.44 2.3920000000000003 s6.44 -1.0120000000000002 6.44 -2.3920000000000003 v-9.200000000000001 M56.56 348.0 c0 1.3800000000000001 2.7600000000000002 2.3920000000000003 6.44 2.3920000000000003 s6.44 -1.0120000000000002 6.44 -2.3920000000000003" fill="none" stroke="#9fd8e8" stroke-width="1.56" stroke-linecap="round" stroke-linejoin="round"/><text x="90.0" y="342.0" font-family="-apple-system,BlinkMacSystemFont,'SF Pro Display','SF Pro Text','Segoe UI',Roboto,system-ui,sans-serif" font-size="13" font-weight="600" fill="#f2effc" text-anchor="start">Sources added</text><text x="90.0" y="357.0" font-family="-apple-system,BlinkMacSystemFont,'SF Pro Display','SF Pro Text','Segoe UI',Roboto,system-ui,sans-serif" font-size="11" font-weight="400" fill="#9a93c6" text-anchor="start">1,024 memories sealed in your vault</text><rect x="34.0" y="382.0" width="252.0" height="48.0" rx="16" fill="url(#gCard)" stroke="#302a60" stroke-width="1"/><rect x="46.0" y="389.0" width="34.0" height="34.0" rx="11" fill="rgba(255,184,77,0.16)"/><path d="M56.56 401.4 h12.88 M56.56 406.0 h12.88 M56.56 410.6 h12.88" fill="none" stroke="#ffb84d" stroke-width="1.56" stroke-linecap="round" stroke-linejoin="round"/><circle cx="64.84" cy="401.4" r="1.84" fill="#ffb84d"/><circle cx="60.24" cy="406.0" r="1.84" fill="#ffb84d"/><circle cx="66.68" cy="410.6" r="1.84" fill="#ffb84d"/><text x="90.0" y="400.0" font-family="-apple-system,BlinkMacSystemFont,'SF Pro Display','SF Pro Text','Segoe UI',Roboto,system-ui,sans-serif" font-size="13" font-weight="600" fill="#f2effc" text-anchor="start">Personality set</text><text x="90.0" y="415.0" font-family="-apple-system,BlinkMacSystemFont,'SF Pro Display','SF Pro Text','Segoe UI',Roboto,system-ui,sans-serif" font-size="11" font-weight="400" fill="#9a93c6" text-anchor="start">warm · balanced boundaries</text><rect x="34.0" y="440.0" width="252.0" height="48.0" rx="16" fill="url(#gCard)" stroke="#302a60" stroke-width="1"/><rect x="46.0" y="447.0" width="34.0" height="34.0" rx="11" fill="rgba(231,139,208,0.16)"/><path d="M55.64 459.4 c3.68 -1.84 11.040000000000001 -1.84 14.72 0 c0 7.36 -4.6000000000000005 10.120000000000001 -7.36 10.120000000000001 c-2.7600000000000002 0 -7.36 -2.7600000000000002 -7.36 -10.120000000000001 Z" fill="none" stroke="#e78bd0" stroke-width="1.56" stroke-linecap="round" stroke-linejoin="round"/><circle cx="60.24" cy="463.08" r="0.92" fill="#e78bd0"/><circle cx="65.76" cy="463.08" r="0.92" fill="#e78bd0"/><text x="90.0" y="458.0" font-family="-apple-system,BlinkMacSystemFont,'SF Pro Display','SF Pro Text','Segoe UI',Roboto,system-ui,sans-serif" font-size="13" font-weight="600" fill="#f2effc" text-anchor="start">Avatar ready</text><text x="90.0" y="473.0" font-family="-apple-system,BlinkMacSystemFont,'SF Pro Display','SF Pro Text','Segoe UI',Roboto,system-ui,sans-serif" font-size="11" font-weight="400" fill="#9a93c6" text-anchor="start">2D portrait + 3D for video &amp; VR</text><rect x="34.0" y="500.0" width="252.0" height="44.0" rx="13" fill="url(#gBrand)"/><text x="160.0" y="526.5" font-family="-apple-system,BlinkMacSystemFont,'SF Pro Display','SF Pro Text','Segoe UI',Roboto,system-ui,sans-serif" font-size="13" font-weight="700" fill="#fff" text-anchor="middle">Start chatting with Ava</text><rect x="20.0" y="586.0" width="280.0" height="52.0" rx="0" fill="#0e0a26"/><rect x="20" y="586" width="280" height="1" fill="#302a60"/><circle cx="55.0" cy="604" r="5.3999999999999995" fill="none" stroke="#7b5cff" stroke-width="1.22" stroke-linecap="round" stroke-linejoin="round"/><circle cx="55.0" cy="604" r="2.52" fill="none" stroke="#7b5cff" stroke-width="1.22" stroke-linecap="round" stroke-linejoin="round"/><circle cx="55.0" cy="604" r="0.648" fill="#7b5cff"/><text x="55.0" y="626.0" font-family="-apple-system,BlinkMacSystemFont,'SF Pro Display','SF Pro Text','Segoe UI',Roboto,system-ui,sans-serif" font-size="8.2" font-weight="600" fill="#7b5cff" text-anchor="middle">Home</text><circle cx="122.12" cy="601.12" r="2.16" fill="none" stroke="#6a6399" stroke-width="1.22" stroke-linecap="round" stroke-linejoin="round"/><circle cx="127.88" cy="601.12" r="2.16" fill="none" stroke="#6a6399" stroke-width="1.22" stroke-linecap="round" stroke-linejoin="round"/><path d="M118.52 608.32 c0 -3.5999999999999996 4.32 -3.5999999999999996 4.32 0 M124.28 608.32 c0 -3.5999999999999996 5.04 -3.5999999999999996 6.4799999999999995 -0.72" fill="none" stroke="#6a6399" stroke-width="1.22" stroke-linecap="round" stroke-linejoin="round"/><text x="125.0" y="626.0" font-family="-apple-system,BlinkMacSystemFont,'SF Pro Display','SF Pro Text','Segoe UI',Roboto,system-ui,sans-serif" font-size="8.2" font-weight="600" fill="#6a6399" text-anchor="middle">Relationships</text><rect x="189.96" y="604.72" width="2.304" height="3.5999999999999996" rx="1" fill="#6a6399"/><rect x="193.56" y="601.84" width="2.304" height="6.4799999999999995" rx="1" fill="#6a6399"/><rect x="197.16" y="605.44" width="2.304" height="2.88" rx="1" fill="#6a6399"/><rect x="200.76000000000002" y="600.4000000000001" width="2.304" height="7.92" rx="1" fill="#6a6399"/><text x="195.0" y="626.0" font-family="-apple-system,BlinkMacSystemFont,'SF Pro Display','SF Pro Text','Segoe UI',Roboto,system-ui,sans-serif" font-size="8.2" font-weight="600" fill="#6a6399" text-anchor="middle">Stats</text><rect x="264.064" y="597.52" width="1.8719999999999999" height="2.88" rx="1" transform="rotate(0 265.0 604)" fill="#6a6399"/><rect x="264.064" y="597.52" width="1.8719999999999999" height="2.88" rx="1" transform="rotate(45 265.0 604)" fill="#6a6399"/><rect x="264.064" y="597.52" width="1.8719999999999999" height="2.88" rx="1" transform="rotate(90 265.0 604)" fill="#6a6399"/><rect x="264.064" y="597.52" width="1.8719999999999999" height="2.88" rx="1" transform="rotate(135 265.0 604)" fill="#6a6399"/><rect x="264.064" y="597.52" width="1.8719999999999999" height="2.88" rx="1" transform="rotate(180 265.0 604)" fill="#6a6399"/><rect x="264.064" y="597.52" width="1.8719999999999999" height="2.88" rx="1" transform="rotate(225 265.0 604)" fill="#6a6399"/><rect x="264.064" y="597.52" width="1.8719999999999999" height="2.88" rx="1" transform="rotate(270 265.0 604)" fill="#6a6399"/><rect x="264.064" y="597.52" width="1.8719999999999999" height="2.88" rx="1" transform="rotate(315 265.0 604)" fill="#6a6399"/><circle cx="265.0" cy="604" r="3.312" fill="none" stroke="#6a6399" stroke-width="1.22" stroke-linecap="round" stroke-linejoin="round"/><text x="265.0" y="626.0" font-family="-apple-system,BlinkMacSystemFont,'SF Pro Display','SF Pro Text','Segoe UI',Roboto,system-ui,sans-serif" font-size="8.2" font-weight="600" fill="#6a6399" text-anchor="middle">More</text><rect x="118.0" y="631.0" width="84.0" height="4.0" rx="2" fill="rgba(255,255,255,0.6)"/></svg>