<svg xmlns="http://www.w3.org/2000/svg" width="320" height="660" viewBox="0 0 320 660" role="img" aria-label="Social Connections screen"><defs>
      <linearGradient id="gScr" x1="0" y1="0" x2="0.6" y2="1">
        <stop offset="0" stop-color="#181235"/><stop offset="1" stop-color="#0c0920"/></linearGradient>
      <linearGradient id="gFrame" x1="0" y1="0" x2="1" y2="1">
        <stop offset="0" stop-color="#2a2352"/><stop offset="1" stop-color="#0a0818"/></linearGradient>
      <linearGradient id="gCard" x1="0" y1="0" x2="0.4" y2="1">
        <stop offset="0" stop-color="#201a48"/><stop offset="1" stop-color="#181240"/></linearGradient>
      <linearGradient id="gBrand" x1="0" y1="0" x2="1" y2="0">
        <stop offset="0" stop-color="#7b5cff"/><stop offset="1" stop-color="#9d7bff"/></linearGradient>
      <linearGradient id="gAmber" x1="0" y1="0" x2="1" y2="0">
        <stop offset="0" stop-color="#ffb84d"/><stop offset="1" stop-color="#ffd27a"/></linearGradient>
      <linearGradient id="mV" x1="0" y1="0" x2="1" y2="0"><stop offset="0" stop-color="#7b5cff"/><stop offset="1" stop-color="#9d7bff"/></linearGradient>
      <linearGradient id="mA" x1="0" y1="0" x2="1" y2="0"><stop offset="0" stop-color="#ffb84d"/><stop offset="1" stop-color="#ff9f45"/></linearGradient>
      <linearGradient id="mG" x1="0" y1="0" x2="1" y2="0"><stop offset="0" stop-color="#5fb87a"/><stop offset="1" stop-color="#7bc47f"/></linearGradient>
      <linearGradient id="mC" x1="0" y1="0" x2="1" y2="0"><stop offset="0" stop-color="#6bb6d6"/><stop offset="1" stop-color="#9fd8e8"/></linearGradient>
      <radialGradient id="orb" cx="36%" cy="30%" r="78%">
        <stop offset="0" stop-color="#d9ccff"/><stop offset="38%" stop-color="#7b5cff"/>
        <stop offset="78%" stop-color="#3f3bc0"/><stop offset="100%" stop-color="#140f34"/></radialGradient>
      <radialGradient id="glow" cx="50%" cy="50%" r="50%">
        <stop offset="0" stop-color="#7b5cff" stop-opacity="0.5"/><stop offset="1" stop-color="#7b5cff" stop-opacity="0"/></radialGradient>
    </defs><rect x="10.0" y="12.0" width="300.0" height="636.0" rx="40" fill="url(#gFrame)"/><rect x="20.0" y="22.0" width="280.0" height="616.0" rx="31" fill="url(#gScr)"/><rect x="130.0" y="27.0" width="60.0" height="15.0" rx="7.5" fill="#05070d"/><text x="34.0" y="56.0" font-family="-apple-system,BlinkMacSystemFont,'SF Pro Display','SF Pro Text','Segoe UI',Roboto,system-ui,sans-serif" font-size="11" font-weight="600" fill="#c7c9d9" text-anchor="start">9:41</text><rect x="264.0" y="50.0" width="20.0" height="11.0" rx="3" fill="none" stroke="#c7c9d9" stroke-width="1.1"/><rect x="266.0" y="52.0" width="14.0" height="7.0" rx="2" fill="#c7c9d9"/><rect x="284.6" y="53.5" width="2.0" height="5.0" rx="1" fill="#c7c9d9"/><path d="M251 55 a6 6 0 0 1 11 0" fill="none" stroke="#c7c9d9" stroke-width="1.3"/><circle cx="256.5" cy="59" r="1.2" fill="#c7c9d9"/><rect x="234.0" y="58.1" width="2.6" height="1.9" rx="0.8" fill="#c7c9d9"/><rect x="238.0" y="56.2" width="2.6" height="3.8" rx="0.8" fill="#c7c9d9"/><rect x="242.0" y="54.3" width="2.6" height="5.7" rx="0.8" fill="#c7c9d9"/><rect x="246.0" y="52.4" width="2.6" height="7.6" rx="0.8" fill="#c7c9d9"/><text x="34.0" y="88.0" font-family="-apple-system,BlinkMacSystemFont,'SF Pro Display','SF Pro Text','Segoe UI',Roboto,system-ui,sans-serif" font-size="20" font-weight="700" fill="#f2effc" text-anchor="start" letter-spacing="-0.4">Social Connections</text><text x="34.0" y="106.0" font-family="-apple-system,BlinkMacSystemFont,'SF Pro Display','SF Pro Text','Segoe UI',Roboto,system-ui,sans-serif" font-size="11.5" font-weight="400" fill="#9a93c6" text-anchor="start">Collect data · publish &amp; run</text><text x="34.0" y="122.0" font-family="-apple-system,BlinkMacSystemFont,'SF Pro Display','SF Pro Text','Segoe UI',Roboto,system-ui,sans-serif" font-size="10.5" font-weight="400" fill="#9a93c6" text-anchor="start">Collect to build the profile · publish to run it.</text><circle cx="41.0" cy="150" r="6.5" fill="#E1306C"/><circle cx="55.6" cy="150" r="6.5" fill="#1DA1F2"/><circle cx="70.2" cy="150" r="6.5" fill="#25F4EE"/><circle cx="84.8" cy="150" r="6.5" fill="#1877F2"/><circle cx="99.4" cy="150" r="6.5" fill="#0A66C2"/><circle cx="114.0" cy="150" r="6.5" fill="#FF0000"/><circle cx="128.6" cy="150" r="6.5" fill="#FF4500"/><circle cx="143.2" cy="150" r="6.5" fill="#c9c9d6"/><circle cx="157.8" cy="150" r="6.5" fill="#25D366"/><circle cx="172.4" cy="150" r="6.5" fill="#0866FF"/><circle cx="187.0" cy="150" r="6.5" fill="#6364FF"/><circle cx="201.6" cy="150" r="6.5" fill="#9146FF"/><circle cx="216.2" cy="150" r="6.5" fill="#FFFC00"/><circle cx="230.8" cy="150" r="6.5" fill="#E2231A"/><circle cx="245.4" cy="150" r="6.5" fill="#E60023"/><circle cx="260.0" cy="150" r="6.5" fill="#5865F2"/><text x="34.0" y="168.0" font-family="-apple-system,BlinkMacSystemFont,'SF Pro Display','SF Pro Text','Segoe UI',Roboto,system-ui,sans-serif" font-size="9" font-weight="500" fill="#6a6399" text-anchor="start">16 platforms — Instagram to Discord</text><text x="34.0" y="180.0" font-family="-apple-system,BlinkMacSystemFont,'SF Pro Display','SF Pro Text','Segoe UI',Roboto,system-ui,sans-serif" font-size="9.5" font-weight="700" fill="#6a6399" text-anchor="start" letter-spacing="0.8">COLLECTING</text><rect x="174.8" y="172.0" width="111.2" height="17.0" rx="8" fill="rgba(159,216,232,0.16)"/><text x="230.4" y="184.0" font-family="-apple-system,BlinkMacSystemFont,'SF Pro Display','SF Pro Text','Segoe UI',Roboto,system-ui,sans-serif" font-size="9.5" font-weight="700" fill="#9fd8e8" text-anchor="middle" letter-spacing="0.4">→ builds profile</text><rect x="34.0" y="196.0" width="252.0" height="50.0" rx="14" fill="url(#gCard)" stroke="#302a60" stroke-width="1"/><rect x="44.0" y="204.0" width="34.0" height="34.0" rx="11" fill="rgba(231,139,208,0.16)"/><rect x="53.64" y="215.48" width="14.72" height="11.040000000000001" rx="2" fill="none" stroke="#e78bd0" stroke-width="1.56" stroke-linecap="round" stroke-linejoin="round"/><circle cx="58.24" cy="220.08" r="1.6560000000000001" fill="none" stroke="#e78bd0" stroke-width="1.56" stroke-linecap="round" stroke-linejoin="round"/><path d="M53.64 224.68 l4.6000000000000005 -3.68 3.68 2.7600000000000002 2.7600000000000002 -1.84 3.68 2.7600000000000002" fill="none" stroke="#e78bd0" stroke-width="1.56" stroke-linecap="round" stroke-linejoin="round"/><text x="88.0" y="218.0" font-family="-apple-system,BlinkMacSystemFont,'SF Pro Display','SF Pro Text','Segoe UI',Roboto,system-ui,sans-serif" font-size="12.5" font-weight="650" fill="#f2effc" text-anchor="start">Instagram</text><text x="88.0" y="233.0" font-family="-apple-system,BlinkMacSystemFont,'SF Pro Display','SF Pro Text','Segoe UI',Roboto,system-ui,sans-serif" font-size="10" font-weight="400" fill="#9a93c6" text-anchor="start">@dana.grows · 1,204 posts</text><rect x="218.6" y="210.0" width="55.4" height="17.0" rx="8" fill="rgba(159,216,232,0.16)"/><text x="246.3" y="222.0" font-family="-apple-system,BlinkMacSystemFont,'SF Pro Display','SF Pro Text','Segoe UI',Roboto,system-ui,sans-serif" font-size="9.5" font-weight="700" fill="#9fd8e8" text-anchor="middle" letter-spacing="0.4">COLLECT</text><rect x="34.0" y="254.0" width="252.0" height="50.0" rx="14" fill="url(#gCard)" stroke="#302a60" stroke-width="1"/><rect x="44.0" y="262.0" width="34.0" height="34.0" rx="11" fill="rgba(159,216,232,0.16)"/><path d="M53.64 273.48 h14.72 a2 2 0 0 1 2 2 v6.44 a2 2 0 0 1 -2 2 h-8.280000000000001 l-3.68 3.68 v-3.68 h-2.7600000000000002 a2 2 0 0 1 -2 -2 v-6.44 a2 2 0 0 1 2 -2 Z" fill="none" stroke="#9fd8e8" stroke-width="1.56" stroke-linecap="round" stroke-linejoin="round"/><text x="88.0" y="276.0" font-family="-apple-system,BlinkMacSystemFont,'SF Pro Display','SF Pro Text','Segoe UI',Roboto,system-ui,sans-serif" font-size="12.5" font-weight="650" fill="#f2effc" text-anchor="start">X</text><text x="88.0" y="291.0" font-family="-apple-system,BlinkMacSystemFont,'SF Pro Display','SF Pro Text','Segoe UI',Roboto,system-ui,sans-serif" font-size="10" font-weight="400" fill="#9a93c6" text-anchor="start">@dana · 820 posts</text><rect x="218.6" y="268.0" width="55.4" height="17.0" rx="8" fill="rgba(159,216,232,0.16)"/><text x="246.3" y="280.0" font-family="-apple-system,BlinkMacSystemFont,'SF Pro Display','SF Pro Text','Segoe UI',Roboto,system-ui,sans-serif" font-size="9.5" font-weight="700" fill="#9fd8e8" text-anchor="middle" letter-spacing="0.4">COLLECT</text><text x="34.0" y="318.0" font-family="-apple-system,BlinkMacSystemFont,'SF Pro Display','SF Pro Text','Segoe UI',Roboto,system-ui,sans-serif" font-size="9.5" font-weight="700" fill="#6a6399" text-anchor="start" letter-spacing="0.8">PUBLISHING</text><rect x="174.8" y="310.0" width="111.2" height="17.0" rx="8" fill="rgba(123,196,127,0.16)"/><text x="230.4" y="322.0" font-family="-apple-system,BlinkMacSystemFont,'SF Pro Display','SF Pro Text','Segoe UI',Roboto,system-ui,sans-serif" font-size="9.5" font-weight="700" fill="#7bc47f" text-anchor="middle" letter-spacing="0.4">runs on platform</text><rect x="34.0" y="334.0" width="252.0" height="82.0" rx="15" fill="url(#gCard)" stroke="#302a60" stroke-width="1"/><rect x="46.0" y="346.0" width="34.0" height="34.0" rx="11" fill="rgba(123,92,255,0.16)"/><path d="M63 355.64 l2.208 4.6000000000000005 4.968000000000001 0.552 -3.68 3.496 1.0120000000000002 4.876 -4.508000000000001 -2.4840000000000004 -4.508000000000001 2.4840000000000004 1.0120000000000002 -4.876 -3.68 -3.496 4.968000000000001 -0.552 Z" fill="none" stroke="#7b5cff" stroke-width="1.56" stroke-linecap="round" stroke-linejoin="round"/><text x="88.0" y="360.0" font-family="-apple-system,BlinkMacSystemFont,'SF Pro Display','SF Pro Text','Segoe UI',Roboto,system-ui,sans-serif" font-size="12.5" font-weight="650" fill="#f2effc" text-anchor="start">TikTok</text><text x="88.0" y="376.0" font-family="-apple-system,BlinkMacSystemFont,'SF Pro Display','SF Pro Text','Segoe UI',Roboto,system-ui,sans-serif" font-size="10" font-weight="400" fill="#9a93c6" text-anchor="start">@dana.grows</text><rect x="146.0" y="355.0" width="38.0" height="16.0" rx="8" fill="rgba(123,196,127,0.14)"/><circle cx="155.0" cy="363" r="3" fill="#7bc47f"/><text x="162.0" y="367.0" font-family="-apple-system,BlinkMacSystemFont,'SF Pro Display','SF Pro Text','Segoe UI',Roboto,system-ui,sans-serif" font-size="9" font-weight="700" fill="#7bc47f" text-anchor="start" letter-spacing="0.5">LIVE</text><text x="88.0" y="396.0" font-family="-apple-system,BlinkMacSystemFont,'SF Pro Display','SF Pro Text','Segoe UI',Roboto,system-ui,sans-serif" font-size="9" font-weight="400" fill="#6a6399" text-anchor="start">scan to reach the profile</text><rect x="212.0" y="344.0" width="62.0" height="62.0" rx="14" fill="#ffffff"/><rect x="240.0" y="354.0" width="2.0" height="2.0" rx="0" fill="#140f34"/><rect x="242.0" y="354.0" width="2.0" height="2.0" rx="0" fill="#140f34"/><rect x="246.0" y="354.0" width="2.0" height="2.0" rx="0" fill="#140f34"/><rect x="238.0" y="356.0" width="2.0" height="2.0" rx="0" fill="#140f34"/><rect x="242.0" y="356.0" width="2.0" height="2.0" rx="0" fill="#140f34"/><rect x="244.0" y="356.0" width="2.0" height="2.0" rx="0" fill="#140f34"/><rect x="246.0" y="356.0" width="2.0" height="2.0" rx="0" fill="#140f34"/><rect x="244.0" y="358.0" width="2.0" height="2.0" rx="0" fill="#140f34"/><rect x="246.0" y="358.0" width="2.0" height="2.0" rx="0" fill="#140f34"/><rect x="240.0" y="360.0" width="2.0" height="2.0" rx="0" fill="#140f34"/><rect x="242.0" y="360.0" width="2.0" height="2.0" rx="0" fill="#140f34"/><rect x="244.0" y="360.0" width="2.0" height="2.0" rx="0" fill="#140f34"/><rect x="246.0" y="360.0" width="2.0" height="2.0" rx="0" fill="#140f34"/><rect x="242.0" y="362.0" width="2.0" height="2.0" rx="0" fill="#140f34"/><rect x="246.0" y="364.0" width="2.0" height="2.0" rx="0" fill="#140f34"/><rect x="238.0" y="366.0" width="2.0" height="2.0" rx="0" fill="#140f34"/><rect x="240.0" y="366.0" width="2.0" height="2.0" rx="0" fill="#140f34"/><rect x="244.0" y="366.0" width="2.0" height="2.0" rx="0" fill="#140f34"/><rect x="240.0" y="368.0" width="2.0" height="2.0" rx="0" fill="#140f34"/><rect x="242.0" y="368.0" width="2.0" height="2.0" rx="0" fill="#140f34"/><rect x="244.0" y="368.0" width="2.0" height="2.0" rx="0" fill="#140f34"/><rect x="246.0" y="368.0" width="2.0" height="2.0" rx="0" fill="#140f34"/><rect x="230.0" y="370.0" width="2.0" height="2.0" rx="0" fill="#140f34"/><rect x="234.0" y="370.0" width="2.0" height="2.0" rx="0" fill="#140f34"/><rect x="238.0" y="370.0" width="2.0" height="2.0" rx="0" fill="#140f34"/><rect x="240.0" y="370.0" width="2.0" height="2.0" rx="0" fill="#140f34"/><rect x="246.0" y="370.0" width="2.0" height="2.0" rx="0" fill="#140f34"/><rect x="250.0" y="370.0" width="2.0" height="2.0" rx="0" fill="#140f34"/><rect x="256.0" y="370.0" width="2.0" height="2.0" rx="0" fill="#140f34"/><rect x="258.0" y="370.0" width="2.0" height="2.0" rx="0" fill="#140f34"/><rect x="224.0" y="372.0" width="2.0" height="2.0" rx="0" fill="#140f34"/><rect x="226.0" y="372.0" width="2.0" height="2.0" rx="0" fill="#140f34"/><rect x="236.0" y="372.0" width="2.0" height="2.0" rx="0" fill="#140f34"/><rect x="240.0" y="372.0" width="2.0" height="2.0" rx="0" fill="#140f34"/><rect x="246.0" y="372.0" width="2.0" height="2.0" rx="0" fill="#140f34"/><rect x="250.0" y="372.0" width="2.0" height="2.0" rx="0" fill="#140f34"/><rect x="260.0" y="372.0" width="2.0" height="2.0" rx="0" fill="#140f34"/><rect x="262.0" y="372.0" width="2.0" height="2.0" rx="0" fill="#140f34"/><rect x="224.0" y="374.0" width="2.0" height="2.0" rx="0" fill="#140f34"/><rect x="230.0" y="374.0" width="2.0" height="2.0" rx="0" fill="#140f34"/><rect x="232.0" y="374.0" width="2.0" height="2.0" rx="0" fill="#140f34"/><rect x="236.0" y="374.0" width="2.0" height="2.0" rx="0" fill="#140f34"/><rect x="242.0" y="374.0" width="2.0" height="2.0" rx="0" fill="#140f34"/><rect x="252.0" y="374.0" width="2.0" height="2.0" rx="0" fill="#140f34"/><rect x="256.0" y="374.0" width="2.0" height="2.0" rx="0" fill="#140f34"/><rect x="262.0" y="374.0" width="2.0" height="2.0" rx="0" fill="#140f34"/><rect x="224.0" y="376.0" width="2.0" height="2.0" rx="0" fill="#140f34"/><rect x="226.0" y="376.0" width="2.0" height="2.0" rx="0" fill="#140f34"/><rect x="232.0" y="376.0" width="2.0" height="2.0" rx="0" fill="#140f34"/><rect x="234.0" y="376.0" width="2.0" height="2.0" rx="0" fill="#140f34"/><rect x="240.0" y="376.0" width="2.0" height="2.0" rx="0" fill="#140f34"/><rect x="242.0" y="376.0" width="2.0" height="2.0" rx="0" fill="#140f34"/><rect x="246.0" y="376.0" width="2.0" height="2.0" rx="0" fill="#140f34"/><rect x="248.0" y="376.0" width="2.0" height="2.0" rx="0" fill="#140f34"/><rect x="250.0" y="376.0" width="2.0" height="2.0" rx="0" fill="#140f34"/><rect x="258.0" y="376.0" width="2.0" height="2.0" rx="0" fill="#140f34"/><rect x="262.0" y="376.0" width="2.0" height="2.0" rx="0" fill="#140f34"/><rect x="224.0" y="378.0" width="2.0" height="2.0" rx="0" fill="#140f34"/><rect x="226.0" y="378.0" width="2.0" height="2.0" rx="0" fill="#140f34"/><rect x="232.0" y="378.0" width="2.0" height="2.0" rx="0" fill="#140f34"/><rect x="238.0" y="378.0" width="2.0" height="2.0" rx="0" fill="#140f34"/><rect x="240.0" y="378.0" width="2.0" height="2.0" rx="0" fill="#140f34"/><rect x="242.0" y="378.0" width="2.0" height="2.0" rx="0" fill="#140f34"/><rect x="246.0" y="378.0" width="2.0" height="2.0" rx="0" fill="#140f34"/><rect x="262.0" y="378.0" width="2.0" height="2.0" rx="0" fill="#140f34"/><rect x="242.0" y="380.0" width="2.0" height="2.0" rx="0" fill="#140f34"/><rect x="244.0" y="380.0" width="2.0" height="2.0" rx="0" fill="#140f34"/><rect x="246.0" y="380.0" width="2.0" height="2.0" rx="0" fill="#140f34"/><rect x="248.0" y="380.0" width="2.0" height="2.0" rx="0" fill="#140f34"/><rect x="250.0" y="380.0" width="2.0" height="2.0" rx="0" fill="#140f34"/><rect x="258.0" y="380.0" width="2.0" height="2.0" rx="0" fill="#140f34"/><rect x="260.0" y="380.0" width="2.0" height="2.0" rx="0" fill="#140f34"/><rect x="262.0" y="380.0" width="2.0" height="2.0" rx="0" fill="#140f34"/><rect x="240.0" y="382.0" width="2.0" height="2.0" rx="0" fill="#140f34"/><rect x="244.0" y="382.0" width="2.0" height="2.0" rx="0" fill="#140f34"/><rect x="248.0" y="382.0" width="2.0" height="2.0" rx="0" fill="#140f34"/><rect x="252.0" y="382.0" width="2.0" height="2.0" rx="0" fill="#140f34"/><rect x="254.0" y="382.0" width="2.0" height="2.0" rx="0" fill="#140f34"/><rect x="256.0" y="382.0" width="2.0" height="2.0" rx="0" fill="#140f34"/><rect x="258.0" y="382.0" width="2.0" height="2.0" rx="0" fill="#140f34"/><rect x="260.0" y="382.0" width="2.0" height="2.0" rx="0" fill="#140f34"/><rect x="262.0" y="382.0" width="2.0" height="2.0" rx="0" fill="#140f34"/><rect x="238.0" y="384.0" width="2.0" height="2.0" rx="0" fill="#140f34"/><rect x="242.0" y="384.0" width="2.0" height="2.0" rx="0" fill="#140f34"/><rect x="244.0" y="384.0" width="2.0" height="2.0" rx="0" fill="#140f34"/><rect x="246.0" y="384.0" width="2.0" height="2.0" rx="0" fill="#140f34"/><rect x="250.0" y="384.0" width="2.0" height="2.0" rx="0" fill="#140f34"/><rect x="252.0" y="384.0" width="2.0" height="2.0" rx="0" fill="#140f34"/><rect x="254.0" y="384.0" width="2.0" height="2.0" rx="0" fill="#140f34"/><rect x="256.0" y="384.0" width="2.0" height="2.0" rx="0" fill="#140f34"/><rect x="260.0" y="384.0" width="2.0" height="2.0" rx="0" fill="#140f34"/><rect x="262.0" y="384.0" width="2.0" height="2.0" rx="0" fill="#140f34"/><rect x="240.0" y="386.0" width="2.0" height="2.0" rx="0" fill="#140f34"/><rect x="242.0" y="386.0" width="2.0" height="2.0" rx="0" fill="#140f34"/><rect x="244.0" y="386.0" width="2.0" height="2.0" rx="0" fill="#140f34"/><rect x="246.0" y="386.0" width="2.0" height="2.0" rx="0" fill="#140f34"/><rect x="250.0" y="386.0" width="2.0" height="2.0" rx="0" fill="#140f34"/><rect x="252.0" y="386.0" width="2.0" height="2.0" rx="0" fill="#140f34"/><rect x="256.0" y="386.0" width="2.0" height="2.0" rx="0" fill="#140f34"/><rect x="260.0" y="386.0" width="2.0" height="2.0" rx="0" fill="#140f34"/><rect x="238.0" y="388.0" width="2.0" height="2.0" rx="0" fill="#140f34"/><rect x="244.0" y="388.0" width="2.0" height="2.0" rx="0" fill="#140f34"/><rect x="248.0" y="388.0" width="2.0" height="2.0" rx="0" fill="#140f34"/><rect x="250.0" y="388.0" width="2.0" height="2.0" rx="0" fill="#140f34"/><rect x="258.0" y="388.0" width="2.0" height="2.0" rx="0" fill="#140f34"/><rect x="238.0" y="390.0" width="2.0" height="2.0" rx="0" fill="#140f34"/><rect x="240.0" y="390.0" width="2.0" height="2.0" rx="0" fill="#140f34"/><rect x="244.0" y="390.0" width="2.0" height="2.0" rx="0" fill="#140f34"/><rect x="248.0" y="390.0" width="2.0" height="2.0" rx="0" fill="#140f34"/><rect x="254.0" y="390.0" width="2.0" height="2.0" rx="0" fill="#140f34"/><rect x="256.0" y="390.0" width="2.0" height="2.0" rx="0" fill="#140f34"/><rect x="258.0" y="390.0" width="2.0" height="2.0" rx="0" fill="#140f34"/><rect x="262.0" y="390.0" width="2.0" height="2.0" rx="0" fill="#140f34"/><rect x="244.0" y="392.0" width="2.0" height="2.0" rx="0" fill="#140f34"/><rect x="246.0" y="392.0" width="2.0" height="2.0" rx="0" fill="#140f34"/><rect x="248.0" y="392.0" width="2.0" height="2.0" rx="0" fill="#140f34"/><rect x="250.0" y="392.0" width="2.0" height="2.0" rx="0" fill="#140f34"/><rect x="238.0" y="394.0" width="2.0" height="2.0" rx="0" fill="#140f34"/><rect x="244.0" y="394.0" width="2.0" height="2.0" rx="0" fill="#140f34"/><rect x="246.0" y="394.0" width="2.0" height="2.0" rx="0" fill="#140f34"/><rect x="254.0" y="394.0" width="2.0" height="2.0" rx="0" fill="#140f34"/><rect x="258.0" y="394.0" width="2.0" height="2.0" rx="0" fill="#140f34"/><rect x="260.0" y="394.0" width="2.0" height="2.0" rx="0" fill="#140f34"/><rect x="222.0" y="354.0" width="2.0" height="2.0" rx="0" fill="#140f34"/><rect x="224.0" y="354.0" width="2.0" height="2.0" rx="0" fill="#140f34"/><rect x="226.0" y="354.0" width="2.0" height="2.0" rx="0" fill="#140f34"/><rect x="228.0" y="354.0" width="2.0" height="2.0" rx="0" fill="#140f34"/><rect x="230.0" y="354.0" width="2.0" height="2.0" rx="0" fill="#140f34"/><rect x="232.0" y="354.0" width="2.0" height="2.0" rx="0" fill="#140f34"/><rect x="234.0" y="354.0" width="2.0" height="2.0" rx="0" fill="#140f34"/><rect x="222.0" y="356.0" width="2.0" height="2.0" rx="0" fill="#140f34"/><rect x="234.0" y="356.0" width="2.0" height="2.0" rx="0" fill="#140f34"/><rect x="222.0" y="358.0" width="2.0" height="2.0" rx="0" fill="#140f34"/><rect x="226.0" y="358.0" width="2.0" height="2.0" rx="0" fill="#140f34"/><rect x="228.0" y="358.0" width="2.0" height="2.0" rx="0" fill="#140f34"/><rect x="230.0" y="358.0" width="2.0" height="2.0" rx="0" fill="#140f34"/><rect x="234.0" y="358.0" width="2.0" height="2.0" rx="0" fill="#140f34"/><rect x="222.0" y="360.0" width="2.0" height="2.0" rx="0" fill="#140f34"/><rect x="226.0" y="360.0" width="2.0" height="2.0" rx="0" fill="#140f34"/><rect x="228.0" y="360.0" width="2.0" height="2.0" rx="0" fill="#140f34"/><rect x="230.0" y="360.0" width="2.0" height="2.0" rx="0" fill="#140f34"/><rect x="234.0" y="360.0" width="2.0" height="2.0" rx="0" fill="#140f34"/><rect x="222.0" y="362.0" width="2.0" height="2.0" rx="0" fill="#140f34"/><rect x="226.0" y="362.0" width="2.0" height="2.0" rx="0" fill="#140f34"/><rect x="228.0" y="362.0" width="2.0" height="2.0" rx="0" fill="#140f34"/><rect x="230.0" y="362.0" width="2.0" height="2.0" rx="0" fill="#140f34"/><rect x="234.0" y="362.0" width="2.0" height="2.0" rx="0" fill="#140f34"/><rect x="222.0" y="364.0" width="2.0" height="2.0" rx="0" fill="#140f34"/><rect x="234.0" y="364.0" width="2.0" height="2.0" rx="0" fill="#140f34"/><rect x="222.0" y="366.0" width="2.0" height="2.0" rx="0" fill="#140f34"/><rect x="224.0" y="366.0" width="2.0" height="2.0" rx="0" fill="#140f34"/><rect x="226.0" y="366.0" width="2.0" height="2.0" rx="0" fill="#140f34"/><rect x="228.0" y="366.0" width="2.0" height="2.0" rx="0" fill="#140f34"/><rect x="230.0" y="366.0" width="2.0" height="2.0" rx="0" fill="#140f34"/><rect x="232.0" y="366.0" width="2.0" height="2.0" rx="0" fill="#140f34"/><rect x="234.0" y="366.0" width="2.0" height="2.0" rx="0" fill="#140f34"/><rect x="250.0" y="354.0" width="2.0" height="2.0" rx="0" fill="#140f34"/><rect x="252.0" y="354.0" width="2.0" height="2.0" rx="0" fill="#140f34"/><rect x="254.0" y="354.0" width="2.0" height="2.0" rx="0" fill="#140f34"/><rect x="256.0" y="354.0" width="2.0" height="2.0" rx="0" fill="#140f34"/><rect x="258.0" y="354.0" width="2.0" height="2.0" rx="0" fill="#140f34"/><rect x="260.0" y="354.0" width="2.0" height="2.0" rx="0" fill="#140f34"/><rect x="262.0" y="354.0" width="2.0" height="2.0" rx="0" fill="#140f34"/><rect x="250.0" y="356.0" width="2.0" height="2.0" rx="0" fill="#140f34"/><rect x="262.0" y="356.0" width="2.0" height="2.0" rx="0" fill="#140f34"/><rect x="250.0" y="358.0" width="2.0" height="2.0" rx="0" fill="#140f34"/><rect x="254.0" y="358.0" width="2.0" height="2.0" rx="0" fill="#140f34"/><rect x="256.0" y="358.0" width="2.0" height="2.0" rx="0" fill="#140f34"/><rect x="258.0" y="358.0" width="2.0" height="2.0" rx="0" fill="#140f34"/><rect x="262.0" y="358.0" width="2.0" height="2.0" rx="0" fill="#140f34"/><rect x="250.0" y="360.0" width="2.0" height="2.0" rx="0" fill="#140f34"/><rect x="254.0" y="360.0" width="2.0" height="2.0" rx="0" fill="#140f34"/><rect x="256.0" y="360.0" width="2.0" height="2.0" rx="0" fill="#140f34"/><rect x="258.0" y="360.0" width="2.0" height="2.0" rx="0" fill="#140f34"/><rect x="262.0" y="360.0" width="2.0" height="2.0" rx="0" fill="#140f34"/><rect x="250.0" y="362.0" width="2.0" height="2.0" rx="0" fill="#140f34"/><rect x="254.0" y="362.0" width="2.0" height="2.0" rx="0" fill="#140f34"/><rect x="256.0" y="362.0" width="2.0" height="2.0" rx="0" fill="#140f34"/><rect x="258.0" y="362.0" width="2.0" height="2.0" rx="0" fill="#140f34"/><rect x="262.0" y="362.0" width="2.0" height="2.0" rx="0" fill="#140f34"/><rect x="250.0" y="364.0" width="2.0" height="2.0" rx="0" fill="#140f34"/><rect x="262.0" y="364.0" width="2.0" height="2.0" rx="0" fill="#140f34"/><rect x="250.0" y="366.0" width="2.0" height="2.0" rx="0" fill="#140f34"/><rect x="252.0" y="366.0" width="2.0" height="2.0" rx="0" fill="#140f34"/><rect x="254.0" y="366.0" width="2.0" height="2.0" rx="0" fill="#140f34"/><rect x="256.0" y="366.0" width="2.0" height="2.0" rx="0" fill="#140f34"/><rect x="258.0" y="366.0" width="2.0" height="2.0" rx="0" fill="#140f34"/><rect x="260.0" y="366.0" width="2.0" height="2.0" rx="0" fill="#140f34"/><rect x="262.0" y="366.0" width="2.0" height="2.0" rx="0" fill="#140f34"/><rect x="222.0" y="382.0" width="2.0" height="2.0" rx="0" fill="#140f34"/><rect x="224.0" y="382.0" width="2.0" height="2.0" rx="0" fill="#140f34"/><rect x="226.0" y="382.0" width="2.0" height="2.0" rx="0" fill="#140f34"/><rect x="228.0" y="382.0" width="2.0" height="2.0" rx="0" fill="#140f34"/><rect x="230.0" y="382.0" width="2.0" height="2.0" rx="0" fill="#140f34"/><rect x="232.0" y="382.0" width="2.0" height="2.0" rx="0" fill="#140f34"/><rect x="234.0" y="382.0" width="2.0" height="2.0" rx="0" fill="#140f34"/><rect x="222.0" y="384.0" width="2.0" height="2.0" rx="0" fill="#140f34"/><rect x="234.0" y="384.0" width="2.0" height="2.0" rx="0" fill="#140f34"/><rect x="222.0" y="386.0" width="2.0" height="2.0" rx="0" fill="#140f34"/><rect x="226.0" y="386.0" width="2.0" height="2.0" rx="0" fill="#140f34"/><rect x="228.0" y="386.0" width="2.0" height="2.0" rx="0" fill="#140f34"/><rect x="230.0" y="386.0" width="2.0" height="2.0" rx="0" fill="#140f34"/><rect x="234.0" y="386.0" width="2.0" height="2.0" rx="0" fill="#140f34"/><rect x="222.0" y="388.0" width="2.0" height="2.0" rx="0" fill="#140f34"/><rect x="226.0" y="388.0" width="2.0" height="2.0" rx="0" fill="#140f34"/><rect x="228.0" y="388.0" width="2.0" height="2.0" rx="0" fill="#140f34"/><rect x="230.0" y="388.0" width="2.0" height="2.0" rx="0" fill="#140f34"/><rect x="234.0" y="388.0" width="2.0" height="2.0" rx="0" fill="#140f34"/><rect x="222.0" y="390.0" width="2.0" height="2.0" rx="0" fill="#140f34"/><rect x="226.0" y="390.0" width="2.0" height="2.0" rx="0" fill="#140f34"/><rect x="228.0" y="390.0" width="2.0" height="2.0" rx="0" fill="#140f34"/><rect x="230.0" y="390.0" width="2.0" height="2.0" rx="0" fill="#140f34"/><rect x="234.0" y="390.0" width="2.0" height="2.0" rx="0" fill="#140f34"/><rect x="222.0" y="392.0" width="2.0" height="2.0" rx="0" fill="#140f34"/><rect x="234.0" y="392.0" width="2.0" height="2.0" rx="0" fill="#140f34"/><rect x="222.0" y="394.0" width="2.0" height="2.0" rx="0" fill="#140f34"/><rect x="224.0" y="394.0" width="2.0" height="2.0" rx="0" fill="#140f34"/><rect x="226.0" y="394.0" width="2.0" height="2.0" rx="0" fill="#140f34"/><rect x="228.0" y="394.0" width="2.0" height="2.0" rx="0" fill="#140f34"/><rect x="230.0" y="394.0" width="2.0" height="2.0" rx="0" fill="#140f34"/><rect x="232.0" y="394.0" width="2.0" height="2.0" rx="0" fill="#140f34"/><rect x="234.0" y="394.0" width="2.0" height="2.0" rx="0" fill="#140f34"/><text x="34.0" y="426.0" font-family="-apple-system,BlinkMacSystemFont,'SF Pro Display','SF Pro Text','Segoe UI',Roboto,system-ui,sans-serif" font-size="9.5" font-weight="500" fill="#6a6399" text-anchor="start">Posts are moderated · a QR beacon reaches you.</text><rect x="20.0" y="586.0" width="280.0" height="52.0" rx="0" fill="#0e0a26"/><rect x="20" y="586" width="280" height="1" fill="#302a60"/><circle cx="55.0" cy="604" r="5.3999999999999995" fill="none" stroke="#7b5cff" stroke-width="1.22" stroke-linecap="round" stroke-linejoin="round"/><circle cx="55.0" cy="604" r="2.52" fill="none" stroke="#7b5cff" stroke-width="1.22" stroke-linecap="round" stroke-linejoin="round"/><circle cx="55.0" cy="604" r="0.648" fill="#7b5cff"/><text x="55.0" y="626.0" font-family="-apple-system,BlinkMacSystemFont,'SF Pro Display','SF Pro Text','Segoe UI',Roboto,system-ui,sans-serif" font-size="8.2" font-weight="600" fill="#7b5cff" text-anchor="middle">Home</text><circle cx="122.12" cy="601.12" r="2.16" fill="none" stroke="#6a6399" stroke-width="1.22" stroke-linecap="round" stroke-linejoin="round"/><circle cx="127.88" cy="601.12" r="2.16" fill="none" stroke="#6a6399" stroke-width="1.22" stroke-linecap="round" stroke-linejoin="round"/><path d="M118.52 608.32 c0 -3.5999999999999996 4.32 -3.5999999999999996 4.32 0 M124.28 608.32 c0 -3.5999999999999996 5.04 -3.5999999999999996 6.4799999999999995 -0.72" fill="none" stroke="#6a6399" stroke-width="1.22" stroke-linecap="round" stroke-linejoin="round"/><text x="125.0" y="626.0" font-family="-apple-system,BlinkMacSystemFont,'SF Pro Display','SF Pro Text','Segoe UI',Roboto,system-ui,sans-serif" font-size="8.2" font-weight="600" fill="#6a6399" text-anchor="middle">Relationships</text><rect x="189.96" y="604.72" width="2.304" height="3.5999999999999996" rx="1" fill="#6a6399"/><rect x="193.56" y="601.84" width="2.304" height="6.4799999999999995" rx="1" fill="#6a6399"/><rect x="197.16" y="605.44" width="2.304" height="2.88" rx="1" fill="#6a6399"/><rect x="200.76000000000002" y="600.4000000000001" width="2.304" height="7.92" rx="1" fill="#6a6399"/><text x="195.0" y="626.0" font-family="-apple-system,BlinkMacSystemFont,'SF Pro Display','SF Pro Text','Segoe UI',Roboto,system-ui,sans-serif" font-size="8.2" font-weight="600" fill="#6a6399" text-anchor="middle">Stats</text><rect x="264.064" y="597.52" width="1.8719999999999999" height="2.88" rx="1" transform="rotate(0 265.0 604)" fill="#6a6399"/><rect x="264.064" y="597.52" width="1.8719999999999999" height="2.88" rx="1" transform="rotate(45 265.0 604)" fill="#6a6399"/><rect x="264.064" y="597.52" width="1.8719999999999999" height="2.88" rx="1" transform="rotate(90 265.0 604)" fill="#6a6399"/><rect x="264.064" y="597.52" width="1.8719999999999999" height="2.88" rx="1" transform="rotate(135 265.0 604)" fill="#6a6399"/><rect x="264.064" y="597.52" width="1.8719999999999999" height="2.88" rx="1" transform="rotate(180 265.0 604)" fill="#6a6399"/><rect x="264.064" y="597.52" width="1.8719999999999999" height="2.88" rx="1" transform="rotate(225 265.0 604)" fill="#6a6399"/><rect x="264.064" y="597.52" width="1.8719999999999999" height="2.88" rx="1" transform="rotate(270 265.0 604)" fill="#6a6399"/><rect x="264.064" y="597.52" width="1.8719999999999999" height="2.88" rx="1" transform="rotate(315 265.0 604)" fill="#6a6399"/><circle cx="265.0" cy="604" r="3.312" fill="none" stroke="#6a6399" stroke-width="1.22" stroke-linecap="round" stroke-linejoin="round"/><text x="265.0" y="626.0" font-family="-apple-system,BlinkMacSystemFont,'SF Pro Display','SF Pro Text','Segoe UI',Roboto,system-ui,sans-serif" font-size="8.2" font-weight="600" fill="#6a6399" text-anchor="middle">More</text><rect x="118.0" y="631.0" width="84.0" height="4.0" rx="2" fill="rgba(255,255,255,0.6)"/></svg>