<svg xmlns="http://www.w3.org/2000/svg" width="320" height="660" viewBox="0 0 320 660" role="img" aria-label="Control Center screen"><defs>
      <linearGradient id="gScr" x1="0" y1="0" x2="0.6" y2="1">
        <stop offset="0" stop-color="#181235"/><stop offset="1" stop-color="#0c0920"/></linearGradient>
      <linearGradient id="gFrame" x1="0" y1="0" x2="1" y2="1">
        <stop offset="0" stop-color="#2a2352"/><stop offset="1" stop-color="#0a0818"/></linearGradient>
      <linearGradient id="gCard" x1="0" y1="0" x2="0.4" y2="1">
        <stop offset="0" stop-color="#201a48"/><stop offset="1" stop-color="#181240"/></linearGradient>
      <linearGradient id="gBrand" x1="0" y1="0" x2="1" y2="0">
        <stop offset="0" stop-color="#7b5cff"/><stop offset="1" stop-color="#9d7bff"/></linearGradient>
      <linearGradient id="gAmber" x1="0" y1="0" x2="1" y2="0">
        <stop offset="0" stop-color="#ffb84d"/><stop offset="1" stop-color="#ffd27a"/></linearGradient>
      <linearGradient id="mV" x1="0" y1="0" x2="1" y2="0"><stop offset="0" stop-color="#7b5cff"/><stop offset="1" stop-color="#9d7bff"/></linearGradient>
      <linearGradient id="mA" x1="0" y1="0" x2="1" y2="0"><stop offset="0" stop-color="#ffb84d"/><stop offset="1" stop-color="#ff9f45"/></linearGradient>
      <linearGradient id="mG" x1="0" y1="0" x2="1" y2="0"><stop offset="0" stop-color="#5fb87a"/><stop offset="1" stop-color="#7bc47f"/></linearGradient>
      <linearGradient id="mC" x1="0" y1="0" x2="1" y2="0"><stop offset="0" stop-color="#6bb6d6"/><stop offset="1" stop-color="#9fd8e8"/></linearGradient>
      <radialGradient id="orb" cx="36%" cy="30%" r="78%">
        <stop offset="0" stop-color="#d9ccff"/><stop offset="38%" stop-color="#7b5cff"/>
        <stop offset="78%" stop-color="#3f3bc0"/><stop offset="100%" stop-color="#140f34"/></radialGradient>
      <radialGradient id="glow" cx="50%" cy="50%" r="50%">
        <stop offset="0" stop-color="#7bc47f" stop-opacity="0.5"/><stop offset="1" stop-color="#7bc47f" stop-opacity="0"/></radialGradient>
    </defs><rect x="10.0" y="12.0" width="300.0" height="636.0" rx="40" fill="url(#gFrame)"/><rect x="20.0" y="22.0" width="280.0" height="616.0" rx="31" fill="url(#gScr)"/><circle cx="160.0" cy="34" r="4.5" fill="#05070d"/><circle cx="160.0" cy="34" r="4.5" fill="none" stroke="#302a60" stroke-width="1"/><text x="34.0" y="56.0" font-family="-apple-system,BlinkMacSystemFont,'SF Pro Display','SF Pro Text','Segoe UI',Roboto,system-ui,sans-serif" font-size="11" font-weight="600" fill="#c7c9d9" text-anchor="start">9:41</text><rect x="277.0" y="49.0" width="8.0" height="12.0" rx="1.5" fill="none" stroke="#c7c9d9" stroke-width="1.2"/><rect x="278.5" y="53.0" width="5.0" height="7.0" rx="1" fill="#c7c9d9"/><path d="M266 61 L271 52 L276 61 Z" fill="#c7c9d9"/><path d="M253 61 L253 54 L261 61 Z" fill="#c7c9d9"/><text x="34.0" y="88.0" font-family="-apple-system,BlinkMacSystemFont,'SF Pro Display','SF Pro Text','Segoe UI',Roboto,system-ui,sans-serif" font-size="20" font-weight="700" fill="#f2effc" text-anchor="start" letter-spacing="-0.4">Control Center</text><text x="34.0" y="106.0" font-family="-apple-system,BlinkMacSystemFont,'SF Pro Display','SF Pro Text','Segoe UI',Roboto,system-ui,sans-serif" font-size="11.5" font-weight="400" fill="#9a93c6" text-anchor="start">You are in control</text><text x="34.0" y="122.0" font-family="-apple-system,BlinkMacSystemFont,'SF Pro Display','SF Pro Text','Segoe UI',Roboto,system-ui,sans-serif" font-size="12" font-weight="700" fill="#9a93c6" text-anchor="start" letter-spacing="0.4">Privacy</text><rect x="34.0" y="132.0" width="252.0" height="42.0" rx="12" fill="url(#gCard)" stroke="#302a60" stroke-width="1"/><text x="50.0" y="158.0" font-family="-apple-system,BlinkMacSystemFont,'SF Pro Display','SF Pro Text','Segoe UI',Roboto,system-ui,sans-serif" font-size="12" font-weight="600" fill="#f2effc" text-anchor="start">Offline Mode</text><rect x="242.0" y="143.0" width="34.0" height="20.0" rx="10" fill="#7bc47f"/><circle cx="266" cy="153" r="8" fill="#fff"/><rect x="34.0" y="182.0" width="252.0" height="42.0" rx="12" fill="url(#gCard)" stroke="#302a60" stroke-width="1"/><text x="50.0" y="208.0" font-family="-apple-system,BlinkMacSystemFont,'SF Pro Display','SF Pro Text','Segoe UI',Roboto,system-ui,sans-serif" font-size="12" font-weight="600" fill="#f2effc" text-anchor="start">Soft Contribution</text><rect x="242.0" y="193.0" width="34.0" height="20.0" rx="10" fill="#2a2450"/><circle cx="252" cy="203" r="8" fill="#fff"/><rect x="34.0" y="232.0" width="252.0" height="42.0" rx="12" fill="url(#gCard)" stroke="#302a60" stroke-width="1"/><text x="50.0" y="258.0" font-family="-apple-system,BlinkMacSystemFont,'SF Pro Display','SF Pro Text','Segoe UI',Roboto,system-ui,sans-serif" font-size="12" font-weight="600" fill="#f2effc" text-anchor="start">Data Sharing</text><text x="270.0" y="258.0" font-family="-apple-system,BlinkMacSystemFont,'SF Pro Display','SF Pro Text','Segoe UI',Roboto,system-ui,sans-serif" font-size="11" font-weight="600" fill="#9a93c6" text-anchor="end">None</text><text x="34.0" y="282.0" font-family="-apple-system,BlinkMacSystemFont,'SF Pro Display','SF Pro Text','Segoe UI',Roboto,system-ui,sans-serif" font-size="12" font-weight="700" fill="#9a93c6" text-anchor="start" letter-spacing="0.4">Permissions</text><rect x="34.0" y="292.0" width="252.0" height="42.0" rx="12" fill="url(#gCard)" stroke="#302a60" stroke-width="1"/><rect x="53.84" y="307.24" width="4.32" height="7.92" rx="2.16" fill="none" stroke="#7b5cff" stroke-width="1.22" stroke-linecap="round" stroke-linejoin="round"/><path d="M51.68 313 c0 3.5999999999999996 8.64 3.5999999999999996 8.64 0 M56 316.6 v2.16" fill="none" stroke="#7b5cff" stroke-width="1.22" stroke-linecap="round" stroke-linejoin="round"/><text x="74.0" y="318.0" font-family="-apple-system,BlinkMacSystemFont,'SF Pro Display','SF Pro Text','Segoe UI',Roboto,system-ui,sans-serif" font-size="12" font-weight="600" fill="#f2effc" text-anchor="start">Microphone</text><rect x="242.0" y="303.0" width="34.0" height="20.0" rx="10" fill="#7bc47f"/><circle cx="266" cy="313" r="8" fill="#fff"/><rect x="34.0" y="342.0" width="252.0" height="42.0" rx="12" fill="url(#gCard)" stroke="#302a60" stroke-width="1"/><path d="M50.24 363 c2.88 -4.32 8.64 -4.32 11.52 0 c-2.88 4.32 -8.64 4.32 -11.52 0 Z" fill="none" stroke="#7b5cff" stroke-width="1.22" stroke-linecap="round" stroke-linejoin="round"/><circle cx="56" cy="363" r="1.728" fill="#7b5cff"/><text x="74.0" y="368.0" font-family="-apple-system,BlinkMacSystemFont,'SF Pro Display','SF Pro Text','Segoe UI',Roboto,system-ui,sans-serif" font-size="12" font-weight="600" fill="#f2effc" text-anchor="start">Camera</text><rect x="242.0" y="353.0" width="34.0" height="20.0" rx="10" fill="#7bc47f"/><circle cx="266" cy="363" r="8" fill="#fff"/><rect x="34.0" y="392.0" width="252.0" height="42.0" rx="12" fill="url(#gCard)" stroke="#302a60" stroke-width="1"/><circle cx="56" cy="413" r="5.3999999999999995" fill="none" stroke="#7b5cff" stroke-width="1.22" stroke-linecap="round" stroke-linejoin="round"/><path d="M58.52 410.48 l-1.584 3.5999999999999996 -3.5999999999999996 1.584 1.584 -3.5999999999999996 Z" fill="#7b5cff"/><text x="74.0" y="418.0" font-family="-apple-system,BlinkMacSystemFont,'SF Pro Display','SF Pro Text','Segoe UI',Roboto,system-ui,sans-serif" font-size="12" font-weight="600" fill="#f2effc" text-anchor="start">Location</text><rect x="242.0" y="403.0" width="34.0" height="20.0" rx="10" fill="#2a2450"/><circle cx="252" cy="413" r="8" fill="#fff"/><rect x="34.0" y="444.0" width="121.0" height="40.0" rx="13" fill="url(#gBrand)"/><text x="94.5" y="468.5" font-family="-apple-system,BlinkMacSystemFont,'SF Pro Display','SF Pro Text','Segoe UI',Roboto,system-ui,sans-serif" font-size="13" font-weight="700" fill="#fff" text-anchor="middle">Export My Data</text><rect x="165.0" y="444.0" width="121.0" height="40.0" rx="13" fill="rgba(224,104,122,0.16)" stroke="#e0687a" stroke-width="1"/><text x="225.5" y="468.5" font-family="-apple-system,BlinkMacSystemFont,'SF Pro Display','SF Pro Text','Segoe UI',Roboto,system-ui,sans-serif" font-size="13" font-weight="700" fill="#e0687a" text-anchor="middle">Delete Profile</text><rect x="20.0" y="586.0" width="280.0" height="52.0" rx="0" fill="#0e0a26"/><rect x="20" y="586" width="280" height="1" fill="#302a60"/><rect x="50.68" y="602.56" width="8.64" height="6.4799999999999995" rx="2" fill="none" stroke="#7b5cff" stroke-width="1.22" stroke-linecap="round" stroke-linejoin="round"/><path d="M52.48 602.56 v-2.16 a2.52 2.52 0 0 1 5.04 0 v2.16" fill="none" stroke="#7b5cff" stroke-width="1.22" stroke-linecap="round" stroke-linejoin="round"/><circle cx="55.0" cy="605.8" r="0.864" fill="#7b5cff"/><text x="55.0" y="626.0" font-family="-apple-system,BlinkMacSystemFont,'SF Pro Display','SF Pro Text','Segoe UI',Roboto,system-ui,sans-serif" font-size="8.2" font-weight="600" fill="#7b5cff" text-anchor="middle">Privacy</text><path d="M125.0 598.24 l5.04 2.16 v3.5999999999999996 c0 3.5999999999999996 -2.16 5.04 -5.04 6.4799999999999995 c-2.88 -1.44 -5.04 -2.88 -5.04 -6.4799999999999995 v-3.5999999999999996 Z" fill="none" stroke="#6a6399" stroke-width="1.22" stroke-linecap="round" stroke-linejoin="round"/><text x="125.0" y="626.0" font-family="-apple-system,BlinkMacSystemFont,'SF Pro Display','SF Pro Text','Segoe UI',Roboto,system-ui,sans-serif" font-size="8.2" font-weight="600" fill="#6a6399" text-anchor="middle">Security</text><rect x="194.064" y="597.52" width="1.8719999999999999" height="2.88" rx="1" transform="rotate(0 195.0 604)" fill="#6a6399"/><rect x="194.064" y="597.52" width="1.8719999999999999" height="2.88" rx="1" transform="rotate(45 195.0 604)" fill="#6a6399"/><rect x="194.064" y="597.52" width="1.8719999999999999" height="2.88" rx="1" transform="rotate(90 195.0 604)" fill="#6a6399"/><rect x="194.064" y="597.52" width="1.8719999999999999" height="2.88" rx="1" transform="rotate(135 195.0 604)" fill="#6a6399"/><rect x="194.064" y="597.52" width="1.8719999999999999" height="2.88" rx="1" transform="rotate(180 195.0 604)" fill="#6a6399"/><rect x="194.064" y="597.52" width="1.8719999999999999" height="2.88" rx="1" transform="rotate(225 195.0 604)" fill="#6a6399"/><rect x="194.064" y="597.52" width="1.8719999999999999" height="2.88" rx="1" transform="rotate(270 195.0 604)" fill="#6a6399"/><rect x="194.064" y="597.52" width="1.8719999999999999" height="2.88" rx="1" transform="rotate(315 195.0 604)" fill="#6a6399"/><circle cx="195.0" cy="604" r="3.312" fill="none" stroke="#6a6399" stroke-width="1.22" stroke-linecap="round" stroke-linejoin="round"/><text x="195.0" y="626.0" font-family="-apple-system,BlinkMacSystemFont,'SF Pro Display','SF Pro Text','Segoe UI',Roboto,system-ui,sans-serif" font-size="8.2" font-weight="600" fill="#6a6399" text-anchor="middle">Settings</text><circle cx="265.0" cy="604" r="5.3999999999999995" fill="none" stroke="#6a6399" stroke-width="1.22" stroke-linecap="round" stroke-linejoin="round"/><circle cx="265.0" cy="601.48" r="0.648" fill="#6a6399"/><path d="M265.0 603.28 v3.2399999999999998" fill="none" stroke="#6a6399" stroke-width="1.22" stroke-linecap="round" stroke-linejoin="round"/><text x="265.0" y="626.0" font-family="-apple-system,BlinkMacSystemFont,'SF Pro Display','SF Pro Text','Segoe UI',Roboto,system-ui,sans-serif" font-size="8.2" font-weight="600" fill="#6a6399" text-anchor="middle">About</text><path d="M131.0 627.5 L121.0 632 L131.0 636.5 Z" fill="none" stroke="rgba(255,255,255,0.5)" stroke-width="1.3" stroke-linejoin="round"/><circle cx="160.0" cy="632" r="4.6" fill="none" stroke="rgba(255,255,255,0.5)" stroke-width="1.3"/><rect x="189.4" y="627.4" width="9.2" height="9.2" rx="1.6" fill="none" stroke="rgba(255,255,255,0.5)" stroke-width="1.3"/></svg>