<svg xmlns="http://www.w3.org/2000/svg" width="320" height="660" viewBox="0 0 320 660" role="img" aria-label="Providers screen"><defs>
      <linearGradient id="gScr" x1="0" y1="0" x2="0.6" y2="1">
        <stop offset="0" stop-color="#181235"/><stop offset="1" stop-color="#0c0920"/></linearGradient>
      <linearGradient id="gFrame" x1="0" y1="0" x2="1" y2="1">
        <stop offset="0" stop-color="#2a2352"/><stop offset="1" stop-color="#0a0818"/></linearGradient>
      <linearGradient id="gCard" x1="0" y1="0" x2="0.4" y2="1">
        <stop offset="0" stop-color="#201a48"/><stop offset="1" stop-color="#181240"/></linearGradient>
      <linearGradient id="gBrand" x1="0" y1="0" x2="1" y2="0">
        <stop offset="0" stop-color="#7b5cff"/><stop offset="1" stop-color="#9d7bff"/></linearGradient>
      <linearGradient id="gAmber" x1="0" y1="0" x2="1" y2="0">
        <stop offset="0" stop-color="#ffb84d"/><stop offset="1" stop-color="#ffd27a"/></linearGradient>
      <linearGradient id="mV" x1="0" y1="0" x2="1" y2="0"><stop offset="0" stop-color="#7b5cff"/><stop offset="1" stop-color="#9d7bff"/></linearGradient>
      <linearGradient id="mA" x1="0" y1="0" x2="1" y2="0"><stop offset="0" stop-color="#ffb84d"/><stop offset="1" stop-color="#ff9f45"/></linearGradient>
      <linearGradient id="mG" x1="0" y1="0" x2="1" y2="0"><stop offset="0" stop-color="#5fb87a"/><stop offset="1" stop-color="#7bc47f"/></linearGradient>
      <linearGradient id="mC" x1="0" y1="0" x2="1" y2="0"><stop offset="0" stop-color="#6bb6d6"/><stop offset="1" stop-color="#9fd8e8"/></linearGradient>
      <radialGradient id="orb" cx="36%" cy="30%" r="78%">
        <stop offset="0" stop-color="#d9ccff"/><stop offset="38%" stop-color="#7b5cff"/>
        <stop offset="78%" stop-color="#3f3bc0"/><stop offset="100%" stop-color="#140f34"/></radialGradient>
      <radialGradient id="glow" cx="50%" cy="50%" r="50%">
        <stop offset="0" stop-color="#9fd8e8" stop-opacity="0.5"/><stop offset="1" stop-color="#9fd8e8" stop-opacity="0"/></radialGradient>
    </defs><rect x="10.0" y="12.0" width="300.0" height="636.0" rx="40" fill="url(#gFrame)"/><rect x="20.0" y="22.0" width="280.0" height="616.0" rx="31" fill="url(#gScr)"/><circle cx="160.0" cy="34" r="4.5" fill="#05070d"/><circle cx="160.0" cy="34" r="4.5" fill="none" stroke="#302a60" stroke-width="1"/><text x="34.0" y="56.0" font-family="-apple-system,BlinkMacSystemFont,'SF Pro Display','SF Pro Text','Segoe UI',Roboto,system-ui,sans-serif" font-size="11" font-weight="600" fill="#c7c9d9" text-anchor="start">9:41</text><rect x="277.0" y="49.0" width="8.0" height="12.0" rx="1.5" fill="none" stroke="#c7c9d9" stroke-width="1.2"/><rect x="278.5" y="53.0" width="5.0" height="7.0" rx="1" fill="#c7c9d9"/><path d="M266 61 L271 52 L276 61 Z" fill="#c7c9d9"/><path d="M253 61 L253 54 L261 61 Z" fill="#c7c9d9"/><text x="34.0" y="88.0" font-family="-apple-system,BlinkMacSystemFont,'SF Pro Display','SF Pro Text','Segoe UI',Roboto,system-ui,sans-serif" font-size="20" font-weight="700" fill="#f2effc" text-anchor="start" letter-spacing="-0.4">Providers</text><text x="34.0" y="106.0" font-family="-apple-system,BlinkMacSystemFont,'SF Pro Display','SF Pro Text','Segoe UI',Roboto,system-ui,sans-serif" font-size="11.5" font-weight="400" fill="#9a93c6" text-anchor="start">When AI hands off to a human</text><rect x="34.0" y="122.0" width="252.0" height="52.0" rx="16" fill="url(#gCard)" stroke="#302a60" stroke-width="1"/><rect x="46.0" y="131.0" width="34.0" height="34.0" rx="11" fill="rgba(224,104,122,0.16)"/><path d="M63 141.56 v12.88 M56.56 148.0 h12.88" fill="none" stroke="#e0687a" stroke-width="2.76" stroke-linecap="round"/><text x="90.0" y="142.0" font-family="-apple-system,BlinkMacSystemFont,'SF Pro Display','SF Pro Text','Segoe UI',Roboto,system-ui,sans-serif" font-size="13" font-weight="600" fill="#f2effc" text-anchor="start">Bay Area Wellness</text><text x="90.0" y="157.0" font-family="-apple-system,BlinkMacSystemFont,'SF Pro Display','SF Pro Text','Segoe UI',Roboto,system-ui,sans-serif" font-size="11" font-weight="400" fill="#9a93c6" text-anchor="start">mental health · 0.8 mi</text><rect x="235.2" y="131.0" width="36.8" height="17.0" rx="8" fill="rgba(123,196,127,0.16)"/><text x="253.6" y="143.0" font-family="-apple-system,BlinkMacSystemFont,'SF Pro Display','SF Pro Text','Segoe UI',Roboto,system-ui,sans-serif" font-size="9.5" font-weight="700" fill="#7bc47f" text-anchor="middle" letter-spacing="0.4">OPEN</text><rect x="34.0" y="184.0" width="252.0" height="52.0" rx="16" fill="url(#gCard)" stroke="#302a60" stroke-width="1"/><rect x="46.0" y="193.0" width="34.0" height="34.0" rx="11" fill="rgba(123,196,127,0.16)"/><rect x="56.56" y="210.92000000000002" width="2.9440000000000004" height="4.6000000000000005" rx="1" fill="#7bc47f"/><rect x="61.160000000000004" y="207.24" width="2.9440000000000004" height="8.280000000000001" rx="1" fill="#7bc47f"/><rect x="65.76" y="211.84" width="2.9440000000000004" height="3.68" rx="1" fill="#7bc47f"/><rect x="70.36" y="205.4" width="2.9440000000000004" height="10.120000000000001" rx="1" fill="#7bc47f"/><text x="90.0" y="204.0" font-family="-apple-system,BlinkMacSystemFont,'SF Pro Display','SF Pro Text','Segoe UI',Roboto,system-ui,sans-serif" font-size="13" font-weight="600" fill="#f2effc" text-anchor="start">Certified Financial Planner</text><text x="90.0" y="219.0" font-family="-apple-system,BlinkMacSystemFont,'SF Pro Display','SF Pro Text','Segoe UI',Roboto,system-ui,sans-serif" font-size="11" font-weight="400" fill="#9a93c6" text-anchor="start">finance · telehealth</text><rect x="34.0" y="246.0" width="252.0" height="52.0" rx="16" fill="url(#gCard)" stroke="#302a60" stroke-width="1"/><rect x="46.0" y="255.0" width="34.0" height="34.0" rx="11" fill="rgba(159,216,232,0.16)"/><path d="M61.16 273.84 l-2.7600000000000002 2.7600000000000002 a2.7600000000000002 2.7600000000000002 0 0 1 -3.68 -3.68 l2.7600000000000002 -2.7600000000000002 m5.5200000000000005 -1.84 l2.7600000000000002 -2.7600000000000002 a2.7600000000000002 2.7600000000000002 0 0 1 3.68 3.68 l-2.7600000000000002 2.7600000000000002 M60.24 274.76 l5.5200000000000005 -5.5200000000000005" fill="none" stroke="#9fd8e8" stroke-width="1.56" stroke-linecap="round" stroke-linejoin="round"/><text x="90.0" y="266.0" font-family="-apple-system,BlinkMacSystemFont,'SF Pro Display','SF Pro Text','Segoe UI',Roboto,system-ui,sans-serif" font-size="13" font-weight="600" fill="#f2effc" text-anchor="start">Consented handoff</text><text x="90.0" y="281.0" font-family="-apple-system,BlinkMacSystemFont,'SF Pro Display','SF Pro Text','Segoe UI',Roboto,system-ui,sans-serif" font-size="11" font-weight="400" fill="#9a93c6" text-anchor="start">session sealed in the vault, revocable</text><rect x="20.0" y="586.0" width="280.0" height="52.0" rx="0" fill="#0e0a26"/><rect x="20" y="586" width="280" height="1" fill="#302a60"/><circle cx="55.0" cy="604" r="5.3999999999999995" fill="none" stroke="#7b5cff" stroke-width="1.22" stroke-linecap="round" stroke-linejoin="round"/><path d="M57.52 601.48 l-1.584 3.5999999999999996 -3.5999999999999996 1.584 1.584 -3.5999999999999996 Z" fill="#7b5cff"/><text x="55.0" y="626.0" font-family="-apple-system,BlinkMacSystemFont,'SF Pro Display','SF Pro Text','Segoe UI',Roboto,system-ui,sans-serif" font-size="8.2" font-weight="600" fill="#7b5cff" text-anchor="middle">Discover</text><rect x="119.96" y="598.96" width="4.32" height="4.32" rx="1.4" fill="none" stroke="#6a6399" stroke-width="1.22" stroke-linecap="round" stroke-linejoin="round"/><rect x="125.72" y="598.96" width="4.32" height="4.32" rx="1.4" fill="none" stroke="#6a6399" stroke-width="1.22" stroke-linecap="round" stroke-linejoin="round"/><rect x="119.96" y="604.72" width="4.32" height="4.32" rx="1.4" fill="none" stroke="#6a6399" stroke-width="1.22" stroke-linecap="round" stroke-linejoin="round"/><rect x="125.72" y="604.72" width="4.32" height="4.32" rx="1.4" fill="none" stroke="#6a6399" stroke-width="1.22" stroke-linecap="round" stroke-linejoin="round"/><text x="125.0" y="626.0" font-family="-apple-system,BlinkMacSystemFont,'SF Pro Display','SF Pro Text','Segoe UI',Roboto,system-ui,sans-serif" font-size="8.2" font-weight="600" fill="#6a6399" text-anchor="middle">Categories</text><path d="M195.0 608.32 C188.52 601.84,189.96 597.52,195.0 601.12 C200.04 597.52,201.48 601.84,195.0 608.32 Z" fill="#6a6399"/><text x="195.0" y="626.0" font-family="-apple-system,BlinkMacSystemFont,'SF Pro Display','SF Pro Text','Segoe UI',Roboto,system-ui,sans-serif" font-size="8.2" font-weight="600" fill="#6a6399" text-anchor="middle">My List</text><path d="M260.68 600.4 h8.64 M260.68 604 h8.64 M260.68 607.6 h8.64" fill="none" stroke="#6a6399" stroke-width="1.22" stroke-linecap="round" stroke-linejoin="round"/><text x="265.0" y="626.0" font-family="-apple-system,BlinkMacSystemFont,'SF Pro Display','SF Pro Text','Segoe UI',Roboto,system-ui,sans-serif" font-size="8.2" font-weight="600" fill="#6a6399" text-anchor="middle">Listings</text><path d="M131.0 627.5 L121.0 632 L131.0 636.5 Z" fill="none" stroke="rgba(255,255,255,0.5)" stroke-width="1.3" stroke-linejoin="round"/><circle cx="160.0" cy="632" r="4.6" fill="none" stroke="rgba(255,255,255,0.5)" stroke-width="1.3"/><rect x="189.4" y="627.4" width="9.2" height="9.2" rx="1.6" fill="none" stroke="rgba(255,255,255,0.5)" stroke-width="1.3"/></svg>