<svg xmlns="http://www.w3.org/2000/svg" width="320" height="660" viewBox="0 0 320 660" role="img" aria-label="Enable Access screen"><defs>
      <linearGradient id="gScr" x1="0" y1="0" x2="0.6" y2="1">
        <stop offset="0" stop-color="#181235"/><stop offset="1" stop-color="#0c0920"/></linearGradient>
      <linearGradient id="gFrame" x1="0" y1="0" x2="1" y2="1">
        <stop offset="0" stop-color="#2a2352"/><stop offset="1" stop-color="#0a0818"/></linearGradient>
      <linearGradient id="gCard" x1="0" y1="0" x2="0.4" y2="1">
        <stop offset="0" stop-color="#201a48"/><stop offset="1" stop-color="#181240"/></linearGradient>
      <linearGradient id="gBrand" x1="0" y1="0" x2="1" y2="0">
        <stop offset="0" stop-color="#7b5cff"/><stop offset="1" stop-color="#9d7bff"/></linearGradient>
      <linearGradient id="gAmber" x1="0" y1="0" x2="1" y2="0">
        <stop offset="0" stop-color="#ffb84d"/><stop offset="1" stop-color="#ffd27a"/></linearGradient>
      <linearGradient id="mV" x1="0" y1="0" x2="1" y2="0"><stop offset="0" stop-color="#7b5cff"/><stop offset="1" stop-color="#9d7bff"/></linearGradient>
      <linearGradient id="mA" x1="0" y1="0" x2="1" y2="0"><stop offset="0" stop-color="#ffb84d"/><stop offset="1" stop-color="#ff9f45"/></linearGradient>
      <linearGradient id="mG" x1="0" y1="0" x2="1" y2="0"><stop offset="0" stop-color="#5fb87a"/><stop offset="1" stop-color="#7bc47f"/></linearGradient>
      <linearGradient id="mC" x1="0" y1="0" x2="1" y2="0"><stop offset="0" stop-color="#6bb6d6"/><stop offset="1" stop-color="#9fd8e8"/></linearGradient>
      <radialGradient id="orb" cx="36%" cy="30%" r="78%">
        <stop offset="0" stop-color="#d9ccff"/><stop offset="38%" stop-color="#7b5cff"/>
        <stop offset="78%" stop-color="#3f3bc0"/><stop offset="100%" stop-color="#140f34"/></radialGradient>
      <radialGradient id="glow" cx="50%" cy="50%" r="50%">
        <stop offset="0" stop-color="#9fd8e8" stop-opacity="0.5"/><stop offset="1" stop-color="#9fd8e8" stop-opacity="0"/></radialGradient>
    </defs><rect x="10.0" y="12.0" width="300.0" height="636.0" rx="40" fill="url(#gFrame)"/><rect x="20.0" y="22.0" width="280.0" height="616.0" rx="31" fill="url(#gScr)"/><circle cx="160.0" cy="34" r="4.5" fill="#05070d"/><circle cx="160.0" cy="34" r="4.5" fill="none" stroke="#302a60" stroke-width="1"/><text x="34.0" y="56.0" font-family="-apple-system,BlinkMacSystemFont,'SF Pro Display','SF Pro Text','Segoe UI',Roboto,system-ui,sans-serif" font-size="11" font-weight="600" fill="#c7c9d9" text-anchor="start">9:41</text><rect x="277.0" y="49.0" width="8.0" height="12.0" rx="1.5" fill="none" stroke="#c7c9d9" stroke-width="1.2"/><rect x="278.5" y="53.0" width="5.0" height="7.0" rx="1" fill="#c7c9d9"/><path d="M266 61 L271 52 L276 61 Z" fill="#c7c9d9"/><path d="M253 61 L253 54 L261 61 Z" fill="#c7c9d9"/><text x="34.0" y="88.0" font-family="-apple-system,BlinkMacSystemFont,'SF Pro Display','SF Pro Text','Segoe UI',Roboto,system-ui,sans-serif" font-size="20" font-weight="700" fill="#f2effc" text-anchor="start" letter-spacing="-0.4">Enable Access</text><text x="34.0" y="106.0" font-family="-apple-system,BlinkMacSystemFont,'SF Pro Display','SF Pro Text','Segoe UI',Roboto,system-ui,sans-serif" font-size="11.5" font-weight="400" fill="#9a93c6" text-anchor="start">Permissions, your call</text><text x="34.0" y="122.0" font-family="-apple-system,BlinkMacSystemFont,'SF Pro Display','SF Pro Text','Segoe UI',Roboto,system-ui,sans-serif" font-size="10.5" font-weight="400" fill="#9a93c6" text-anchor="start">Adjust any of these anytime in Settings.</text><rect x="34.0" y="150.0" width="252.0" height="56.0" rx="15" fill="url(#gCard)" stroke="#302a60" stroke-width="1"/><rect x="46.0" y="161.0" width="34.0" height="34.0" rx="11" fill="rgba(123,92,255,0.16)"/><circle cx="63" cy="178" r="6.9" fill="none" stroke="#7b5cff" stroke-width="1.56" stroke-linecap="round" stroke-linejoin="round"/><circle cx="63" cy="174.78" r="0.8280000000000001" fill="#7b5cff"/><path d="M63 177.08 v4.140000000000001" fill="none" stroke="#7b5cff" stroke-width="1.56" stroke-linecap="round" stroke-linejoin="round"/><text x="92.0" y="174.0" font-family="-apple-system,BlinkMacSystemFont,'SF Pro Display','SF Pro Text','Segoe UI',Roboto,system-ui,sans-serif" font-size="12.5" font-weight="650" fill="#f2effc" text-anchor="start">Notifications</text><text x="92.0" y="190.0" font-family="-apple-system,BlinkMacSystemFont,'SF Pro Display','SF Pro Text','Segoe UI',Roboto,system-ui,sans-serif" font-size="10.5" font-weight="400" fill="#9a93c6" text-anchor="start">check-ins &amp; summons</text><rect x="238.0" y="168.0" width="40.0" height="22.0" rx="11" fill="#7bc47f"/><circle cx="266" cy="179" r="8.5" fill="#fff"/><rect x="34.0" y="214.0" width="252.0" height="56.0" rx="15" fill="url(#gCard)" stroke="#302a60" stroke-width="1"/><rect x="46.0" y="225.0" width="34.0" height="34.0" rx="11" fill="rgba(159,216,232,0.16)"/><rect x="55.64" y="236.48" width="14.72" height="11.040000000000001" rx="2" fill="none" stroke="#9fd8e8" stroke-width="1.56" stroke-linecap="round" stroke-linejoin="round"/><circle cx="60.24" cy="241.08" r="1.6560000000000001" fill="none" stroke="#9fd8e8" stroke-width="1.56" stroke-linecap="round" stroke-linejoin="round"/><path d="M55.64 245.68 l4.6000000000000005 -3.68 3.68 2.7600000000000002 2.7600000000000002 -1.84 3.68 2.7600000000000002" fill="none" stroke="#9fd8e8" stroke-width="1.56" stroke-linecap="round" stroke-linejoin="round"/><text x="92.0" y="238.0" font-family="-apple-system,BlinkMacSystemFont,'SF Pro Display','SF Pro Text','Segoe UI',Roboto,system-ui,sans-serif" font-size="12.5" font-weight="650" fill="#f2effc" text-anchor="start">Camera &amp; Mic</text><text x="92.0" y="254.0" font-family="-apple-system,BlinkMacSystemFont,'SF Pro Display','SF Pro Text','Segoe UI',Roboto,system-ui,sans-serif" font-size="10.5" font-weight="400" fill="#9a93c6" text-anchor="start">live video &amp; AR/VR</text><rect x="238.0" y="232.0" width="40.0" height="22.0" rx="11" fill="#7bc47f"/><circle cx="266" cy="243" r="8.5" fill="#fff"/><rect x="34.0" y="278.0" width="252.0" height="56.0" rx="15" fill="url(#gCard)" stroke="#302a60" stroke-width="1"/><rect x="46.0" y="289.0" width="34.0" height="34.0" rx="11" fill="rgba(224,104,122,0.16)"/><path d="M63 311.52 C54.72 303.24,56.56 297.72,63 302.32 C69.44 297.72,71.28 303.24,63 311.52 Z" fill="#e0687a"/><text x="92.0" y="302.0" font-family="-apple-system,BlinkMacSystemFont,'SF Pro Display','SF Pro Text','Segoe UI',Roboto,system-ui,sans-serif" font-size="12.5" font-weight="650" fill="#f2effc" text-anchor="start">Health &amp; Motion</text><text x="92.0" y="318.0" font-family="-apple-system,BlinkMacSystemFont,'SF Pro Display','SF Pro Text','Segoe UI',Roboto,system-ui,sans-serif" font-size="10.5" font-weight="400" fill="#9a93c6" text-anchor="start">the JIM-mini tandem</text><rect x="238.0" y="296.0" width="40.0" height="22.0" rx="11" fill="#0d0a24" stroke="#302a60" stroke-width="1"/><circle cx="250" cy="307" r="8.5" fill="#fff"/><rect x="34.0" y="342.0" width="252.0" height="56.0" rx="15" fill="url(#gCard)" stroke="#302a60" stroke-width="1"/><rect x="46.0" y="353.0" width="34.0" height="34.0" rx="11" fill="rgba(255,184,77,0.16)"/><circle cx="59.32" cy="366.32" r="2.7600000000000002" fill="none" stroke="#ffb84d" stroke-width="1.56" stroke-linecap="round" stroke-linejoin="round"/><circle cx="66.68" cy="366.32" r="2.7600000000000002" fill="none" stroke="#ffb84d" stroke-width="1.56" stroke-linecap="round" stroke-linejoin="round"/><path d="M54.72 375.52 c0 -4.6000000000000005 5.5200000000000005 -4.6000000000000005 5.5200000000000005 0 M62.08 375.52 c0 -4.6000000000000005 6.44 -4.6000000000000005 8.280000000000001 -0.92" fill="none" stroke="#ffb84d" stroke-width="1.56" stroke-linecap="round" stroke-linejoin="round"/><text x="92.0" y="366.0" font-family="-apple-system,BlinkMacSystemFont,'SF Pro Display','SF Pro Text','Segoe UI',Roboto,system-ui,sans-serif" font-size="12.5" font-weight="650" fill="#f2effc" text-anchor="start">Contacts</text><text x="92.0" y="382.0" font-family="-apple-system,BlinkMacSystemFont,'SF Pro Display','SF Pro Text','Segoe UI',Roboto,system-ui,sans-serif" font-size="10.5" font-weight="400" fill="#9a93c6" text-anchor="start">map to relationships</text><rect x="238.0" y="360.0" width="40.0" height="22.0" rx="11" fill="#0d0a24" stroke="#302a60" stroke-width="1"/><circle cx="250" cy="371" r="8.5" fill="#fff"/><rect x="34.0" y="408.0" width="252.0" height="44.0" rx="13" fill="url(#gBrand)"/><text x="160.0" y="434.5" font-family="-apple-system,BlinkMacSystemFont,'SF Pro Display','SF Pro Text','Segoe UI',Roboto,system-ui,sans-serif" font-size="13" font-weight="700" fill="#fff" text-anchor="middle">Continue</text><rect x="20.0" y="586.0" width="280.0" height="52.0" rx="0" fill="#0e0a26"/><rect x="20" y="586" width="280" height="1" fill="#302a60"/><circle cx="55.0" cy="604" r="5.3999999999999995" fill="none" stroke="#7b5cff" stroke-width="1.22" stroke-linecap="round" stroke-linejoin="round"/><circle cx="55.0" cy="604" r="2.52" fill="none" stroke="#7b5cff" stroke-width="1.22" stroke-linecap="round" stroke-linejoin="round"/><circle cx="55.0" cy="604" r="0.648" fill="#7b5cff"/><text x="55.0" y="626.0" font-family="-apple-system,BlinkMacSystemFont,'SF Pro Display','SF Pro Text','Segoe UI',Roboto,system-ui,sans-serif" font-size="8.2" font-weight="600" fill="#7b5cff" text-anchor="middle">Home</text><circle cx="122.12" cy="601.12" r="2.16" fill="none" stroke="#6a6399" stroke-width="1.22" stroke-linecap="round" stroke-linejoin="round"/><circle cx="127.88" cy="601.12" r="2.16" fill="none" stroke="#6a6399" stroke-width="1.22" stroke-linecap="round" stroke-linejoin="round"/><path d="M118.52 608.32 c0 -3.5999999999999996 4.32 -3.5999999999999996 4.32 0 M124.28 608.32 c0 -3.5999999999999996 5.04 -3.5999999999999996 6.4799999999999995 -0.72" fill="none" stroke="#6a6399" stroke-width="1.22" stroke-linecap="round" stroke-linejoin="round"/><text x="125.0" y="626.0" font-family="-apple-system,BlinkMacSystemFont,'SF Pro Display','SF Pro Text','Segoe UI',Roboto,system-ui,sans-serif" font-size="8.2" font-weight="600" fill="#6a6399" text-anchor="middle">Relationships</text><rect x="189.96" y="604.72" width="2.304" height="3.5999999999999996" rx="1" fill="#6a6399"/><rect x="193.56" y="601.84" width="2.304" height="6.4799999999999995" rx="1" fill="#6a6399"/><rect x="197.16" y="605.44" width="2.304" height="2.88" rx="1" fill="#6a6399"/><rect x="200.76000000000002" y="600.4000000000001" width="2.304" height="7.92" rx="1" fill="#6a6399"/><text x="195.0" y="626.0" font-family="-apple-system,BlinkMacSystemFont,'SF Pro Display','SF Pro Text','Segoe UI',Roboto,system-ui,sans-serif" font-size="8.2" font-weight="600" fill="#6a6399" text-anchor="middle">Stats</text><rect x="264.064" y="597.52" width="1.8719999999999999" height="2.88" rx="1" transform="rotate(0 265.0 604)" fill="#6a6399"/><rect x="264.064" y="597.52" width="1.8719999999999999" height="2.88" rx="1" transform="rotate(45 265.0 604)" fill="#6a6399"/><rect x="264.064" y="597.52" width="1.8719999999999999" height="2.88" rx="1" transform="rotate(90 265.0 604)" fill="#6a6399"/><rect x="264.064" y="597.52" width="1.8719999999999999" height="2.88" rx="1" transform="rotate(135 265.0 604)" fill="#6a6399"/><rect x="264.064" y="597.52" width="1.8719999999999999" height="2.88" rx="1" transform="rotate(180 265.0 604)" fill="#6a6399"/><rect x="264.064" y="597.52" width="1.8719999999999999" height="2.88" rx="1" transform="rotate(225 265.0 604)" fill="#6a6399"/><rect x="264.064" y="597.52" width="1.8719999999999999" height="2.88" rx="1" transform="rotate(270 265.0 604)" fill="#6a6399"/><rect x="264.064" y="597.52" width="1.8719999999999999" height="2.88" rx="1" transform="rotate(315 265.0 604)" fill="#6a6399"/><circle cx="265.0" cy="604" r="3.312" fill="none" stroke="#6a6399" stroke-width="1.22" stroke-linecap="round" stroke-linejoin="round"/><text x="265.0" y="626.0" font-family="-apple-system,BlinkMacSystemFont,'SF Pro Display','SF Pro Text','Segoe UI',Roboto,system-ui,sans-serif" font-size="8.2" font-weight="600" fill="#6a6399" text-anchor="middle">More</text><path d="M131.0 627.5 L121.0 632 L131.0 636.5 Z" fill="none" stroke="rgba(255,255,255,0.5)" stroke-width="1.3" stroke-linejoin="round"/><circle cx="160.0" cy="632" r="4.6" fill="none" stroke="rgba(255,255,255,0.5)" stroke-width="1.3"/><rect x="189.4" y="627.4" width="9.2" height="9.2" rx="1.6" fill="none" stroke="rgba(255,255,255,0.5)" stroke-width="1.3"/></svg>