<svg xmlns="http://www.w3.org/2000/svg" width="320" height="660" viewBox="0 0 320 660" role="img" aria-label="Live Video screen"><defs>
      <linearGradient id="gScr" x1="0" y1="0" x2="0.6" y2="1">
        <stop offset="0" stop-color="#181235"/><stop offset="1" stop-color="#0c0920"/></linearGradient>
      <linearGradient id="gFrame" x1="0" y1="0" x2="1" y2="1">
        <stop offset="0" stop-color="#2a2352"/><stop offset="1" stop-color="#0a0818"/></linearGradient>
      <linearGradient id="gCard" x1="0" y1="0" x2="0.4" y2="1">
        <stop offset="0" stop-color="#201a48"/><stop offset="1" stop-color="#181240"/></linearGradient>
      <linearGradient id="gBrand" x1="0" y1="0" x2="1" y2="0">
        <stop offset="0" stop-color="#7b5cff"/><stop offset="1" stop-color="#9d7bff"/></linearGradient>
      <linearGradient id="gAmber" x1="0" y1="0" x2="1" y2="0">
        <stop offset="0" stop-color="#ffb84d"/><stop offset="1" stop-color="#ffd27a"/></linearGradient>
      <linearGradient id="mV" x1="0" y1="0" x2="1" y2="0"><stop offset="0" stop-color="#7b5cff"/><stop offset="1" stop-color="#9d7bff"/></linearGradient>
      <linearGradient id="mA" x1="0" y1="0" x2="1" y2="0"><stop offset="0" stop-color="#ffb84d"/><stop offset="1" stop-color="#ff9f45"/></linearGradient>
      <linearGradient id="mG" x1="0" y1="0" x2="1" y2="0"><stop offset="0" stop-color="#5fb87a"/><stop offset="1" stop-color="#7bc47f"/></linearGradient>
      <linearGradient id="mC" x1="0" y1="0" x2="1" y2="0"><stop offset="0" stop-color="#6bb6d6"/><stop offset="1" stop-color="#9fd8e8"/></linearGradient>
      <radialGradient id="orb" cx="36%" cy="30%" r="78%">
        <stop offset="0" stop-color="#d9ccff"/><stop offset="38%" stop-color="#7b5cff"/>
        <stop offset="78%" stop-color="#3f3bc0"/><stop offset="100%" stop-color="#140f34"/></radialGradient>
      <radialGradient id="glow" cx="50%" cy="50%" r="50%">
        <stop offset="0" stop-color="#7b5cff" stop-opacity="0.5"/><stop offset="1" stop-color="#7b5cff" stop-opacity="0"/></radialGradient>
    </defs><rect x="10.0" y="12.0" width="300.0" height="636.0" rx="40" fill="url(#gFrame)"/><rect x="20.0" y="22.0" width="280.0" height="616.0" rx="31" fill="url(#gScr)"/><circle cx="160.0" cy="34" r="4.5" fill="#05070d"/><circle cx="160.0" cy="34" r="4.5" fill="none" stroke="#302a60" stroke-width="1"/><text x="34.0" y="56.0" font-family="-apple-system,BlinkMacSystemFont,'SF Pro Display','SF Pro Text','Segoe UI',Roboto,system-ui,sans-serif" font-size="11" font-weight="600" fill="#c7c9d9" text-anchor="start">9:41</text><rect x="277.0" y="49.0" width="8.0" height="12.0" rx="1.5" fill="none" stroke="#c7c9d9" stroke-width="1.2"/><rect x="278.5" y="53.0" width="5.0" height="7.0" rx="1" fill="#c7c9d9"/><path d="M266 61 L271 52 L276 61 Z" fill="#c7c9d9"/><path d="M253 61 L253 54 L261 61 Z" fill="#c7c9d9"/><text x="34.0" y="88.0" font-family="-apple-system,BlinkMacSystemFont,'SF Pro Display','SF Pro Text','Segoe UI',Roboto,system-ui,sans-serif" font-size="20" font-weight="700" fill="#f2effc" text-anchor="start" letter-spacing="-0.4">Live Video</text><text x="34.0" y="106.0" font-family="-apple-system,BlinkMacSystemFont,'SF Pro Display','SF Pro Text','Segoe UI',Roboto,system-ui,sans-serif" font-size="11.5" font-weight="400" fill="#9a93c6" text-anchor="start">Face-to-face with your AI</text><rect x="34.0" y="122.0" width="252.0" height="196.0" rx="18" fill="url(#orb)" stroke="#302a60" stroke-width="1"/><rect x="34.0" y="122.0" width="252.0" height="196.0" rx="18" fill="url(#glow)"/><circle cx="160.0" cy="208.0" r="66.0" fill="url(#glow)"/><circle cx="160.0" cy="208.0" r="44" fill="url(#orb)"/><circle cx="160.0" cy="208.0" r="44" fill="none" stroke="rgba(255,255,255,0.20)" stroke-width="1"/><ellipse cx="147.7" cy="193.0" rx="13.2" ry="7.9" fill="rgba(255,255,255,0.40)"/><circle cx="160.0" cy="198.4" r="6.84" fill="none" stroke="rgba(255,255,255,0.95)" stroke-width="3.23" stroke-linecap="round" stroke-linejoin="round"/><path d="M148.6 219.3 c0 -11.399999999999999 22.799999999999997 -11.399999999999999 22.799999999999997 0" fill="none" stroke="rgba(255,255,255,0.95)" stroke-width="3.23" stroke-linecap="round" stroke-linejoin="round"/><rect x="48.0" y="136.0" width="58.0" height="20.0" rx="10" fill="rgba(224,104,122,0.9)"/><circle cx="60" cy="146" r="3.5" fill="#fff"/><text x="68.0" y="150.0" font-family="-apple-system,BlinkMacSystemFont,'SF Pro Display','SF Pro Text','Segoe UI',Roboto,system-ui,sans-serif" font-size="10.5" font-weight="750" fill="#fff" text-anchor="start">LIVE</text><text x="48.0" y="292.0" font-family="-apple-system,BlinkMacSystemFont,'SF Pro Display','SF Pro Text','Segoe UI',Roboto,system-ui,sans-serif" font-size="13" font-weight="700" fill="#fff" text-anchor="start">Ava</text><text x="48.0" y="306.0" font-family="-apple-system,BlinkMacSystemFont,'SF Pro Display','SF Pro Text','Segoe UI',Roboto,system-ui,sans-serif" font-size="9.5" font-weight="400" fill="rgba(255,255,255,0.75)" text-anchor="start">1080p · end-to-end encrypted</text><rect x="218.0" y="232.0" width="56.0" height="74.0" rx="12" fill="#0d0a24" stroke="rgba(255,255,255,0.18)" stroke-width="1"/><circle cx="246" cy="261.2" r="4.32" fill="none" stroke="#9a93c6" stroke-width="2.04" stroke-linecap="round" stroke-linejoin="round"/><path d="M238.8 274.4 c0 -7.199999999999999 14.399999999999999 -7.199999999999999 14.399999999999999 0" fill="none" stroke="#9a93c6" stroke-width="2.04" stroke-linecap="round" stroke-linejoin="round"/><text x="246.0" y="298.0" font-family="-apple-system,BlinkMacSystemFont,'SF Pro Display','SF Pro Text','Segoe UI',Roboto,system-ui,sans-serif" font-size="9" font-weight="600" fill="#9a93c6" text-anchor="middle">You</text><circle cx="58.0" cy="360.0" r="26.0" fill="rgba(255,255,255,0.06)" stroke="#302a60" stroke-width="1"/><rect x="54.4" y="350.4" width="7.199999999999999" height="13.2" rx="3.5999999999999996" fill="none" stroke="#f2effc" stroke-width="2.04" stroke-linecap="round" stroke-linejoin="round"/><path d="M50.8 360.0 c0 6.0 14.399999999999999 6.0 14.399999999999999 0 M58.0 366.0 v3.5999999999999996" fill="none" stroke="#f2effc" stroke-width="2.04" stroke-linecap="round" stroke-linejoin="round"/><circle cx="126.0" cy="360.0" r="26.0" fill="rgba(255,255,255,0.06)" stroke="#302a60" stroke-width="1"/><rect x="116.4" y="352.8" width="19.2" height="14.399999999999999" rx="2" fill="none" stroke="#f2effc" stroke-width="2.04" stroke-linecap="round" stroke-linejoin="round"/><circle cx="122.4" cy="358.8" r="2.16" fill="none" stroke="#f2effc" stroke-width="2.04" stroke-linecap="round" stroke-linejoin="round"/><path d="M116.4 364.8 l6.0 -4.8 4.8 3.5999999999999996 3.5999999999999996 -2.4 4.8 3.5999999999999996" fill="none" stroke="#f2effc" stroke-width="2.04" stroke-linecap="round" stroke-linejoin="round"/><circle cx="194.0" cy="360.0" r="26.0" fill="rgba(255,255,255,0.06)" stroke="#302a60" stroke-width="1"/><rect x="186.8" y="350.4" width="14.399999999999999" height="19.2" rx="3" fill="none" stroke="#f2effc" stroke-width="2.04" stroke-linecap="round" stroke-linejoin="round"/><circle cx="194.0" cy="362.4" r="4.08" fill="none" stroke="#f2effc" stroke-width="2.04" stroke-linecap="round" stroke-linejoin="round"/><circle cx="194.0" cy="354.0" r="1.2" fill="#f2effc"/><circle cx="262.0" cy="360.0" r="26.0" fill="rgba(224,104,122,0.16)" stroke="#e0687a" stroke-width="1"/><rect x="256.0" y="350.4" width="12.0" height="19.2" rx="2.4" fill="none" stroke="#e0687a" stroke-width="2.04" stroke-linecap="round" stroke-linejoin="round"/><path d="M260.08 366.0 h3.84" fill="none" stroke="#e0687a" stroke-width="2.04" stroke-linecap="round" stroke-linejoin="round"/><text x="160.0" y="400.0" font-family="-apple-system,BlinkMacSystemFont,'SF Pro Display','SF Pro Text','Segoe UI',Roboto,system-ui,sans-serif" font-size="9.3" font-weight="500" fill="#6a6399" text-anchor="middle">Camera &amp; mic stay on your device — the stream is encrypted.</text><rect x="20.0" y="586.0" width="280.0" height="52.0" rx="0" fill="#0e0a26"/><rect x="20" y="586" width="280" height="1" fill="#302a60"/><circle cx="55.0" cy="604" r="5.3999999999999995" fill="none" stroke="#7b5cff" stroke-width="1.22" stroke-linecap="round" stroke-linejoin="round"/><circle cx="55.0" cy="604" r="2.52" fill="none" stroke="#7b5cff" stroke-width="1.22" stroke-linecap="round" stroke-linejoin="round"/><circle cx="55.0" cy="604" r="0.648" fill="#7b5cff"/><text x="55.0" y="626.0" font-family="-apple-system,BlinkMacSystemFont,'SF Pro Display','SF Pro Text','Segoe UI',Roboto,system-ui,sans-serif" font-size="8.2" font-weight="600" fill="#7b5cff" text-anchor="middle">Home</text><circle cx="122.12" cy="601.12" r="2.16" fill="none" stroke="#6a6399" stroke-width="1.22" stroke-linecap="round" stroke-linejoin="round"/><circle cx="127.88" cy="601.12" r="2.16" fill="none" stroke="#6a6399" stroke-width="1.22" stroke-linecap="round" stroke-linejoin="round"/><path d="M118.52 608.32 c0 -3.5999999999999996 4.32 -3.5999999999999996 4.32 0 M124.28 608.32 c0 -3.5999999999999996 5.04 -3.5999999999999996 6.4799999999999995 -0.72" fill="none" stroke="#6a6399" stroke-width="1.22" stroke-linecap="round" stroke-linejoin="round"/><text x="125.0" y="626.0" font-family="-apple-system,BlinkMacSystemFont,'SF Pro Display','SF Pro Text','Segoe UI',Roboto,system-ui,sans-serif" font-size="8.2" font-weight="600" fill="#6a6399" text-anchor="middle">Relationships</text><rect x="189.96" y="604.72" width="2.304" height="3.5999999999999996" rx="1" fill="#6a6399"/><rect x="193.56" y="601.84" width="2.304" height="6.4799999999999995" rx="1" fill="#6a6399"/><rect x="197.16" y="605.44" width="2.304" height="2.88" rx="1" fill="#6a6399"/><rect x="200.76000000000002" y="600.4000000000001" width="2.304" height="7.92" rx="1" fill="#6a6399"/><text x="195.0" y="626.0" font-family="-apple-system,BlinkMacSystemFont,'SF Pro Display','SF Pro Text','Segoe UI',Roboto,system-ui,sans-serif" font-size="8.2" font-weight="600" fill="#6a6399" text-anchor="middle">Stats</text><rect x="264.064" y="597.52" width="1.8719999999999999" height="2.88" rx="1" transform="rotate(0 265.0 604)" fill="#6a6399"/><rect x="264.064" y="597.52" width="1.8719999999999999" height="2.88" rx="1" transform="rotate(45 265.0 604)" fill="#6a6399"/><rect x="264.064" y="597.52" width="1.8719999999999999" height="2.88" rx="1" transform="rotate(90 265.0 604)" fill="#6a6399"/><rect x="264.064" y="597.52" width="1.8719999999999999" height="2.88" rx="1" transform="rotate(135 265.0 604)" fill="#6a6399"/><rect x="264.064" y="597.52" width="1.8719999999999999" height="2.88" rx="1" transform="rotate(180 265.0 604)" fill="#6a6399"/><rect x="264.064" y="597.52" width="1.8719999999999999" height="2.88" rx="1" transform="rotate(225 265.0 604)" fill="#6a6399"/><rect x="264.064" y="597.52" width="1.8719999999999999" height="2.88" rx="1" transform="rotate(270 265.0 604)" fill="#6a6399"/><rect x="264.064" y="597.52" width="1.8719999999999999" height="2.88" rx="1" transform="rotate(315 265.0 604)" fill="#6a6399"/><circle cx="265.0" cy="604" r="3.312" fill="none" stroke="#6a6399" stroke-width="1.22" stroke-linecap="round" stroke-linejoin="round"/><text x="265.0" y="626.0" font-family="-apple-system,BlinkMacSystemFont,'SF Pro Display','SF Pro Text','Segoe UI',Roboto,system-ui,sans-serif" font-size="8.2" font-weight="600" fill="#6a6399" text-anchor="middle">More</text><path d="M131.0 627.5 L121.0 632 L131.0 636.5 Z" fill="none" stroke="rgba(255,255,255,0.5)" stroke-width="1.3" stroke-linejoin="round"/><circle cx="160.0" cy="632" r="4.6" fill="none" stroke="rgba(255,255,255,0.5)" stroke-width="1.3"/><rect x="189.4" y="627.4" width="9.2" height="9.2" rx="1.6" fill="none" stroke="rgba(255,255,255,0.5)" stroke-width="1.3"/></svg>