<svg xmlns="http://www.w3.org/2000/svg" width="1280" height="820" viewBox="0 0 1280 820" role="img" aria-label="QRME — Home"><defs>
      <linearGradient id="gPage" x1="0" y1="0" x2="0.4" y2="1">
        <stop offset="0" stop-color="#0d0a20"/><stop offset="1" stop-color="#080614"/></linearGradient>
      <linearGradient id="gScr" x1="0" y1="0" x2="0.5" y2="1">
        <stop offset="0" stop-color="#181235"/><stop offset="1" stop-color="#0c0920"/></linearGradient>
      <linearGradient id="gSide" x1="0" y1="0" x2="0" y2="1">
        <stop offset="0" stop-color="#1b1445"/><stop offset="1" stop-color="#100b2c"/></linearGradient>
      <linearGradient id="gCard" x1="0" y1="0" x2="0.4" y2="1">
        <stop offset="0" stop-color="#201a48"/><stop offset="1" stop-color="#181240"/></linearGradient>
      <linearGradient id="gBrand" x1="0" y1="0" x2="1" y2="0">
        <stop offset="0" stop-color="#7b5cff"/><stop offset="1" stop-color="#9d7bff"/></linearGradient>
      <linearGradient id="gAmber" x1="0" y1="0" x2="1" y2="0">
        <stop offset="0" stop-color="#ffb84d"/><stop offset="1" stop-color="#ffd27a"/></linearGradient>
      <radialGradient id="orb" cx="36%" cy="30%" r="78%">
        <stop offset="0" stop-color="#d9ccff"/><stop offset="38%" stop-color="#7b5cff"/>
        <stop offset="78%" stop-color="#3f3bc0"/><stop offset="100%" stop-color="#140f34"/></radialGradient>
    </defs><rect x="0.0" y="0.0" width="1280.0" height="820.0" rx="0" fill="url(#gPage)"/><rect x="24" y="24" width="1232" height="772" rx="18" fill="url(#gScr)" stroke="#302a60" stroke-width="1"/><rect x="24.0" y="24.0" width="216.0" height="772.0" rx="18" fill="url(#gSide)"/><rect x="222.0" y="24.0" width="18.0" height="772.0" rx="0" fill="url(#gScr)"/><line x1="240" y1="24" x2="240" y2="796" stroke="#302a60" stroke-width="1"/><line x1="240" y1="78" x2="1256" y2="78" stroke="#302a60" stroke-width="1"/><circle cx="46" cy="51" r="5.5" fill="#ff5f57" opacity="0.9"/><circle cx="64" cy="51" r="5.5" fill="#febc2e" opacity="0.9"/><circle cx="82" cy="51" r="5.5" fill="#28c840" opacity="0.9"/><circle cx="120" cy="51" r="11" fill="url(#orb)"/><circle cx="120" cy="48.6" r="2.16" fill="none" stroke="rgba(255,255,255,0.95)" stroke-width="1.02" stroke-linecap="round" stroke-linejoin="round"/><path d="M116.4 55.2 c0 -3.5999999999999996 7.199999999999999 -3.5999999999999996 7.199999999999999 0" fill="none" stroke="rgba(255,255,255,0.95)" stroke-width="1.02" stroke-linecap="round" stroke-linejoin="round"/><text x="138.0" y="49.0" font-family="-apple-system,BlinkMacSystemFont,'SF Pro Display','SF Pro Text','Segoe UI',Roboto,system-ui,sans-serif" font-size="14" font-weight="800" fill="#f2effc" text-anchor="start" letter-spacing="0.5">QRME</text><text x="138.0" y="63.0" font-family="-apple-system,BlinkMacSystemFont,'SF Pro Display','SF Pro Text','Segoe UI',Roboto,system-ui,sans-serif" font-size="8.5" font-weight="500" fill="#6a6399" text-anchor="start">Your identity. Your AI.</text><text x="268.0" y="57.0" font-family="-apple-system,BlinkMacSystemFont,'SF Pro Display','SF Pro Text','Segoe UI',Roboto,system-ui,sans-serif" font-size="15" font-weight="700" fill="#f2effc" text-anchor="start" letter-spacing="-0.2">Home</text><rect x="1220.96" y="43.8" width="2.08" height="3.2" rx="1" transform="rotate(0 1222 51)" fill="#9a93c6"/><rect x="1220.96" y="43.8" width="2.08" height="3.2" rx="1" transform="rotate(45 1222 51)" fill="#9a93c6"/><rect x="1220.96" y="43.8" width="2.08" height="3.2" rx="1" transform="rotate(90 1222 51)" fill="#9a93c6"/><rect x="1220.96" y="43.8" width="2.08" height="3.2" rx="1" transform="rotate(135 1222 51)" fill="#9a93c6"/><rect x="1220.96" y="43.8" width="2.08" height="3.2" rx="1" transform="rotate(180 1222 51)" fill="#9a93c6"/><rect x="1220.96" y="43.8" width="2.08" height="3.2" rx="1" transform="rotate(225 1222 51)" fill="#9a93c6"/><rect x="1220.96" y="43.8" width="2.08" height="3.2" rx="1" transform="rotate(270 1222 51)" fill="#9a93c6"/><rect x="1220.96" y="43.8" width="2.08" height="3.2" rx="1" transform="rotate(315 1222 51)" fill="#9a93c6"/><circle cx="1222" cy="51" r="3.6799999999999997" fill="none" stroke="#9a93c6" stroke-width="1.36" stroke-linecap="round" stroke-linejoin="round"/><rect x="1112.0" y="46.0" width="86.0" height="16.0" rx="8" fill="rgba(123,196,127,0.14)"/><circle cx="1121.0" cy="54" r="3" fill="#7bc47f"/><text x="1128.0" y="58.0" font-family="-apple-system,BlinkMacSystemFont,'SF Pro Display','SF Pro Text','Segoe UI',Roboto,system-ui,sans-serif" font-size="9" font-weight="700" fill="#7bc47f" text-anchor="start" letter-spacing="0.5">Ava · Online</text><circle cx="1102" cy="51" r="13" fill="url(#orb)"/><circle cx="1102" cy="48.52" r="2.232" fill="none" stroke="rgba(255,255,255,0.9)" stroke-width="1.05" stroke-linecap="round" stroke-linejoin="round"/><path d="M1098.28 55.34 c0 -3.7199999999999998 7.4399999999999995 -3.7199999999999998 7.4399999999999995 0" fill="none" stroke="rgba(255,255,255,0.9)" stroke-width="1.05" stroke-linecap="round" stroke-linejoin="round"/><rect x="36.0" y="92.0" width="192.0" height="38.0" rx="10" fill="rgba(123,92,255,0.16)"/><rect x="36.0" y="92.0" width="3.0" height="38.0" rx="2" fill="#7b5cff"/><circle cx="58" cy="111" r="5.3999999999999995" fill="none" stroke="#7b5cff" stroke-width="1.22" stroke-linecap="round" stroke-linejoin="round"/><circle cx="58" cy="111" r="2.52" fill="none" stroke="#7b5cff" stroke-width="1.22" stroke-linecap="round" stroke-linejoin="round"/><circle cx="58" cy="111" r="0.648" fill="#7b5cff"/><text x="78.0" y="116.0" font-family="-apple-system,BlinkMacSystemFont,'SF Pro Display','SF Pro Text','Segoe UI',Roboto,system-ui,sans-serif" font-size="12.5" font-weight="650" fill="#f2effc" text-anchor="start">Home</text><path d="M52.24 152.68 h11.52 a2 2 0 0 1 2 2 v5.04 a2 2 0 0 1 -2 2 h-6.4799999999999995 l-2.88 2.88 v-2.88 h-2.16 a2 2 0 0 1 -2 -2 v-5.04 a2 2 0 0 1 2 -2 Z" fill="none" stroke="#9a93c6" stroke-width="1.22" stroke-linecap="round" stroke-linejoin="round"/><text x="78.0" y="162.0" font-family="-apple-system,BlinkMacSystemFont,'SF Pro Display','SF Pro Text','Segoe UI',Roboto,system-ui,sans-serif" font-size="12.5" font-weight="500" fill="#9a93c6" text-anchor="start">Conversation</text><circle cx="55.12" cy="200.12" r="2.16" fill="none" stroke="#9a93c6" stroke-width="1.22" stroke-linecap="round" stroke-linejoin="round"/><circle cx="60.88" cy="200.12" r="2.16" fill="none" stroke="#9a93c6" stroke-width="1.22" stroke-linecap="round" stroke-linejoin="round"/><path d="M51.52 207.32 c0 -3.5999999999999996 4.32 -3.5999999999999996 4.32 0 M57.28 207.32 c0 -3.5999999999999996 5.04 -3.5999999999999996 6.4799999999999995 -0.72" fill="none" stroke="#9a93c6" stroke-width="1.22" stroke-linecap="round" stroke-linejoin="round"/><text x="78.0" y="208.0" font-family="-apple-system,BlinkMacSystemFont,'SF Pro Display','SF Pro Text','Segoe UI',Roboto,system-ui,sans-serif" font-size="12.5" font-weight="500" fill="#9a93c6" text-anchor="start">Relationships</text><rect x="53.68" y="247.56" width="8.64" height="6.4799999999999995" rx="2" fill="none" stroke="#9a93c6" stroke-width="1.22" stroke-linecap="round" stroke-linejoin="round"/><path d="M55.48 247.56 v-2.16 a2.52 2.52 0 0 1 5.04 0 v2.16" fill="none" stroke="#9a93c6" stroke-width="1.22" stroke-linecap="round" stroke-linejoin="round"/><circle cx="58" cy="250.8" r="0.864" fill="#9a93c6"/><text x="78.0" y="254.0" font-family="-apple-system,BlinkMacSystemFont,'SF Pro Display','SF Pro Text','Segoe UI',Roboto,system-ui,sans-serif" font-size="12.5" font-weight="500" fill="#9a93c6" text-anchor="start">Memory</text><circle cx="58" cy="295" r="5.3999999999999995" fill="none" stroke="#9a93c6" stroke-width="1.22" stroke-linecap="round" stroke-linejoin="round"/><path d="M60.52 292.48 l-1.584 3.5999999999999996 -3.5999999999999996 1.584 1.584 -3.5999999999999996 Z" fill="#9a93c6"/><text x="78.0" y="300.0" font-family="-apple-system,BlinkMacSystemFont,'SF Pro Display','SF Pro Text','Segoe UI',Roboto,system-ui,sans-serif" font-size="12.5" font-weight="500" fill="#9a93c6" text-anchor="start">Marketplace</text><path d="M53.68 335.24 h5.76 l2.88 2.88 v8.64 h-8.64 Z" fill="none" stroke="#9a93c6" stroke-width="1.22" stroke-linecap="round" stroke-linejoin="round"/><path d="M55.84 340.28 h4.32 M55.84 343.16 h4.32" fill="none" stroke="#9a93c6" stroke-width="1.22" stroke-linecap="round" stroke-linejoin="round"/><text x="78.0" y="346.0" font-family="-apple-system,BlinkMacSystemFont,'SF Pro Display','SF Pro Text','Segoe UI',Roboto,system-ui,sans-serif" font-size="12.5" font-weight="500" fill="#9a93c6" text-anchor="start">Licensing</text><rect x="57.064" y="380.52" width="1.8719999999999999" height="2.88" rx="1" transform="rotate(0 58 387)" fill="#9a93c6"/><rect x="57.064" y="380.52" width="1.8719999999999999" height="2.88" rx="1" transform="rotate(45 58 387)" fill="#9a93c6"/><rect x="57.064" y="380.52" width="1.8719999999999999" height="2.88" rx="1" transform="rotate(90 58 387)" fill="#9a93c6"/><rect x="57.064" y="380.52" width="1.8719999999999999" height="2.88" rx="1" transform="rotate(135 58 387)" fill="#9a93c6"/><rect x="57.064" y="380.52" width="1.8719999999999999" height="2.88" rx="1" transform="rotate(180 58 387)" fill="#9a93c6"/><rect x="57.064" y="380.52" width="1.8719999999999999" height="2.88" rx="1" transform="rotate(225 58 387)" fill="#9a93c6"/><rect x="57.064" y="380.52" width="1.8719999999999999" height="2.88" rx="1" transform="rotate(270 58 387)" fill="#9a93c6"/><rect x="57.064" y="380.52" width="1.8719999999999999" height="2.88" rx="1" transform="rotate(315 58 387)" fill="#9a93c6"/><circle cx="58" cy="387" r="3.312" fill="none" stroke="#9a93c6" stroke-width="1.22" stroke-linecap="round" stroke-linejoin="round"/><text x="78.0" y="392.0" font-family="-apple-system,BlinkMacSystemFont,'SF Pro Display','SF Pro Text','Segoe UI',Roboto,system-ui,sans-serif" font-size="12.5" font-weight="500" fill="#9a93c6" text-anchor="start">Control</text><line x1="40" y1="726" x2="224" y2="726" stroke="#302a60" stroke-width="1"/><rect x="40.0" y="740.0" width="184.0" height="40.0" rx="10" fill="rgba(255,255,255,0.04)" stroke="#302a60" stroke-width="1"/><rect x="54.04" y="758.68" width="7.92" height="5.94" rx="2" fill="none" stroke="#7bc47f" stroke-width="1.12" stroke-linecap="round" stroke-linejoin="round"/><path d="M55.69 758.68 v-1.98 a2.31 2.31 0 0 1 4.62 0 v1.98" fill="none" stroke="#7bc47f" stroke-width="1.12" stroke-linecap="round" stroke-linejoin="round"/><circle cx="58" cy="761.65" r="0.792" fill="#7bc47f"/><text x="76.0" y="756.0" font-family="-apple-system,BlinkMacSystemFont,'SF Pro Display','SF Pro Text','Segoe UI',Roboto,system-ui,sans-serif" font-size="10.5" font-weight="650" fill="#f2effc" text-anchor="start">Vault protected</text><text x="76.0" y="769.0" font-family="-apple-system,BlinkMacSystemFont,'SF Pro Display','SF Pro Text','Segoe UI',Roboto,system-ui,sans-serif" font-size="8.5" font-weight="500" fill="#6a6399" text-anchor="start">AES-256-GCM · local</text><rect x="268.0" y="106.0" width="225.0" height="96.0" rx="14" fill="url(#gCard)" stroke="#302a60" stroke-width="1"/><text x="286.0" y="134.0" font-family="-apple-system,BlinkMacSystemFont,'SF Pro Display','SF Pro Text','Segoe UI',Roboto,system-ui,sans-serif" font-size="11" font-weight="600" fill="#9a93c6" text-anchor="start">Memory</text><text x="286.0" y="168.0" font-family="-apple-system,BlinkMacSystemFont,'SF Pro Display','SF Pro Text','Segoe UI',Roboto,system-ui,sans-serif" font-size="27" font-weight="800" fill="#7b5cff" text-anchor="start">247</text><text x="286.0" y="186.0" font-family="-apple-system,BlinkMacSystemFont,'SF Pro Display','SF Pro Text','Segoe UI',Roboto,system-ui,sans-serif" font-size="9.5" font-weight="500" fill="#6a6399" text-anchor="start">entries</text><rect x="445.0" y="120.0" width="34.0" height="34.0" rx="11" fill="rgba(123,92,255,0.16)"/><rect x="456.48" y="135.16" width="11.040000000000001" height="8.280000000000001" rx="2" fill="none" stroke="#7b5cff" stroke-width="1.56" stroke-linecap="round" stroke-linejoin="round"/><path d="M458.78 135.16 v-2.7600000000000002 a3.22 3.22 0 0 1 6.44 0 v2.7600000000000002" fill="none" stroke="#7b5cff" stroke-width="1.56" stroke-linecap="round" stroke-linejoin="round"/><circle cx="462.0" cy="139.3" r="1.104" fill="#7b5cff"/><rect x="513.0" y="106.0" width="225.0" height="96.0" rx="14" fill="url(#gCard)" stroke="#302a60" stroke-width="1"/><text x="531.0" y="134.0" font-family="-apple-system,BlinkMacSystemFont,'SF Pro Display','SF Pro Text','Segoe UI',Roboto,system-ui,sans-serif" font-size="11" font-weight="600" fill="#9a93c6" text-anchor="start">Relationships</text><text x="531.0" y="168.0" font-family="-apple-system,BlinkMacSystemFont,'SF Pro Display','SF Pro Text','Segoe UI',Roboto,system-ui,sans-serif" font-size="27" font-weight="800" fill="#ffb84d" text-anchor="start">12</text><text x="531.0" y="186.0" font-family="-apple-system,BlinkMacSystemFont,'SF Pro Display','SF Pro Text','Segoe UI',Roboto,system-ui,sans-serif" font-size="9.5" font-weight="500" fill="#6a6399" text-anchor="start">connections</text><rect x="690.0" y="120.0" width="34.0" height="34.0" rx="11" fill="rgba(255,184,77,0.16)"/><circle cx="703.32" cy="133.32" r="2.7600000000000002" fill="none" stroke="#ffb84d" stroke-width="1.56" stroke-linecap="round" stroke-linejoin="round"/><circle cx="710.68" cy="133.32" r="2.7600000000000002" fill="none" stroke="#ffb84d" stroke-width="1.56" stroke-linecap="round" stroke-linejoin="round"/><path d="M698.72 142.52 c0 -4.6000000000000005 5.5200000000000005 -4.6000000000000005 5.5200000000000005 0 M706.08 142.52 c0 -4.6000000000000005 6.44 -4.6000000000000005 8.280000000000001 -0.92" fill="none" stroke="#ffb84d" stroke-width="1.56" stroke-linecap="round" stroke-linejoin="round"/><rect x="758.0" y="106.0" width="225.0" height="96.0" rx="14" fill="url(#gCard)" stroke="#302a60" stroke-width="1"/><text x="776.0" y="134.0" font-family="-apple-system,BlinkMacSystemFont,'SF Pro Display','SF Pro Text','Segoe UI',Roboto,system-ui,sans-serif" font-size="11" font-weight="600" fill="#9a93c6" text-anchor="start">Engagement</text><text x="776.0" y="168.0" font-family="-apple-system,BlinkMacSystemFont,'SF Pro Display','SF Pro Text','Segoe UI',Roboto,system-ui,sans-serif" font-size="27" font-weight="800" fill="#7bc47f" text-anchor="start">92%</text><text x="776.0" y="186.0" font-family="-apple-system,BlinkMacSystemFont,'SF Pro Display','SF Pro Text','Segoe UI',Roboto,system-ui,sans-serif" font-size="9.5" font-weight="500" fill="#6a6399" text-anchor="start">high</text><rect x="935.0" y="120.0" width="34.0" height="34.0" rx="11" fill="rgba(123,196,127,0.16)"/><rect x="945.56" y="137.92000000000002" width="2.9440000000000004" height="4.6000000000000005" rx="1" fill="#7bc47f"/><rect x="950.16" y="134.24" width="2.9440000000000004" height="8.280000000000001" rx="1" fill="#7bc47f"/><rect x="954.76" y="138.84" width="2.9440000000000004" height="3.68" rx="1" fill="#7bc47f"/><rect x="959.3599999999999" y="132.4" width="2.9440000000000004" height="10.120000000000001" rx="1" fill="#7bc47f"/><rect x="1003.0" y="106.0" width="225.0" height="96.0" rx="14" fill="url(#gCard)" stroke="#302a60" stroke-width="1"/><text x="1021.0" y="134.0" font-family="-apple-system,BlinkMacSystemFont,'SF Pro Display','SF Pro Text','Segoe UI',Roboto,system-ui,sans-serif" font-size="11" font-weight="600" fill="#9a93c6" text-anchor="start">Moderation</text><text x="1021.0" y="168.0" font-family="-apple-system,BlinkMacSystemFont,'SF Pro Display','SF Pro Text','Segoe UI',Roboto,system-ui,sans-serif" font-size="27" font-weight="800" fill="#9fd8e8" text-anchor="start">99.4%</text><text x="1021.0" y="186.0" font-family="-apple-system,BlinkMacSystemFont,'SF Pro Display','SF Pro Text','Segoe UI',Roboto,system-ui,sans-serif" font-size="9.5" font-weight="500" fill="#6a6399" text-anchor="start">pass rate</text><rect x="1180.0" y="120.0" width="34.0" height="34.0" rx="11" fill="rgba(159,216,232,0.16)"/><path d="M1197.0 129.64 l6.44 2.7600000000000002 v4.6000000000000005 c0 4.6000000000000005 -2.7600000000000002 6.44 -6.44 8.280000000000001 c-3.68 -1.84 -6.44 -3.68 -6.44 -8.280000000000001 v-4.6000000000000005 Z" fill="none" stroke="#9fd8e8" stroke-width="1.56" stroke-linecap="round" stroke-linejoin="round"/><path d="M1194.24 137 l1.84 2.208 3.68 -4.140000000000001" fill="none" stroke="#9fd8e8" stroke-width="1.56" stroke-linecap="round" stroke-linejoin="round"/><rect x="268.0" y="224.0" width="614.4" height="268.0" rx="14" fill="url(#gCard)" stroke="#302a60" stroke-width="1"/><text x="286.0" y="251.0" font-family="-apple-system,BlinkMacSystemFont,'SF Pro Display','SF Pro Text','Segoe UI',Roboto,system-ui,sans-serif" font-size="12.5" font-weight="700" fill="#f2effc" text-anchor="start">Conversations over time</text><text x="864.4" y="251.0" font-family="-apple-system,BlinkMacSystemFont,'SF Pro Display','SF Pro Text','Segoe UI',Roboto,system-ui,sans-serif" font-size="10" font-weight="600" fill="#6a6399" text-anchor="end">last 12 weeks</text><line x1="288" y1="319.0" x2="862.4" y2="319.0" stroke="rgba(48,42,96,0.5)" stroke-width="1"/><line x1="288" y1="362.0" x2="862.4" y2="362.0" stroke="rgba(48,42,96,0.5)" stroke-width="1"/><line x1="288" y1="405.0" x2="862.4" y2="405.0" stroke="rgba(48,42,96,0.5)" stroke-width="1"/><polygon points="288,448 288.0,429.6 340.2,410.8 392.4,420.2 444.7,392.0 496.9,373.2 549.1,382.6 601.3,348.1 653.5,329.3 705.7,341.8 758.0,304.2 810.2,276.0 862.4,285.4 862.4,448" fill="rgba(123,92,255,0.13)"/><polyline points="288.0,429.6 340.2,410.8 392.4,420.2 444.7,392.0 496.9,373.2 549.1,382.6 601.3,348.1 653.5,329.3 705.7,341.8 758.0,304.2 810.2,276.0 862.4,285.4" fill="none" stroke="#7b5cff" stroke-width="2.5" stroke-linejoin="round" stroke-linecap="round"/><circle cx="862.4" cy="285.4" r="4" fill="#7b5cff"/><text x="288.0" y="476.0" font-family="-apple-system,BlinkMacSystemFont,'SF Pro Display','SF Pro Text','Segoe UI',Roboto,system-ui,sans-serif" font-size="9" font-weight="500" fill="#6a6399" text-anchor="start">wk 1</text><text x="862.4" y="476.0" font-family="-apple-system,BlinkMacSystemFont,'SF Pro Display','SF Pro Text','Segoe UI',Roboto,system-ui,sans-serif" font-size="9" font-weight="500" fill="#6a6399" text-anchor="end">now</text><rect x="902.4" y="224.0" width="325.6" height="268.0" rx="14" fill="url(#gCard)" stroke="#302a60" stroke-width="1"/><text x="920.4" y="251.0" font-family="-apple-system,BlinkMacSystemFont,'SF Pro Display','SF Pro Text','Segoe UI',Roboto,system-ui,sans-serif" font-size="12.5" font-weight="700" fill="#f2effc" text-anchor="start">Ava</text><circle cx="1065.2" cy="320" r="42" fill="url(#orb)"/><circle cx="1065.2" cy="310.4" r="6.84" fill="none" stroke="rgba(255,255,255,0.92)" stroke-width="3.23" stroke-linecap="round" stroke-linejoin="round"/><path d="M1053.8 331.3 c0 -11.399999999999999 22.799999999999997 -11.399999999999999 22.799999999999997 0" fill="none" stroke="rgba(255,255,255,0.92)" stroke-width="3.23" stroke-linecap="round" stroke-linejoin="round"/><circle cx="1065.2" cy="320" r="48" fill="none" stroke="url(#gBrand)" stroke-width="3"/><text x="1065.2" y="392.0" font-family="-apple-system,BlinkMacSystemFont,'SF Pro Display','SF Pro Text','Segoe UI',Roboto,system-ui,sans-serif" font-size="12.5" font-weight="700" fill="#f2effc" text-anchor="middle">Ava · AI Version Me</text><rect x="1059.2" y="405.0" width="50.0" height="16.0" rx="8" fill="rgba(123,196,127,0.14)"/><circle cx="1068.2" cy="413" r="3" fill="#7bc47f"/><text x="1075.2" y="417.0" font-family="-apple-system,BlinkMacSystemFont,'SF Pro Display','SF Pro Text','Segoe UI',Roboto,system-ui,sans-serif" font-size="9" font-weight="700" fill="#7bc47f" text-anchor="start" letter-spacing="0.5">Online</text><text x="1013.2" y="418.0" font-family="-apple-system,BlinkMacSystemFont,'SF Pro Display','SF Pro Text','Segoe UI',Roboto,system-ui,sans-serif" font-size="10" font-weight="600" fill="#9a93c6" text-anchor="start">Identity 98.9%</text><rect x="268.0" y="514.0" width="614.4" height="254.0" rx="14" fill="url(#gCard)" stroke="#302a60" stroke-width="1"/><text x="286.0" y="541.0" font-family="-apple-system,BlinkMacSystemFont,'SF Pro Display','SF Pro Text','Segoe UI',Roboto,system-ui,sans-serif" font-size="12.5" font-weight="700" fill="#f2effc" text-anchor="start">Recent activity</text><text x="864.4" y="541.0" font-family="-apple-system,BlinkMacSystemFont,'SF Pro Display','SF Pro Text','Segoe UI',Roboto,system-ui,sans-serif" font-size="10" font-weight="600" fill="#6a6399" text-anchor="end">live</text><text x="296.0" y="570.0" font-family="-apple-system,BlinkMacSystemFont,'SF Pro Display','SF Pro Text','Segoe UI',Roboto,system-ui,sans-serif" font-size="9.5" font-weight="700" fill="#6a6399" text-anchor="start" letter-spacing="0.4">TYPE</text><text x="411.7" y="570.0" font-family="-apple-system,BlinkMacSystemFont,'SF Pro Display','SF Pro Text','Segoe UI',Roboto,system-ui,sans-serif" font-size="9.5" font-weight="700" fill="#6a6399" text-anchor="start" letter-spacing="0.4">DETAIL</text><text x="854.4" y="570.0" font-family="-apple-system,BlinkMacSystemFont,'SF Pro Display','SF Pro Text','Segoe UI',Roboto,system-ui,sans-serif" font-size="9.5" font-weight="700" fill="#6a6399" text-anchor="end" letter-spacing="0.4">WHEN</text><line x1="286" y1="580" x2="864.4" y2="580" stroke="#302a60" stroke-width="1"/><text x="296.0" y="604.0" font-family="-apple-system,BlinkMacSystemFont,'SF Pro Display','SF Pro Text','Segoe UI',Roboto,system-ui,sans-serif" font-size="10.5" font-weight="700" fill="#7b5cff" text-anchor="start">MESSAGE</text><text x="411.7" y="604.0" font-family="-apple-system,BlinkMacSystemFont,'SF Pro Display','SF Pro Text','Segoe UI',Roboto,system-ui,sans-serif" font-size="10.5" font-weight="500" fill="#f2effc" text-anchor="start">“Been thinking about the garden.”</text><text x="854.4" y="604.0" font-family="-apple-system,BlinkMacSystemFont,'SF Pro Display','SF Pro Text','Segoe UI',Roboto,system-ui,sans-serif" font-size="10.5" font-weight="500" fill="#9a93c6" text-anchor="end">2m</text><line x1="286" y1="612" x2="864.4" y2="612" stroke="rgba(48,42,96,0.45)" stroke-width="1"/><text x="296.0" y="636.0" font-family="-apple-system,BlinkMacSystemFont,'SF Pro Display','SF Pro Text','Segoe UI',Roboto,system-ui,sans-serif" font-size="10.5" font-weight="700" fill="#7bc47f" text-anchor="start">MEMORY</text><text x="411.7" y="636.0" font-family="-apple-system,BlinkMacSystemFont,'SF Pro Display','SF Pro Text','Segoe UI',Roboto,system-ui,sans-serif" font-size="10.5" font-weight="500" fill="#f2effc" text-anchor="start">New: started keto (Apr 20)</text><text x="854.4" y="636.0" font-family="-apple-system,BlinkMacSystemFont,'SF Pro Display','SF Pro Text','Segoe UI',Roboto,system-ui,sans-serif" font-size="10.5" font-weight="500" fill="#9a93c6" text-anchor="end">1h</text><line x1="286" y1="644" x2="864.4" y2="644" stroke="rgba(48,42,96,0.45)" stroke-width="1"/><text x="296.0" y="668.0" font-family="-apple-system,BlinkMacSystemFont,'SF Pro Display','SF Pro Text','Segoe UI',Roboto,system-ui,sans-serif" font-size="10.5" font-weight="700" fill="#ffb84d" text-anchor="start">RELATION</text><text x="411.7" y="668.0" font-family="-apple-system,BlinkMacSystemFont,'SF Pro Display','SF Pro Text','Segoe UI',Roboto,system-ui,sans-serif" font-size="10.5" font-weight="500" fill="#f2effc" text-anchor="start">Sarah → tone set to Supportive</text><text x="854.4" y="668.0" font-family="-apple-system,BlinkMacSystemFont,'SF Pro Display','SF Pro Text','Segoe UI',Roboto,system-ui,sans-serif" font-size="10.5" font-weight="500" fill="#9a93c6" text-anchor="end">3h</text><line x1="286" y1="676" x2="864.4" y2="676" stroke="rgba(48,42,96,0.45)" stroke-width="1"/><text x="296.0" y="700.0" font-family="-apple-system,BlinkMacSystemFont,'SF Pro Display','SF Pro Text','Segoe UI',Roboto,system-ui,sans-serif" font-size="10.5" font-weight="700" fill="#9fd8e8" text-anchor="start">POST</text><text x="411.7" y="700.0" font-family="-apple-system,BlinkMacSystemFont,'SF Pro Display','SF Pro Text','Segoe UI',Roboto,system-ui,sans-serif" font-size="10.5" font-weight="500" fill="#f2effc" text-anchor="start">“Tomatoes are in — finally.”</text><text x="854.4" y="700.0" font-family="-apple-system,BlinkMacSystemFont,'SF Pro Display','SF Pro Text','Segoe UI',Roboto,system-ui,sans-serif" font-size="10.5" font-weight="500" fill="#9a93c6" text-anchor="end">5h</text><line x1="286" y1="708" x2="864.4" y2="708" stroke="rgba(48,42,96,0.45)" stroke-width="1"/><rect x="902.4" y="514.0" width="325.6" height="254.0" rx="14" fill="url(#gCard)" stroke="#302a60" stroke-width="1"/><text x="920.4" y="541.0" font-family="-apple-system,BlinkMacSystemFont,'SF Pro Display','SF Pro Text','Segoe UI',Roboto,system-ui,sans-serif" font-size="12.5" font-weight="700" fill="#f2effc" text-anchor="start">Relationships</text><circle cx="940.4" cy="576" r="14" fill="rgba(123,92,255,0.2)" stroke="#7b5cff" stroke-width="1.2"/><text x="940.4" y="581.0" font-family="-apple-system,BlinkMacSystemFont,'SF Pro Display','SF Pro Text','Segoe UI',Roboto,system-ui,sans-serif" font-size="12" font-weight="800" fill="#7b5cff" text-anchor="middle">D</text><text x="962.4" y="573.0" font-family="-apple-system,BlinkMacSystemFont,'SF Pro Display','SF Pro Text','Segoe UI',Roboto,system-ui,sans-serif" font-size="11.5" font-weight="700" fill="#f2effc" text-anchor="start">David</text><text x="962.4" y="588.0" font-family="-apple-system,BlinkMacSystemFont,'SF Pro Display','SF Pro Text','Segoe UI',Roboto,system-ui,sans-serif" font-size="9.5" font-weight="500" fill="#9a93c6" text-anchor="start">Owner</text><rect x="1181.4" y="565.0" width="30.6" height="17.0" rx="8" fill="rgba(123,92,255,0.16)"/><text x="1196.7" y="577.0" font-family="-apple-system,BlinkMacSystemFont,'SF Pro Display','SF Pro Text','Segoe UI',Roboto,system-ui,sans-serif" font-size="9.5" font-weight="700" fill="#7b5cff" text-anchor="middle" letter-spacing="0.4">You</text><circle cx="940.4" cy="620" r="14" fill="rgba(255,184,77,0.2)" stroke="#ffb84d" stroke-width="1.2"/><text x="940.4" y="625.0" font-family="-apple-system,BlinkMacSystemFont,'SF Pro Display','SF Pro Text','Segoe UI',Roboto,system-ui,sans-serif" font-size="12" font-weight="800" fill="#ffb84d" text-anchor="middle">S</text><text x="962.4" y="617.0" font-family="-apple-system,BlinkMacSystemFont,'SF Pro Display','SF Pro Text','Segoe UI',Roboto,system-ui,sans-serif" font-size="11.5" font-weight="700" fill="#f2effc" text-anchor="start">Sarah</text><text x="962.4" y="632.0" font-family="-apple-system,BlinkMacSystemFont,'SF Pro Display','SF Pro Text','Segoe UI',Roboto,system-ui,sans-serif" font-size="9.5" font-weight="500" fill="#9a93c6" text-anchor="start">Daughter</text><rect x="1138.0" y="609.0" width="74.0" height="17.0" rx="8" fill="rgba(123,196,127,0.16)"/><text x="1175.0" y="621.0" font-family="-apple-system,BlinkMacSystemFont,'SF Pro Display','SF Pro Text','Segoe UI',Roboto,system-ui,sans-serif" font-size="9.5" font-weight="700" fill="#7bc47f" text-anchor="middle" letter-spacing="0.4">Supportive</text><circle cx="940.4" cy="664" r="14" fill="rgba(231,139,208,0.2)" stroke="#e78bd0" stroke-width="1.2"/><text x="940.4" y="669.0" font-family="-apple-system,BlinkMacSystemFont,'SF Pro Display','SF Pro Text','Segoe UI',Roboto,system-ui,sans-serif" font-size="12" font-weight="800" fill="#e78bd0" text-anchor="middle">E</text><text x="962.4" y="661.0" font-family="-apple-system,BlinkMacSystemFont,'SF Pro Display','SF Pro Text','Segoe UI',Roboto,system-ui,sans-serif" font-size="11.5" font-weight="700" fill="#f2effc" text-anchor="start">Dr. Emily</text><text x="962.4" y="676.0" font-family="-apple-system,BlinkMacSystemFont,'SF Pro Display','SF Pro Text','Segoe UI',Roboto,system-ui,sans-serif" font-size="9.5" font-weight="500" fill="#9a93c6" text-anchor="start">Therapist</text><rect x="1169.0" y="653.0" width="43.0" height="17.0" rx="8" fill="rgba(255,206,84,0.16)"/><text x="1190.5" y="665.0" font-family="-apple-system,BlinkMacSystemFont,'SF Pro Display','SF Pro Text','Segoe UI',Roboto,system-ui,sans-serif" font-size="9.5" font-weight="700" fill="#ffce54" text-anchor="middle" letter-spacing="0.4">Prof.</text></svg>