<svg xmlns="http://www.w3.org/2000/svg" width="1280" height="820" viewBox="0 0 1280 820" role="img" aria-label="QRME — Marketplace &amp; Licensing"><defs>
      <linearGradient id="gPage" x1="0" y1="0" x2="0.4" y2="1">
        <stop offset="0" stop-color="#0d0a20"/><stop offset="1" stop-color="#080614"/></linearGradient>
      <linearGradient id="gScr" x1="0" y1="0" x2="0.5" y2="1">
        <stop offset="0" stop-color="#181235"/><stop offset="1" stop-color="#0c0920"/></linearGradient>
      <linearGradient id="gSide" x1="0" y1="0" x2="0" y2="1">
        <stop offset="0" stop-color="#1b1445"/><stop offset="1" stop-color="#100b2c"/></linearGradient>
      <linearGradient id="gCard" x1="0" y1="0" x2="0.4" y2="1">
        <stop offset="0" stop-color="#201a48"/><stop offset="1" stop-color="#181240"/></linearGradient>
      <linearGradient id="gBrand" x1="0" y1="0" x2="1" y2="0">
        <stop offset="0" stop-color="#7b5cff"/><stop offset="1" stop-color="#9d7bff"/></linearGradient>
      <linearGradient id="gAmber" x1="0" y1="0" x2="1" y2="0">
        <stop offset="0" stop-color="#ffb84d"/><stop offset="1" stop-color="#ffd27a"/></linearGradient>
      <radialGradient id="orb" cx="36%" cy="30%" r="78%">
        <stop offset="0" stop-color="#d9ccff"/><stop offset="38%" stop-color="#7b5cff"/>
        <stop offset="78%" stop-color="#3f3bc0"/><stop offset="100%" stop-color="#140f34"/></radialGradient>
    </defs><rect x="0.0" y="0.0" width="1280.0" height="820.0" rx="0" fill="url(#gPage)"/><rect x="24" y="24" width="1232" height="772" rx="10" fill="url(#gScr)" stroke="#302a60" stroke-width="1"/><rect x="24.0" y="24.0" width="216.0" height="772.0" rx="18" fill="url(#gSide)"/><rect x="222.0" y="24.0" width="18.0" height="772.0" rx="0" fill="url(#gScr)"/><line x1="240" y1="24" x2="240" y2="796" stroke="#302a60" stroke-width="1"/><line x1="240" y1="78" x2="1256" y2="78" stroke="#302a60" stroke-width="1"/><line x1="1164" y1="52" x2="1175" y2="52" stroke="#9a93c6" stroke-width="1.3"/><rect x="1193.0" y="46.0" width="11.0" height="11.0" rx="1.5" fill="none" stroke="#9a93c6" stroke-width="1.3"/><path d="M1223 46 l11 11 M1234 46 l-11 11" stroke="#9a93c6" stroke-width="1.3" stroke-linecap="round"/><circle cx="120" cy="51" r="11" fill="url(#orb)"/><circle cx="120" cy="48.6" r="2.16" fill="none" stroke="rgba(255,255,255,0.95)" stroke-width="1.02" stroke-linecap="round" stroke-linejoin="round"/><path d="M116.4 55.2 c0 -3.5999999999999996 7.199999999999999 -3.5999999999999996 7.199999999999999 0" fill="none" stroke="rgba(255,255,255,0.95)" stroke-width="1.02" stroke-linecap="round" stroke-linejoin="round"/><text x="138.0" y="49.0" font-family="-apple-system,BlinkMacSystemFont,'SF Pro Display','SF Pro Text','Segoe UI',Roboto,system-ui,sans-serif" font-size="14" font-weight="800" fill="#f2effc" text-anchor="start" letter-spacing="0.5">QRME</text><text x="138.0" y="63.0" font-family="-apple-system,BlinkMacSystemFont,'SF Pro Display','SF Pro Text','Segoe UI',Roboto,system-ui,sans-serif" font-size="8.5" font-weight="500" fill="#6a6399" text-anchor="start">Your identity. Your AI.</text><text x="268.0" y="57.0" font-family="-apple-system,BlinkMacSystemFont,'SF Pro Display','SF Pro Text','Segoe UI',Roboto,system-ui,sans-serif" font-size="15" font-weight="700" fill="#f2effc" text-anchor="start" letter-spacing="-0.2">Marketplace &amp; Licensing</text><rect x="1134.96" y="43.8" width="2.08" height="3.2" rx="1" transform="rotate(0 1136 51)" fill="#9a93c6"/><rect x="1134.96" y="43.8" width="2.08" height="3.2" rx="1" transform="rotate(45 1136 51)" fill="#9a93c6"/><rect x="1134.96" y="43.8" width="2.08" height="3.2" rx="1" transform="rotate(90 1136 51)" fill="#9a93c6"/><rect x="1134.96" y="43.8" width="2.08" height="3.2" rx="1" transform="rotate(135 1136 51)" fill="#9a93c6"/><rect x="1134.96" y="43.8" width="2.08" height="3.2" rx="1" transform="rotate(180 1136 51)" fill="#9a93c6"/><rect x="1134.96" y="43.8" width="2.08" height="3.2" rx="1" transform="rotate(225 1136 51)" fill="#9a93c6"/><rect x="1134.96" y="43.8" width="2.08" height="3.2" rx="1" transform="rotate(270 1136 51)" fill="#9a93c6"/><rect x="1134.96" y="43.8" width="2.08" height="3.2" rx="1" transform="rotate(315 1136 51)" fill="#9a93c6"/><circle cx="1136" cy="51" r="3.6799999999999997" fill="none" stroke="#9a93c6" stroke-width="1.36" stroke-linecap="round" stroke-linejoin="round"/><rect x="1026.0" y="46.0" width="86.0" height="16.0" rx="8" fill="rgba(123,196,127,0.14)"/><circle cx="1035.0" cy="54" r="3" fill="#7bc47f"/><text x="1042.0" y="58.0" font-family="-apple-system,BlinkMacSystemFont,'SF Pro Display','SF Pro Text','Segoe UI',Roboto,system-ui,sans-serif" font-size="9" font-weight="700" fill="#7bc47f" text-anchor="start" letter-spacing="0.5">Ava · Online</text><circle cx="1016" cy="51" r="13" fill="url(#orb)"/><circle cx="1016" cy="48.52" r="2.232" fill="none" stroke="rgba(255,255,255,0.9)" stroke-width="1.05" stroke-linecap="round" stroke-linejoin="round"/><path d="M1012.28 55.34 c0 -3.7199999999999998 7.4399999999999995 -3.7199999999999998 7.4399999999999995 0" fill="none" stroke="rgba(255,255,255,0.9)" stroke-width="1.05" stroke-linecap="round" stroke-linejoin="round"/><circle cx="58" cy="111" r="5.3999999999999995" fill="none" stroke="#9a93c6" stroke-width="1.22" stroke-linecap="round" stroke-linejoin="round"/><circle cx="58" cy="111" r="2.52" fill="none" stroke="#9a93c6" stroke-width="1.22" stroke-linecap="round" stroke-linejoin="round"/><circle cx="58" cy="111" r="0.648" fill="#9a93c6"/><text x="78.0" y="116.0" font-family="-apple-system,BlinkMacSystemFont,'SF Pro Display','SF Pro Text','Segoe UI',Roboto,system-ui,sans-serif" font-size="12.5" font-weight="500" fill="#9a93c6" text-anchor="start">Home</text><path d="M52.24 152.68 h11.52 a2 2 0 0 1 2 2 v5.04 a2 2 0 0 1 -2 2 h-6.4799999999999995 l-2.88 2.88 v-2.88 h-2.16 a2 2 0 0 1 -2 -2 v-5.04 a2 2 0 0 1 2 -2 Z" fill="none" stroke="#9a93c6" stroke-width="1.22" stroke-linecap="round" stroke-linejoin="round"/><text x="78.0" y="162.0" font-family="-apple-system,BlinkMacSystemFont,'SF Pro Display','SF Pro Text','Segoe UI',Roboto,system-ui,sans-serif" font-size="12.5" font-weight="500" fill="#9a93c6" text-anchor="start">Conversation</text><circle cx="55.12" cy="200.12" r="2.16" fill="none" stroke="#9a93c6" stroke-width="1.22" stroke-linecap="round" stroke-linejoin="round"/><circle cx="60.88" cy="200.12" r="2.16" fill="none" stroke="#9a93c6" stroke-width="1.22" stroke-linecap="round" stroke-linejoin="round"/><path d="M51.52 207.32 c0 -3.5999999999999996 4.32 -3.5999999999999996 4.32 0 M57.28 207.32 c0 -3.5999999999999996 5.04 -3.5999999999999996 6.4799999999999995 -0.72" fill="none" stroke="#9a93c6" stroke-width="1.22" stroke-linecap="round" stroke-linejoin="round"/><text x="78.0" y="208.0" font-family="-apple-system,BlinkMacSystemFont,'SF Pro Display','SF Pro Text','Segoe UI',Roboto,system-ui,sans-serif" font-size="12.5" font-weight="500" fill="#9a93c6" text-anchor="start">Relationships</text><rect x="53.68" y="247.56" width="8.64" height="6.4799999999999995" rx="2" fill="none" stroke="#9a93c6" stroke-width="1.22" stroke-linecap="round" stroke-linejoin="round"/><path d="M55.48 247.56 v-2.16 a2.52 2.52 0 0 1 5.04 0 v2.16" fill="none" stroke="#9a93c6" stroke-width="1.22" stroke-linecap="round" stroke-linejoin="round"/><circle cx="58" cy="250.8" r="0.864" fill="#9a93c6"/><text x="78.0" y="254.0" font-family="-apple-system,BlinkMacSystemFont,'SF Pro Display','SF Pro Text','Segoe UI',Roboto,system-ui,sans-serif" font-size="12.5" font-weight="500" fill="#9a93c6" text-anchor="start">Memory</text><rect x="36.0" y="276.0" width="192.0" height="38.0" rx="10" fill="rgba(123,92,255,0.16)"/><rect x="36.0" y="276.0" width="3.0" height="38.0" rx="2" fill="#7b5cff"/><circle cx="58" cy="295" r="5.3999999999999995" fill="none" stroke="#7b5cff" stroke-width="1.22" stroke-linecap="round" stroke-linejoin="round"/><path d="M60.52 292.48 l-1.584 3.5999999999999996 -3.5999999999999996 1.584 1.584 -3.5999999999999996 Z" fill="#7b5cff"/><text x="78.0" y="300.0" font-family="-apple-system,BlinkMacSystemFont,'SF Pro Display','SF Pro Text','Segoe UI',Roboto,system-ui,sans-serif" font-size="12.5" font-weight="650" fill="#f2effc" text-anchor="start">Marketplace</text><path d="M53.68 335.24 h5.76 l2.88 2.88 v8.64 h-8.64 Z" fill="none" stroke="#9a93c6" stroke-width="1.22" stroke-linecap="round" stroke-linejoin="round"/><path d="M55.84 340.28 h4.32 M55.84 343.16 h4.32" fill="none" stroke="#9a93c6" stroke-width="1.22" stroke-linecap="round" stroke-linejoin="round"/><text x="78.0" y="346.0" font-family="-apple-system,BlinkMacSystemFont,'SF Pro Display','SF Pro Text','Segoe UI',Roboto,system-ui,sans-serif" font-size="12.5" font-weight="500" fill="#9a93c6" text-anchor="start">Licensing</text><rect x="57.064" y="380.52" width="1.8719999999999999" height="2.88" rx="1" transform="rotate(0 58 387)" fill="#9a93c6"/><rect x="57.064" y="380.52" width="1.8719999999999999" height="2.88" rx="1" transform="rotate(45 58 387)" fill="#9a93c6"/><rect x="57.064" y="380.52" width="1.8719999999999999" height="2.88" rx="1" transform="rotate(90 58 387)" fill="#9a93c6"/><rect x="57.064" y="380.52" width="1.8719999999999999" height="2.88" rx="1" transform="rotate(135 58 387)" fill="#9a93c6"/><rect x="57.064" y="380.52" width="1.8719999999999999" height="2.88" rx="1" transform="rotate(180 58 387)" fill="#9a93c6"/><rect x="57.064" y="380.52" width="1.8719999999999999" height="2.88" rx="1" transform="rotate(225 58 387)" fill="#9a93c6"/><rect x="57.064" y="380.52" width="1.8719999999999999" height="2.88" rx="1" transform="rotate(270 58 387)" fill="#9a93c6"/><rect x="57.064" y="380.52" width="1.8719999999999999" height="2.88" rx="1" transform="rotate(315 58 387)" fill="#9a93c6"/><circle cx="58" cy="387" r="3.312" fill="none" stroke="#9a93c6" stroke-width="1.22" stroke-linecap="round" stroke-linejoin="round"/><text x="78.0" y="392.0" font-family="-apple-system,BlinkMacSystemFont,'SF Pro Display','SF Pro Text','Segoe UI',Roboto,system-ui,sans-serif" font-size="12.5" font-weight="500" fill="#9a93c6" text-anchor="start">Control</text><line x1="40" y1="726" x2="224" y2="726" stroke="#302a60" stroke-width="1"/><rect x="40.0" y="740.0" width="184.0" height="40.0" rx="10" fill="rgba(255,255,255,0.04)" stroke="#302a60" stroke-width="1"/><rect x="54.04" y="758.68" width="7.92" height="5.94" rx="2" fill="none" stroke="#7bc47f" stroke-width="1.12" stroke-linecap="round" stroke-linejoin="round"/><path d="M55.69 758.68 v-1.98 a2.31 2.31 0 0 1 4.62 0 v1.98" fill="none" stroke="#7bc47f" stroke-width="1.12" stroke-linecap="round" stroke-linejoin="round"/><circle cx="58" cy="761.65" r="0.792" fill="#7bc47f"/><text x="76.0" y="756.0" font-family="-apple-system,BlinkMacSystemFont,'SF Pro Display','SF Pro Text','Segoe UI',Roboto,system-ui,sans-serif" font-size="10.5" font-weight="650" fill="#f2effc" text-anchor="start">Vault protected</text><text x="76.0" y="769.0" font-family="-apple-system,BlinkMacSystemFont,'SF Pro Display','SF Pro Text','Segoe UI',Roboto,system-ui,sans-serif" font-size="8.5" font-weight="500" fill="#6a6399" text-anchor="start">AES-256-GCM · local</text><rect x="268.0" y="106.0" width="556.8" height="662.0" rx="14" fill="url(#gCard)" stroke="#302a60" stroke-width="1"/><text x="286.0" y="133.0" font-family="-apple-system,BlinkMacSystemFont,'SF Pro Display','SF Pro Text','Segoe UI',Roboto,system-ui,sans-serif" font-size="12.5" font-weight="700" fill="#f2effc" text-anchor="start">Discover profiles</text><text x="806.8" y="133.0" font-family="-apple-system,BlinkMacSystemFont,'SF Pro Display','SF Pro Text','Segoe UI',Roboto,system-ui,sans-serif" font-size="10" font-weight="600" fill="#6a6399" text-anchor="end">marketplace</text><rect x="292.0" y="156.0" width="508.8" height="62.0" rx="12" fill="rgba(255,255,255,0.03)" stroke="#302a60" stroke-width="1"/><circle cx="322" cy="187" r="18" fill="rgba(123,196,127,0.18)" stroke="#7bc47f" stroke-width="1.2"/><rect x="315.35" y="187.95" width="3.04" height="4.75" rx="1" fill="#7bc47f"/><rect x="320.1" y="184.14999999999998" width="3.04" height="8.549999999999999" rx="1" fill="#7bc47f"/><rect x="324.85" y="188.89999999999998" width="3.04" height="3.8" rx="1" fill="#7bc47f"/><rect x="329.6" y="182.25" width="3.04" height="10.45" rx="1" fill="#7bc47f"/><text x="352.0" y="182.0" font-family="-apple-system,BlinkMacSystemFont,'SF Pro Display','SF Pro Text','Segoe UI',Roboto,system-ui,sans-serif" font-size="12.5" font-weight="700" fill="#f2effc" text-anchor="start">Financial Expert AI</text><text x="352.0" y="198.0" font-family="-apple-system,BlinkMacSystemFont,'SF Pro Display','SF Pro Text','Segoe UI',Roboto,system-ui,sans-serif" font-size="10" font-weight="500" fill="#9a93c6" text-anchor="start">Wealth advisor &amp; planning</text><path d="M674.8 179.36 l0.8580000000000001 1.7820000000000003 1.914 0.198 -1.3860000000000001 1.32 0.396 1.914 -1.7160000000000002 -0.99 -1.7160000000000002 0.99 0.396 -1.914 -1.3860000000000001 -1.32 1.914 -0.198 Z" fill="#ffce54" stroke="#ffce54" stroke-width="0.5940000000000001" stroke-linejoin="round"/><path d="M682.7199999999999 179.36 l0.8580000000000001 1.7820000000000003 1.914 0.198 -1.3860000000000001 1.32 0.396 1.914 -1.7160000000000002 -0.99 -1.7160000000000002 0.99 0.396 -1.914 -1.3860000000000001 -1.32 1.914 -0.198 Z" fill="#ffce54" stroke="#ffce54" stroke-width="0.5940000000000001" stroke-linejoin="round"/><path d="M690.64 179.36 l0.8580000000000001 1.7820000000000003 1.914 0.198 -1.3860000000000001 1.32 0.396 1.914 -1.7160000000000002 -0.99 -1.7160000000000002 0.99 0.396 -1.914 -1.3860000000000001 -1.32 1.914 -0.198 Z" fill="#ffce54" stroke="#ffce54" stroke-width="0.5940000000000001" stroke-linejoin="round"/><path d="M698.56 179.36 l0.8580000000000001 1.7820000000000003 1.914 0.198 -1.3860000000000001 1.32 0.396 1.914 -1.7160000000000002 -0.99 -1.7160000000000002 0.99 0.396 -1.914 -1.3860000000000001 -1.32 1.914 -0.198 Z" fill="#ffce54" stroke="#ffce54" stroke-width="0.5940000000000001" stroke-linejoin="round"/><path d="M706.4799999999999 179.36 l0.8580000000000001 1.7820000000000003 1.914 0.198 -1.3860000000000001 1.32 0.396 1.914 -1.7160000000000002 -0.99 -1.7160000000000002 0.99 0.396 -1.914 -1.3860000000000001 -1.32 1.914 -0.198 Z" fill="none" stroke="#ffce54" stroke-width="0.5940000000000001" stroke-linejoin="round"/><text x="674.8" y="202.0" font-family="-apple-system,BlinkMacSystemFont,'SF Pro Display','SF Pro Text','Segoe UI',Roboto,system-ui,sans-serif" font-size="9.5" font-weight="600" fill="#ffce54" text-anchor="start">4.9 · ▲125</text><rect x="292.0" y="228.0" width="508.8" height="62.0" rx="12" fill="rgba(255,255,255,0.03)" stroke="#302a60" stroke-width="1"/><circle cx="322" cy="259" r="18" fill="rgba(231,139,208,0.18)" stroke="#e78bd0" stroke-width="1.2"/><path d="M322 264.7 C313.45 256.15,315.35 250.45,322 255.2 C328.65 250.45,330.55 256.15,322 264.7 Z" fill="#e78bd0"/><text x="352.0" y="254.0" font-family="-apple-system,BlinkMacSystemFont,'SF Pro Display','SF Pro Text','Segoe UI',Roboto,system-ui,sans-serif" font-size="12.5" font-weight="700" fill="#f2effc" text-anchor="start">Wellness Coach</text><text x="352.0" y="270.0" font-family="-apple-system,BlinkMacSystemFont,'SF Pro Display','SF Pro Text','Segoe UI',Roboto,system-ui,sans-serif" font-size="10" font-weight="500" fill="#9a93c6" text-anchor="start">Mental &amp; physical health</text><path d="M674.8 251.36 l0.8580000000000001 1.7820000000000003 1.914 0.198 -1.3860000000000001 1.32 0.396 1.914 -1.7160000000000002 -0.99 -1.7160000000000002 0.99 0.396 -1.914 -1.3860000000000001 -1.32 1.914 -0.198 Z" fill="#ffce54" stroke="#ffce54" stroke-width="0.5940000000000001" stroke-linejoin="round"/><path d="M682.7199999999999 251.36 l0.8580000000000001 1.7820000000000003 1.914 0.198 -1.3860000000000001 1.32 0.396 1.914 -1.7160000000000002 -0.99 -1.7160000000000002 0.99 0.396 -1.914 -1.3860000000000001 -1.32 1.914 -0.198 Z" fill="#ffce54" stroke="#ffce54" stroke-width="0.5940000000000001" stroke-linejoin="round"/><path d="M690.64 251.36 l0.8580000000000001 1.7820000000000003 1.914 0.198 -1.3860000000000001 1.32 0.396 1.914 -1.7160000000000002 -0.99 -1.7160000000000002 0.99 0.396 -1.914 -1.3860000000000001 -1.32 1.914 -0.198 Z" fill="#ffce54" stroke="#ffce54" stroke-width="0.5940000000000001" stroke-linejoin="round"/><path d="M698.56 251.36 l0.8580000000000001 1.7820000000000003 1.914 0.198 -1.3860000000000001 1.32 0.396 1.914 -1.7160000000000002 -0.99 -1.7160000000000002 0.99 0.396 -1.914 -1.3860000000000001 -1.32 1.914 -0.198 Z" fill="#ffce54" stroke="#ffce54" stroke-width="0.5940000000000001" stroke-linejoin="round"/><path d="M706.4799999999999 251.36 l0.8580000000000001 1.7820000000000003 1.914 0.198 -1.3860000000000001 1.32 0.396 1.914 -1.7160000000000002 -0.99 -1.7160000000000002 0.99 0.396 -1.914 -1.3860000000000001 -1.32 1.914 -0.198 Z" fill="none" stroke="#ffce54" stroke-width="0.5940000000000001" stroke-linejoin="round"/><text x="674.8" y="274.0" font-family="-apple-system,BlinkMacSystemFont,'SF Pro Display','SF Pro Text','Segoe UI',Roboto,system-ui,sans-serif" font-size="9.5" font-weight="600" fill="#ffce54" text-anchor="start">4.8 · ▲98</text><rect x="292.0" y="300.0" width="508.8" height="62.0" rx="12" fill="rgba(255,255,255,0.03)" stroke="#302a60" stroke-width="1"/><circle cx="322" cy="331" r="18" fill="rgba(255,184,77,0.18)" stroke="#ffb84d" stroke-width="1.2"/><path d="M322 323.4 l2.28 4.75 5.13 0.57 -3.8 3.61 1.045 5.034999999999999 -4.655 -2.565 -4.655 2.565 1.045 -5.034999999999999 -3.8 -3.61 5.13 -0.57 Z" fill="none" stroke="#ffb84d" stroke-width="1.61" stroke-linecap="round" stroke-linejoin="round"/><text x="352.0" y="326.0" font-family="-apple-system,BlinkMacSystemFont,'SF Pro Display','SF Pro Text','Segoe UI',Roboto,system-ui,sans-serif" font-size="12.5" font-weight="700" fill="#f2effc" text-anchor="start">Creator Assistant</text><text x="352.0" y="342.0" font-family="-apple-system,BlinkMacSystemFont,'SF Pro Display','SF Pro Text','Segoe UI',Roboto,system-ui,sans-serif" font-size="10" font-weight="500" fill="#9a93c6" text-anchor="start">Brand &amp; content expert</text><path d="M674.8 323.36 l0.8580000000000001 1.7820000000000003 1.914 0.198 -1.3860000000000001 1.32 0.396 1.914 -1.7160000000000002 -0.99 -1.7160000000000002 0.99 0.396 -1.914 -1.3860000000000001 -1.32 1.914 -0.198 Z" fill="#ffce54" stroke="#ffce54" stroke-width="0.5940000000000001" stroke-linejoin="round"/><path d="M682.7199999999999 323.36 l0.8580000000000001 1.7820000000000003 1.914 0.198 -1.3860000000000001 1.32 0.396 1.914 -1.7160000000000002 -0.99 -1.7160000000000002 0.99 0.396 -1.914 -1.3860000000000001 -1.32 1.914 -0.198 Z" fill="#ffce54" stroke="#ffce54" stroke-width="0.5940000000000001" stroke-linejoin="round"/><path d="M690.64 323.36 l0.8580000000000001 1.7820000000000003 1.914 0.198 -1.3860000000000001 1.32 0.396 1.914 -1.7160000000000002 -0.99 -1.7160000000000002 0.99 0.396 -1.914 -1.3860000000000001 -1.32 1.914 -0.198 Z" fill="#ffce54" stroke="#ffce54" stroke-width="0.5940000000000001" stroke-linejoin="round"/><path d="M698.56 323.36 l0.8580000000000001 1.7820000000000003 1.914 0.198 -1.3860000000000001 1.32 0.396 1.914 -1.7160000000000002 -0.99 -1.7160000000000002 0.99 0.396 -1.914 -1.3860000000000001 -1.32 1.914 -0.198 Z" fill="#ffce54" stroke="#ffce54" stroke-width="0.5940000000000001" stroke-linejoin="round"/><path d="M706.4799999999999 323.36 l0.8580000000000001 1.7820000000000003 1.914 0.198 -1.3860000000000001 1.32 0.396 1.914 -1.7160000000000002 -0.99 -1.7160000000000002 0.99 0.396 -1.914 -1.3860000000000001 -1.32 1.914 -0.198 Z" fill="none" stroke="#ffce54" stroke-width="0.5940000000000001" stroke-linejoin="round"/><text x="674.8" y="346.0" font-family="-apple-system,BlinkMacSystemFont,'SF Pro Display','SF Pro Text','Segoe UI',Roboto,system-ui,sans-serif" font-size="9.5" font-weight="600" fill="#ffce54" text-anchor="start">4.9 · ▲210</text><rect x="292.0" y="372.0" width="508.8" height="62.0" rx="12" fill="rgba(255,255,255,0.03)" stroke="#302a60" stroke-width="1"/><circle cx="322" cy="403" r="18" fill="rgba(159,216,232,0.18)" stroke="#9fd8e8" stroke-width="1.2"/><rect x="315.35" y="396.35" width="13.299999999999999" height="13.299999999999999" rx="2" fill="none" stroke="#9fd8e8" stroke-width="1.61" stroke-linecap="round" stroke-linejoin="round"/><path d="M322 396.35 v13.299999999999999" fill="none" stroke="#9fd8e8" stroke-width="1.61" stroke-linecap="round" stroke-linejoin="round"/><text x="352.0" y="398.0" font-family="-apple-system,BlinkMacSystemFont,'SF Pro Display','SF Pro Text','Segoe UI',Roboto,system-ui,sans-serif" font-size="12.5" font-weight="700" fill="#f2effc" text-anchor="start">Historical Expert</text><text x="352.0" y="414.0" font-family="-apple-system,BlinkMacSystemFont,'SF Pro Display','SF Pro Text','Segoe UI',Roboto,system-ui,sans-serif" font-size="10" font-weight="500" fill="#9a93c6" text-anchor="start">History &amp; civilization</text><path d="M674.8 395.36 l0.8580000000000001 1.7820000000000003 1.914 0.198 -1.3860000000000001 1.32 0.396 1.914 -1.7160000000000002 -0.99 -1.7160000000000002 0.99 0.396 -1.914 -1.3860000000000001 -1.32 1.914 -0.198 Z" fill="#ffce54" stroke="#ffce54" stroke-width="0.5940000000000001" stroke-linejoin="round"/><path d="M682.7199999999999 395.36 l0.8580000000000001 1.7820000000000003 1.914 0.198 -1.3860000000000001 1.32 0.396 1.914 -1.7160000000000002 -0.99 -1.7160000000000002 0.99 0.396 -1.914 -1.3860000000000001 -1.32 1.914 -0.198 Z" fill="#ffce54" stroke="#ffce54" stroke-width="0.5940000000000001" stroke-linejoin="round"/><path d="M690.64 395.36 l0.8580000000000001 1.7820000000000003 1.914 0.198 -1.3860000000000001 1.32 0.396 1.914 -1.7160000000000002 -0.99 -1.7160000000000002 0.99 0.396 -1.914 -1.3860000000000001 -1.32 1.914 -0.198 Z" fill="#ffce54" stroke="#ffce54" stroke-width="0.5940000000000001" stroke-linejoin="round"/><path d="M698.56 395.36 l0.8580000000000001 1.7820000000000003 1.914 0.198 -1.3860000000000001 1.32 0.396 1.914 -1.7160000000000002 -0.99 -1.7160000000000002 0.99 0.396 -1.914 -1.3860000000000001 -1.32 1.914 -0.198 Z" fill="#ffce54" stroke="#ffce54" stroke-width="0.5940000000000001" stroke-linejoin="round"/><path d="M706.4799999999999 395.36 l0.8580000000000001 1.7820000000000003 1.914 0.198 -1.3860000000000001 1.32 0.396 1.914 -1.7160000000000002 -0.99 -1.7160000000000002 0.99 0.396 -1.914 -1.3860000000000001 -1.32 1.914 -0.198 Z" fill="none" stroke="#ffce54" stroke-width="0.5940000000000001" stroke-linejoin="round"/><text x="674.8" y="418.0" font-family="-apple-system,BlinkMacSystemFont,'SF Pro Display','SF Pro Text','Segoe UI',Roboto,system-ui,sans-serif" font-size="9.5" font-weight="600" fill="#ffce54" text-anchor="start">4.7 · ▲76</text><rect x="844.8" y="106.0" width="383.2" height="662.0" rx="14" fill="url(#gCard)" stroke="#302a60" stroke-width="1"/><text x="862.8" y="133.0" font-family="-apple-system,BlinkMacSystemFont,'SF Pro Display','SF Pro Text','Segoe UI',Roboto,system-ui,sans-serif" font-size="12.5" font-weight="700" fill="#f2effc" text-anchor="start">Your licensing</text><text x="1210.0" y="133.0" font-family="-apple-system,BlinkMacSystemFont,'SF Pro Display','SF Pro Text','Segoe UI',Roboto,system-ui,sans-serif" font-size="10" font-weight="600" fill="#6a6399" text-anchor="end">earnings</text><rect x="862.8" y="152.0" width="347.2" height="52.0" rx="11" fill="rgba(255,255,255,0.03)" stroke="#302a60" stroke-width="1"/><rect x="874.8" y="161.0" width="34.0" height="34.0" rx="11" fill="rgba(123,92,255,0.16)"/><path d="M884.4399999999999 172.48 h14.72 a2 2 0 0 1 2 2 v6.44 a2 2 0 0 1 -2 2 h-8.280000000000001 l-3.68 3.68 v-3.68 h-2.7600000000000002 a2 2 0 0 1 -2 -2 v-6.44 a2 2 0 0 1 2 -2 Z" fill="none" stroke="#7b5cff" stroke-width="1.56" stroke-linecap="round" stroke-linejoin="round"/><text x="918.8" y="175.0" font-family="-apple-system,BlinkMacSystemFont,'SF Pro Display','SF Pro Text','Segoe UI',Roboto,system-ui,sans-serif" font-size="12" font-weight="700" fill="#f2effc" text-anchor="start">Consult</text><text x="918.8" y="191.0" font-family="-apple-system,BlinkMacSystemFont,'SF Pro Display','SF Pro Text','Segoe UI',Roboto,system-ui,sans-serif" font-size="9.5" font-weight="500" fill="#9a93c6" text-anchor="start">active offer</text><text x="1196.0" y="183.0" font-family="-apple-system,BlinkMacSystemFont,'SF Pro Display','SF Pro Text','Segoe UI',Roboto,system-ui,sans-serif" font-size="11.5" font-weight="700" fill="#7b5cff" text-anchor="end">$20 / session</text><rect x="862.8" y="214.0" width="347.2" height="52.0" rx="11" fill="rgba(255,255,255,0.03)" stroke="#302a60" stroke-width="1"/><rect x="874.8" y="223.0" width="34.0" height="34.0" rx="11" fill="rgba(255,184,77,0.16)"/><path d="M885.3599999999999 235.4 h12.88 M885.3599999999999 240 h12.88 M885.3599999999999 244.6 h12.88" fill="none" stroke="#ffb84d" stroke-width="1.56" stroke-linecap="round" stroke-linejoin="round"/><circle cx="893.64" cy="235.4" r="1.84" fill="#ffb84d"/><circle cx="889.04" cy="240" r="1.84" fill="#ffb84d"/><circle cx="895.4799999999999" cy="244.6" r="1.84" fill="#ffb84d"/><text x="918.8" y="237.0" font-family="-apple-system,BlinkMacSystemFont,'SF Pro Display','SF Pro Text','Segoe UI',Roboto,system-ui,sans-serif" font-size="12" font-weight="700" fill="#f2effc" text-anchor="start">Fine Tune</text><text x="918.8" y="253.0" font-family="-apple-system,BlinkMacSystemFont,'SF Pro Display','SF Pro Text','Segoe UI',Roboto,system-ui,sans-serif" font-size="9.5" font-weight="500" fill="#9a93c6" text-anchor="start">active offer</text><text x="1196.0" y="245.0" font-family="-apple-system,BlinkMacSystemFont,'SF Pro Display','SF Pro Text','Segoe UI',Roboto,system-ui,sans-serif" font-size="11.5" font-weight="700" fill="#ffb84d" text-anchor="end">$499 / license</text><rect x="862.8" y="276.0" width="347.2" height="52.0" rx="11" fill="rgba(255,255,255,0.03)" stroke="#302a60" stroke-width="1"/><rect x="874.8" y="285.0" width="34.0" height="34.0" rx="11" fill="rgba(231,139,208,0.16)"/><circle cx="888.12" cy="298.32" r="2.7600000000000002" fill="none" stroke="#e78bd0" stroke-width="1.56" stroke-linecap="round" stroke-linejoin="round"/><circle cx="895.4799999999999" cy="298.32" r="2.7600000000000002" fill="none" stroke="#e78bd0" stroke-width="1.56" stroke-linecap="round" stroke-linejoin="round"/><path d="M883.52 307.52 c0 -4.6000000000000005 5.5200000000000005 -4.6000000000000005 5.5200000000000005 0 M890.88 307.52 c0 -4.6000000000000005 6.44 -4.6000000000000005 8.280000000000001 -0.92" fill="none" stroke="#e78bd0" stroke-width="1.56" stroke-linecap="round" stroke-linejoin="round"/><text x="918.8" y="299.0" font-family="-apple-system,BlinkMacSystemFont,'SF Pro Display','SF Pro Text','Segoe UI',Roboto,system-ui,sans-serif" font-size="12" font-weight="700" fill="#f2effc" text-anchor="start">Clone Agent</text><text x="918.8" y="315.0" font-family="-apple-system,BlinkMacSystemFont,'SF Pro Display','SF Pro Text','Segoe UI',Roboto,system-ui,sans-serif" font-size="9.5" font-weight="500" fill="#9a93c6" text-anchor="start">active offer</text><text x="1196.0" y="307.0" font-family="-apple-system,BlinkMacSystemFont,'SF Pro Display','SF Pro Text','Segoe UI',Roboto,system-ui,sans-serif" font-size="11.5" font-weight="700" fill="#e78bd0" text-anchor="end">Negotiated</text><rect x="862.8" y="342.0" width="347.2" height="66.0" rx="12" fill="rgba(123,196,127,0.08)" stroke="#7bc47f" stroke-width="1"/><text x="878.8" y="366.0" font-family="-apple-system,BlinkMacSystemFont,'SF Pro Display','SF Pro Text','Segoe UI',Roboto,system-ui,sans-serif" font-size="10.5" font-weight="600" fill="#9a93c6" text-anchor="start">Earnings this month</text><text x="878.8" y="392.0" font-family="-apple-system,BlinkMacSystemFont,'SF Pro Display','SF Pro Text','Segoe UI',Roboto,system-ui,sans-serif" font-size="22" font-weight="800" fill="#7bc47f" text-anchor="start">$1,840</text><text x="1194.0" y="390.0" font-family="-apple-system,BlinkMacSystemFont,'SF Pro Display','SF Pro Text','Segoe UI',Roboto,system-ui,sans-serif" font-size="10" font-weight="500" fill="#9a93c6" text-anchor="end">18 grants</text></svg>