<svg xmlns="http://www.w3.org/2000/svg" width="1280" height="820" viewBox="0 0 1280 820" role="img" aria-label="QRME — Control Center"><defs>
      <linearGradient id="gPage" x1="0" y1="0" x2="0.4" y2="1">
        <stop offset="0" stop-color="#0d0a20"/><stop offset="1" stop-color="#080614"/></linearGradient>
      <linearGradient id="gScr" x1="0" y1="0" x2="0.5" y2="1">
        <stop offset="0" stop-color="#181235"/><stop offset="1" stop-color="#0c0920"/></linearGradient>
      <linearGradient id="gSide" x1="0" y1="0" x2="0" y2="1">
        <stop offset="0" stop-color="#1b1445"/><stop offset="1" stop-color="#100b2c"/></linearGradient>
      <linearGradient id="gCard" x1="0" y1="0" x2="0.4" y2="1">
        <stop offset="0" stop-color="#201a48"/><stop offset="1" stop-color="#181240"/></linearGradient>
      <linearGradient id="gBrand" x1="0" y1="0" x2="1" y2="0">
        <stop offset="0" stop-color="#7b5cff"/><stop offset="1" stop-color="#9d7bff"/></linearGradient>
      <linearGradient id="gAmber" x1="0" y1="0" x2="1" y2="0">
        <stop offset="0" stop-color="#ffb84d"/><stop offset="1" stop-color="#ffd27a"/></linearGradient>
      <radialGradient id="orb" cx="36%" cy="30%" r="78%">
        <stop offset="0" stop-color="#d9ccff"/><stop offset="38%" stop-color="#7b5cff"/>
        <stop offset="78%" stop-color="#3f3bc0"/><stop offset="100%" stop-color="#140f34"/></radialGradient>
    </defs><rect x="0.0" y="0.0" width="1280.0" height="820.0" rx="0" fill="url(#gPage)"/><rect x="24" y="24" width="1232" height="772" rx="10" fill="url(#gScr)" stroke="#302a60" stroke-width="1"/><rect x="24.0" y="24.0" width="216.0" height="772.0" rx="18" fill="url(#gSide)"/><rect x="222.0" y="24.0" width="18.0" height="772.0" rx="0" fill="url(#gScr)"/><line x1="240" y1="24" x2="240" y2="796" stroke="#302a60" stroke-width="1"/><line x1="240" y1="78" x2="1256" y2="78" stroke="#302a60" stroke-width="1"/><line x1="1164" y1="52" x2="1175" y2="52" stroke="#9a93c6" stroke-width="1.3"/><rect x="1193.0" y="46.0" width="11.0" height="11.0" rx="1.5" fill="none" stroke="#9a93c6" stroke-width="1.3"/><path d="M1223 46 l11 11 M1234 46 l-11 11" stroke="#9a93c6" stroke-width="1.3" stroke-linecap="round"/><circle cx="120" cy="51" r="11" fill="url(#orb)"/><circle cx="120" cy="48.6" r="2.16" fill="none" stroke="rgba(255,255,255,0.95)" stroke-width="1.02" stroke-linecap="round" stroke-linejoin="round"/><path d="M116.4 55.2 c0 -3.5999999999999996 7.199999999999999 -3.5999999999999996 7.199999999999999 0" fill="none" stroke="rgba(255,255,255,0.95)" stroke-width="1.02" stroke-linecap="round" stroke-linejoin="round"/><text x="138.0" y="49.0" font-family="-apple-system,BlinkMacSystemFont,'SF Pro Display','SF Pro Text','Segoe UI',Roboto,system-ui,sans-serif" font-size="14" font-weight="800" fill="#f2effc" text-anchor="start" letter-spacing="0.5">QRME</text><text x="138.0" y="63.0" font-family="-apple-system,BlinkMacSystemFont,'SF Pro Display','SF Pro Text','Segoe UI',Roboto,system-ui,sans-serif" font-size="8.5" font-weight="500" fill="#6a6399" text-anchor="start">Your identity. Your AI.</text><text x="268.0" y="57.0" font-family="-apple-system,BlinkMacSystemFont,'SF Pro Display','SF Pro Text','Segoe UI',Roboto,system-ui,sans-serif" font-size="15" font-weight="700" fill="#f2effc" text-anchor="start" letter-spacing="-0.2">Control Center</text><rect x="1134.96" y="43.8" width="2.08" height="3.2" rx="1" transform="rotate(0 1136 51)" fill="#9a93c6"/><rect x="1134.96" y="43.8" width="2.08" height="3.2" rx="1" transform="rotate(45 1136 51)" fill="#9a93c6"/><rect x="1134.96" y="43.8" width="2.08" height="3.2" rx="1" transform="rotate(90 1136 51)" fill="#9a93c6"/><rect x="1134.96" y="43.8" width="2.08" height="3.2" rx="1" transform="rotate(135 1136 51)" fill="#9a93c6"/><rect x="1134.96" y="43.8" width="2.08" height="3.2" rx="1" transform="rotate(180 1136 51)" fill="#9a93c6"/><rect x="1134.96" y="43.8" width="2.08" height="3.2" rx="1" transform="rotate(225 1136 51)" fill="#9a93c6"/><rect x="1134.96" y="43.8" width="2.08" height="3.2" rx="1" transform="rotate(270 1136 51)" fill="#9a93c6"/><rect x="1134.96" y="43.8" width="2.08" height="3.2" rx="1" transform="rotate(315 1136 51)" fill="#9a93c6"/><circle cx="1136" cy="51" r="3.6799999999999997" fill="none" stroke="#9a93c6" stroke-width="1.36" stroke-linecap="round" stroke-linejoin="round"/><rect x="1026.0" y="46.0" width="86.0" height="16.0" rx="8" fill="rgba(123,196,127,0.14)"/><circle cx="1035.0" cy="54" r="3" fill="#7bc47f"/><text x="1042.0" y="58.0" font-family="-apple-system,BlinkMacSystemFont,'SF Pro Display','SF Pro Text','Segoe UI',Roboto,system-ui,sans-serif" font-size="9" font-weight="700" fill="#7bc47f" text-anchor="start" letter-spacing="0.5">Ava · Online</text><circle cx="1016" cy="51" r="13" fill="url(#orb)"/><circle cx="1016" cy="48.52" r="2.232" fill="none" stroke="rgba(255,255,255,0.9)" stroke-width="1.05" stroke-linecap="round" stroke-linejoin="round"/><path d="M1012.28 55.34 c0 -3.7199999999999998 7.4399999999999995 -3.7199999999999998 7.4399999999999995 0" fill="none" stroke="rgba(255,255,255,0.9)" stroke-width="1.05" stroke-linecap="round" stroke-linejoin="round"/><circle cx="58" cy="111" r="5.3999999999999995" fill="none" stroke="#9a93c6" stroke-width="1.22" stroke-linecap="round" stroke-linejoin="round"/><circle cx="58" cy="111" r="2.52" fill="none" stroke="#9a93c6" stroke-width="1.22" stroke-linecap="round" stroke-linejoin="round"/><circle cx="58" cy="111" r="0.648" fill="#9a93c6"/><text x="78.0" y="116.0" font-family="-apple-system,BlinkMacSystemFont,'SF Pro Display','SF Pro Text','Segoe UI',Roboto,system-ui,sans-serif" font-size="12.5" font-weight="500" fill="#9a93c6" text-anchor="start">Home</text><path d="M52.24 152.68 h11.52 a2 2 0 0 1 2 2 v5.04 a2 2 0 0 1 -2 2 h-6.4799999999999995 l-2.88 2.88 v-2.88 h-2.16 a2 2 0 0 1 -2 -2 v-5.04 a2 2 0 0 1 2 -2 Z" fill="none" stroke="#9a93c6" stroke-width="1.22" stroke-linecap="round" stroke-linejoin="round"/><text x="78.0" y="162.0" font-family="-apple-system,BlinkMacSystemFont,'SF Pro Display','SF Pro Text','Segoe UI',Roboto,system-ui,sans-serif" font-size="12.5" font-weight="500" fill="#9a93c6" text-anchor="start">Conversation</text><circle cx="55.12" cy="200.12" r="2.16" fill="none" stroke="#9a93c6" stroke-width="1.22" stroke-linecap="round" stroke-linejoin="round"/><circle cx="60.88" cy="200.12" r="2.16" fill="none" stroke="#9a93c6" stroke-width="1.22" stroke-linecap="round" stroke-linejoin="round"/><path d="M51.52 207.32 c0 -3.5999999999999996 4.32 -3.5999999999999996 4.32 0 M57.28 207.32 c0 -3.5999999999999996 5.04 -3.5999999999999996 6.4799999999999995 -0.72" fill="none" stroke="#9a93c6" stroke-width="1.22" stroke-linecap="round" stroke-linejoin="round"/><text x="78.0" y="208.0" font-family="-apple-system,BlinkMacSystemFont,'SF Pro Display','SF Pro Text','Segoe UI',Roboto,system-ui,sans-serif" font-size="12.5" font-weight="500" fill="#9a93c6" text-anchor="start">Relationships</text><rect x="53.68" y="247.56" width="8.64" height="6.4799999999999995" rx="2" fill="none" stroke="#9a93c6" stroke-width="1.22" stroke-linecap="round" stroke-linejoin="round"/><path d="M55.48 247.56 v-2.16 a2.52 2.52 0 0 1 5.04 0 v2.16" fill="none" stroke="#9a93c6" stroke-width="1.22" stroke-linecap="round" stroke-linejoin="round"/><circle cx="58" cy="250.8" r="0.864" fill="#9a93c6"/><text x="78.0" y="254.0" font-family="-apple-system,BlinkMacSystemFont,'SF Pro Display','SF Pro Text','Segoe UI',Roboto,system-ui,sans-serif" font-size="12.5" font-weight="500" fill="#9a93c6" text-anchor="start">Memory</text><circle cx="58" cy="295" r="5.3999999999999995" fill="none" stroke="#9a93c6" stroke-width="1.22" stroke-linecap="round" stroke-linejoin="round"/><path d="M60.52 292.48 l-1.584 3.5999999999999996 -3.5999999999999996 1.584 1.584 -3.5999999999999996 Z" fill="#9a93c6"/><text x="78.0" y="300.0" font-family="-apple-system,BlinkMacSystemFont,'SF Pro Display','SF Pro Text','Segoe UI',Roboto,system-ui,sans-serif" font-size="12.5" font-weight="500" fill="#9a93c6" text-anchor="start">Marketplace</text><path d="M53.68 335.24 h5.76 l2.88 2.88 v8.64 h-8.64 Z" fill="none" stroke="#9a93c6" stroke-width="1.22" stroke-linecap="round" stroke-linejoin="round"/><path d="M55.84 340.28 h4.32 M55.84 343.16 h4.32" fill="none" stroke="#9a93c6" stroke-width="1.22" stroke-linecap="round" stroke-linejoin="round"/><text x="78.0" y="346.0" font-family="-apple-system,BlinkMacSystemFont,'SF Pro Display','SF Pro Text','Segoe UI',Roboto,system-ui,sans-serif" font-size="12.5" font-weight="500" fill="#9a93c6" text-anchor="start">Licensing</text><rect x="36.0" y="368.0" width="192.0" height="38.0" rx="10" fill="rgba(123,92,255,0.16)"/><rect x="36.0" y="368.0" width="3.0" height="38.0" rx="2" fill="#7b5cff"/><rect x="57.064" y="380.52" width="1.8719999999999999" height="2.88" rx="1" transform="rotate(0 58 387)" fill="#7b5cff"/><rect x="57.064" y="380.52" width="1.8719999999999999" height="2.88" rx="1" transform="rotate(45 58 387)" fill="#7b5cff"/><rect x="57.064" y="380.52" width="1.8719999999999999" height="2.88" rx="1" transform="rotate(90 58 387)" fill="#7b5cff"/><rect x="57.064" y="380.52" width="1.8719999999999999" height="2.88" rx="1" transform="rotate(135 58 387)" fill="#7b5cff"/><rect x="57.064" y="380.52" width="1.8719999999999999" height="2.88" rx="1" transform="rotate(180 58 387)" fill="#7b5cff"/><rect x="57.064" y="380.52" width="1.8719999999999999" height="2.88" rx="1" transform="rotate(225 58 387)" fill="#7b5cff"/><rect x="57.064" y="380.52" width="1.8719999999999999" height="2.88" rx="1" transform="rotate(270 58 387)" fill="#7b5cff"/><rect x="57.064" y="380.52" width="1.8719999999999999" height="2.88" rx="1" transform="rotate(315 58 387)" fill="#7b5cff"/><circle cx="58" cy="387" r="3.312" fill="none" stroke="#7b5cff" stroke-width="1.22" stroke-linecap="round" stroke-linejoin="round"/><text x="78.0" y="392.0" font-family="-apple-system,BlinkMacSystemFont,'SF Pro Display','SF Pro Text','Segoe UI',Roboto,system-ui,sans-serif" font-size="12.5" font-weight="650" fill="#f2effc" text-anchor="start">Control</text><line x1="40" y1="726" x2="224" y2="726" stroke="#302a60" stroke-width="1"/><rect x="40.0" y="740.0" width="184.0" height="40.0" rx="10" fill="rgba(255,255,255,0.04)" stroke="#302a60" stroke-width="1"/><rect x="54.04" y="758.68" width="7.92" height="5.94" rx="2" fill="none" stroke="#7bc47f" stroke-width="1.12" stroke-linecap="round" stroke-linejoin="round"/><path d="M55.69 758.68 v-1.98 a2.31 2.31 0 0 1 4.62 0 v1.98" fill="none" stroke="#7bc47f" stroke-width="1.12" stroke-linecap="round" stroke-linejoin="round"/><circle cx="58" cy="761.65" r="0.792" fill="#7bc47f"/><text x="76.0" y="756.0" font-family="-apple-system,BlinkMacSystemFont,'SF Pro Display','SF Pro Text','Segoe UI',Roboto,system-ui,sans-serif" font-size="10.5" font-weight="650" fill="#f2effc" text-anchor="start">Vault protected</text><text x="76.0" y="769.0" font-family="-apple-system,BlinkMacSystemFont,'SF Pro Display','SF Pro Text','Segoe UI',Roboto,system-ui,sans-serif" font-size="8.5" font-weight="500" fill="#6a6399" text-anchor="start">AES-256-GCM · local</text><rect x="268.0" y="106.0" width="470.0" height="662.0" rx="14" fill="url(#gCard)" stroke="#302a60" stroke-width="1"/><text x="286.0" y="133.0" font-family="-apple-system,BlinkMacSystemFont,'SF Pro Display','SF Pro Text','Segoe UI',Roboto,system-ui,sans-serif" font-size="12.5" font-weight="700" fill="#f2effc" text-anchor="start">Privacy &amp; permissions</text><rect x="288.0" y="152.0" width="430.0" height="46.0" rx="11" fill="rgba(255,255,255,0.03)" stroke="#302a60" stroke-width="1"/><text x="304.0" y="174.0" font-family="-apple-system,BlinkMacSystemFont,'SF Pro Display','SF Pro Text','Segoe UI',Roboto,system-ui,sans-serif" font-size="11.5" font-weight="650" fill="#f2effc" text-anchor="start">Offline mode</text><text x="304.0" y="189.0" font-family="-apple-system,BlinkMacSystemFont,'SF Pro Display','SF Pro Text','Segoe UI',Roboto,system-ui,sans-serif" font-size="9.5" font-weight="500" fill="#9a93c6" text-anchor="start">nothing leaves this device</text><rect x="676.0" y="165.0" width="34.0" height="20.0" rx="10" fill="#7bc47f"/><circle cx="702.0" cy="175" r="8" fill="#fff"/><rect x="288.0" y="206.0" width="430.0" height="46.0" rx="11" fill="rgba(255,255,255,0.03)" stroke="#302a60" stroke-width="1"/><text x="304.0" y="228.0" font-family="-apple-system,BlinkMacSystemFont,'SF Pro Display','SF Pro Text','Segoe UI',Roboto,system-ui,sans-serif" font-size="11.5" font-weight="650" fill="#f2effc" text-anchor="start">Cloud contribution</text><text x="304.0" y="243.0" font-family="-apple-system,BlinkMacSystemFont,'SF Pro Display','SF Pro Text','Segoe UI',Roboto,system-ui,sans-serif" font-size="9.5" font-weight="500" fill="#9a93c6" text-anchor="start">anonymized, previewable</text><rect x="676.0" y="219.0" width="34.0" height="20.0" rx="10" fill="#2a2450"/><circle cx="688.0" cy="229" r="8" fill="#fff"/><rect x="288.0" y="260.0" width="430.0" height="46.0" rx="11" fill="rgba(255,255,255,0.03)" stroke="#302a60" stroke-width="1"/><text x="304.0" y="282.0" font-family="-apple-system,BlinkMacSystemFont,'SF Pro Display','SF Pro Text','Segoe UI',Roboto,system-ui,sans-serif" font-size="11.5" font-weight="650" fill="#f2effc" text-anchor="start">Camera</text><text x="304.0" y="297.0" font-family="-apple-system,BlinkMacSystemFont,'SF Pro Display','SF Pro Text','Segoe UI',Roboto,system-ui,sans-serif" font-size="9.5" font-weight="500" fill="#9a93c6" text-anchor="start">for perceive &amp; guide</text><rect x="676.0" y="273.0" width="34.0" height="20.0" rx="10" fill="#7bc47f"/><circle cx="702.0" cy="283" r="8" fill="#fff"/><rect x="288.0" y="314.0" width="430.0" height="46.0" rx="11" fill="rgba(255,255,255,0.03)" stroke="#302a60" stroke-width="1"/><text x="304.0" y="336.0" font-family="-apple-system,BlinkMacSystemFont,'SF Pro Display','SF Pro Text','Segoe UI',Roboto,system-ui,sans-serif" font-size="11.5" font-weight="650" fill="#f2effc" text-anchor="start">Microphone</text><text x="304.0" y="351.0" font-family="-apple-system,BlinkMacSystemFont,'SF Pro Display','SF Pro Text','Segoe UI',Roboto,system-ui,sans-serif" font-size="9.5" font-weight="500" fill="#9a93c6" text-anchor="start">for voice replies</text><rect x="676.0" y="327.0" width="34.0" height="20.0" rx="10" fill="#7bc47f"/><circle cx="702.0" cy="337" r="8" fill="#fff"/><rect x="288.0" y="368.0" width="430.0" height="46.0" rx="11" fill="rgba(255,255,255,0.03)" stroke="#302a60" stroke-width="1"/><text x="304.0" y="390.0" font-family="-apple-system,BlinkMacSystemFont,'SF Pro Display','SF Pro Text','Segoe UI',Roboto,system-ui,sans-serif" font-size="11.5" font-weight="650" fill="#f2effc" text-anchor="start">Location</text><text x="304.0" y="405.0" font-family="-apple-system,BlinkMacSystemFont,'SF Pro Display','SF Pro Text','Segoe UI',Roboto,system-ui,sans-serif" font-size="9.5" font-weight="500" fill="#9a93c6" text-anchor="start">for local providers</text><rect x="676.0" y="381.0" width="34.0" height="20.0" rx="10" fill="#2a2450"/><circle cx="688.0" cy="391" r="8" fill="#fff"/><rect x="288.0" y="428.0" width="430.0" height="44.0" rx="11" fill="rgba(224,104,122,0.08)" stroke="#e0687a" stroke-width="1"/><path d="M312 443.2 L318.8 455.1 H305.2 Z" fill="none" stroke="#e0687a" stroke-width="1.44" stroke-linecap="round" stroke-linejoin="round"/><path d="M312 447.45 v3.4" fill="none" stroke="#e0687a" stroke-width="1.44" stroke-linecap="round" stroke-linejoin="round"/><circle cx="312" cy="453.4" r="0.765" fill="#e0687a"/><text x="334.0" y="447.0" font-family="-apple-system,BlinkMacSystemFont,'SF Pro Display','SF Pro Text','Segoe UI',Roboto,system-ui,sans-serif" font-size="11.5" font-weight="650" fill="#f2effc" text-anchor="start">Delete my profile</text><text x="334.0" y="462.0" font-family="-apple-system,BlinkMacSystemFont,'SF Pro Display','SF Pro Text','Segoe UI',Roboto,system-ui,sans-serif" font-size="9.5" font-weight="500" fill="#9a93c6" text-anchor="start">erased locally &amp; in the vault</text><rect x="758.0" y="106.0" width="470.0" height="662.0" rx="14" fill="url(#gCard)" stroke="#302a60" stroke-width="1"/><text x="776.0" y="133.0" font-family="-apple-system,BlinkMacSystemFont,'SF Pro Display','SF Pro Text','Segoe UI',Roboto,system-ui,sans-serif" font-size="12.5" font-weight="700" fill="#f2effc" text-anchor="start">Embodiments &amp; surfaces</text><rect x="778.0" y="152.0" width="430.0" height="46.0" rx="11" fill="rgba(255,255,255,0.03)" stroke="#302a60" stroke-width="1"/><rect x="788.0" y="158.0" width="34.0" height="34.0" rx="11" fill="rgba(123,92,255,0.16)"/><rect x="800.4" y="167.64" width="9.200000000000001" height="14.72" rx="2.4" fill="none" stroke="#7b5cff" stroke-width="1.56" stroke-linecap="round" stroke-linejoin="round"/><path d="M803.528 179.6 h2.9440000000000004" fill="none" stroke="#7b5cff" stroke-width="1.56" stroke-linecap="round" stroke-linejoin="round"/><text x="832.0" y="180.0" font-family="-apple-system,BlinkMacSystemFont,'SF Pro Display','SF Pro Text','Segoe UI',Roboto,system-ui,sans-serif" font-size="12" font-weight="650" fill="#f2effc" text-anchor="start">iPhone</text><rect x="1144.0" y="166.0" width="50.0" height="16.0" rx="8" fill="rgba(123,196,127,0.14)"/><circle cx="1153.0" cy="174" r="3" fill="#7bc47f"/><text x="1160.0" y="178.0" font-family="-apple-system,BlinkMacSystemFont,'SF Pro Display','SF Pro Text','Segoe UI',Roboto,system-ui,sans-serif" font-size="9" font-weight="700" fill="#7bc47f" text-anchor="start" letter-spacing="0.5">ONLINE</text><rect x="778.0" y="206.0" width="430.0" height="46.0" rx="11" fill="rgba(255,255,255,0.03)" stroke="#302a60" stroke-width="1"/><rect x="788.0" y="212.0" width="34.0" height="34.0" rx="11" fill="rgba(123,92,255,0.16)"/><rect x="800.4" y="224.4" width="9.200000000000001" height="9.200000000000001" rx="2.5" fill="none" stroke="#7b5cff" stroke-width="1.56" stroke-linecap="round" stroke-linejoin="round"/><path d="M802.7 224.4 v-2.7600000000000002 h4.6000000000000005 v2.7600000000000002 M802.7 233.6 v2.7600000000000002 h4.6000000000000005 v-2.7600000000000002" fill="none" stroke="#7b5cff" stroke-width="1.56" stroke-linecap="round" stroke-linejoin="round"/><text x="832.0" y="234.0" font-family="-apple-system,BlinkMacSystemFont,'SF Pro Display','SF Pro Text','Segoe UI',Roboto,system-ui,sans-serif" font-size="12" font-weight="650" fill="#f2effc" text-anchor="start">Apple Watch</text><rect x="1144.0" y="220.0" width="50.0" height="16.0" rx="8" fill="rgba(123,196,127,0.14)"/><circle cx="1153.0" cy="228" r="3" fill="#7bc47f"/><text x="1160.0" y="232.0" font-family="-apple-system,BlinkMacSystemFont,'SF Pro Display','SF Pro Text','Segoe UI',Roboto,system-ui,sans-serif" font-size="9" font-weight="700" fill="#7bc47f" text-anchor="start" letter-spacing="0.5">ONLINE</text><rect x="778.0" y="260.0" width="430.0" height="46.0" rx="11" fill="rgba(255,255,255,0.03)" stroke="#302a60" stroke-width="1"/><rect x="788.0" y="266.0" width="34.0" height="34.0" rx="11" fill="rgba(123,92,255,0.16)"/><path d="M797.64 283.92 v-0.92 a7.36 7.36 0 0 1 14.72 0 v0.92" fill="none" stroke="#7b5cff" stroke-width="1.56" stroke-linecap="round" stroke-linejoin="round"/><rect x="796.72" y="283.92" width="3.68" height="6.44" rx="1.6" fill="none" stroke="#7b5cff" stroke-width="1.56" stroke-linecap="round" stroke-linejoin="round"/><rect x="809.6" y="283.92" width="3.68" height="6.44" rx="1.6" fill="none" stroke="#7b5cff" stroke-width="1.56" stroke-linecap="round" stroke-linejoin="round"/><text x="832.0" y="288.0" font-family="-apple-system,BlinkMacSystemFont,'SF Pro Display','SF Pro Text','Segoe UI',Roboto,system-ui,sans-serif" font-size="12" font-weight="650" fill="#f2effc" text-anchor="start">AR Headset</text><rect x="1138.0" y="274.0" width="56.0" height="16.0" rx="8" fill="rgba(106,99,153,0.14)"/><circle cx="1147.0" cy="282" r="3" fill="#6a6399"/><text x="1154.0" y="286.0" font-family="-apple-system,BlinkMacSystemFont,'SF Pro Display','SF Pro Text','Segoe UI',Roboto,system-ui,sans-serif" font-size="9" font-weight="700" fill="#6a6399" text-anchor="start" letter-spacing="0.5">OFFLINE</text><rect x="778.0" y="314.0" width="430.0" height="46.0" rx="11" fill="rgba(255,255,255,0.03)" stroke="#302a60" stroke-width="1"/><rect x="788.0" y="320.0" width="34.0" height="34.0" rx="11" fill="rgba(123,92,255,0.16)"/><rect x="798.56" y="333.32" width="12.88" height="10.120000000000001" rx="3" fill="none" stroke="#7b5cff" stroke-width="1.56" stroke-linecap="round" stroke-linejoin="round"/><path d="M805.0 333.32 v-2.7600000000000002" fill="none" stroke="#7b5cff" stroke-width="1.56" stroke-linecap="round" stroke-linejoin="round"/><circle cx="805.0" cy="329.64" r="1.288" fill="#7b5cff"/><circle cx="802.24" cy="337.92" r="1.3800000000000001" fill="#7b5cff"/><circle cx="807.76" cy="337.92" r="1.3800000000000001" fill="#7b5cff"/><text x="832.0" y="342.0" font-family="-apple-system,BlinkMacSystemFont,'SF Pro Display','SF Pro Text','Segoe UI',Roboto,system-ui,sans-serif" font-size="12" font-weight="650" fill="#f2effc" text-anchor="start">Robot</text><rect x="1126.0" y="328.0" width="68.0" height="16.0" rx="8" fill="rgba(255,184,77,0.14)"/><circle cx="1135.0" cy="336" r="3" fill="#ffb84d"/><text x="1142.0" y="340.0" font-family="-apple-system,BlinkMacSystemFont,'SF Pro Display','SF Pro Text','Segoe UI',Roboto,system-ui,sans-serif" font-size="9" font-weight="700" fill="#ffb84d" text-anchor="start" letter-spacing="0.5">AVAILABLE</text><rect x="778.0" y="368.0" width="430.0" height="46.0" rx="11" fill="rgba(255,255,255,0.03)" stroke="#302a60" stroke-width="1"/><rect x="788.0" y="374.0" width="34.0" height="34.0" rx="11" fill="rgba(123,92,255,0.16)"/><rect x="799.48" y="383.64" width="11.040000000000001" height="14.72" rx="3" fill="none" stroke="#7b5cff" stroke-width="1.56" stroke-linecap="round" stroke-linejoin="round"/><circle cx="805.0" cy="392.84" r="3.128" fill="none" stroke="#7b5cff" stroke-width="1.56" stroke-linecap="round" stroke-linejoin="round"/><circle cx="805.0" cy="386.4" r="0.92" fill="#7b5cff"/><text x="832.0" y="396.0" font-family="-apple-system,BlinkMacSystemFont,'SF Pro Display','SF Pro Text','Segoe UI',Roboto,system-ui,sans-serif" font-size="12" font-weight="650" fill="#f2effc" text-anchor="start">Smart Speaker</text><rect x="1144.0" y="382.0" width="50.0" height="16.0" rx="8" fill="rgba(123,196,127,0.14)"/><circle cx="1153.0" cy="390" r="3" fill="#7bc47f"/><text x="1160.0" y="394.0" font-family="-apple-system,BlinkMacSystemFont,'SF Pro Display','SF Pro Text','Segoe UI',Roboto,system-ui,sans-serif" font-size="9" font-weight="700" fill="#7bc47f" text-anchor="start" letter-spacing="0.5">ONLINE</text><rect x="778.0" y="426.0" width="430.0" height="44.0" rx="11" fill="rgba(123,92,255,0.08)" stroke="#7b5cff" stroke-width="1"/><path d="M796.6 449.8 c0 -6.3 2.7 -8.1 5.4 -8.1 c2.7 0 5.4 1.8 5.4 6.3" fill="none" stroke="#7b5cff" stroke-width="1.53" stroke-linecap="round" stroke-linejoin="round"/><path d="M799.3 451.6 c0 -5.4 1.8 -6.3 2.7 -6.3 c1.8 0 2.7 1.8 2.7 4.5" fill="none" stroke="#7b5cff" stroke-width="1.53" stroke-linecap="round" stroke-linejoin="round"/><path d="M802.0 453.4 v-5.4" fill="none" stroke="#7b5cff" stroke-width="1.53" stroke-linecap="round" stroke-linejoin="round"/><text x="824.0" y="444.0" font-family="-apple-system,BlinkMacSystemFont,'SF Pro Display','SF Pro Text','Segoe UI',Roboto,system-ui,sans-serif" font-size="11" font-weight="650" fill="#f2effc" text-anchor="start">Identity signature</text><text x="824.0" y="460.0" font-family="-apple-system,BlinkMacSystemFont,'SF Pro Display','SF Pro Text','Segoe UI',Roboto,system-ui,sans-serif" font-size="9.5" font-weight="500" fill="#9a93c6" text-anchor="start">98.9% consistent across forms</text></svg>